<mxfile host="Electron" modified="2024-07-30T07:56:23.024Z" agent="Mozilla/5.0 (Windows NT 10.0; Win64; x64) AppleWebKit/537.36 (KHTML, like Gecko) draw.io/24.6.4 Chrome/124.0.6367.207 Electron/30.0.6 Safari/537.36" etag="ockMY_imp-z-Om2yjIgk" version="24.6.4" type="device" pages="2">
  <diagram name="初始化" id="dZcfRTMfv4XBeF-JcIuX">
    <mxGraphModel dx="1962" dy="2109" grid="0" gridSize="10" guides="1" tooltips="1" connect="1" arrows="1" fold="1" page="0" pageScale="1" pageWidth="827" pageHeight="1169" math="0" shadow="0">
      <root>
        <mxCell id="0" />
        <mxCell id="1" parent="0" />
        <mxCell id="jz__pMLLjrS1bMTCTAv0-1" value="" style="shape=image;verticalLabelPosition=bottom;labelBackgroundColor=default;verticalAlign=top;aspect=fixed;imageAspect=0;image=data:image/png,iVBORw0KGgoAAAANSUhEUgAABD4AAAJJCAYAAABCoPeWAAAgAElEQVR4Aey9W5Mcx5UmOH9njAAJkCxcCnXDjSCKAAGCBMWLeBGbEkmpSVESb5IoiWqBkLolrShK1hxxWg+rNduFnvSyxjZj2zys2bJ/wb6uzczr/oB+9bUTWSfjlJdfwz1OeEZ+D2keGenuJ9y/7zvH/ZRn1n/6xje+YfDCHIAD4AA4AA6AA+AAOAAOgAPgADgADoAD4MAcOfCfaFD7j9/CC3MADoAD4AA4AA6AA+AAOAAOgAPgADgADoADs+IA5TyQ+ACpZ0VqJPGQxAQHwAFwABwAB8ABcAAcAAfAAXAAHGAOIPGBpAeSHuAAOAAOgAPgADgADoAD4AA4AA6AA+DAbDmAxAfIPVtyc3YPJTK94AA4AA6AA+AAOAAOgAPgADgADqwvB5D4QOIDiQ9wABwAB8ABcAAcAAfAAXAAHAAHwAFwYLYcQOID5J4tuZHRXd+MLrAH9uAAOAAOgAPgADgADoAD4AA4wBxA4gOJDyQ+wAFwABxojgNvvfeh+dEvfl30oj442KHEwgccAAfAAXAAHAAHwIH15QASH9jwYGMADoAD4EBzHKCkxz/985+LXtQHFjjru8AB9sAeHAAHwAFwABwAB5gDSHxgw4ONATgADoADzXEAiQ8sVHihghJcAAfAAXAAHAAHwIFSDiDxgQ1PcxueUlKjPRwjOLD6HEDiY/UxhA6BITgADoAD4AA4AA60wgEkPpD4QOIDHAAHwIHmOXDl9ffM/uNPBp7zSbOoM84C4+3PvjRf3vuVefH6E4FnGMf22AuGq6/8ytz78kvzb//2b+be3W9OOr5VmufuWT8jXq4m7rHnXiUsYmPB5/PkKHAFruAAOJDDASQ+ZrpgySEB6sJpgAPgQMsceOSdj83eF//dXPrN/+HdZNJnVIfqpo7lxbt/7Tb7tOHn15df/tXceeVwcuPq9W+aO/fmmfi4ev0989mXX46a8JjrPGskPq7+4E9LbhJHNZNvSHwgLqT6UtQDV8ABcGAVOIDEBxIfyZuEVSA0nhGOFxyYFweuvP2R2fs//1+z98X/6F6Xf/W/HvFZdI8/p7rUJoUHtCG3N5J8+uHLGf8lX87NYrxHkz2yTul16/PMyZ/PfnA44RUb99iJj27evvyTeVucMqJEiNapnCGJj6FzGZtrfD4vvw48gSc4AA5MwQEkPpD4SNogTEFO2IRTBAfWmwOPfv1Vc+FPX5qL//LfusTGhf/tq+76ypv9v6mla/qcPqPkR3f9py8NtY3xx7Uhpza8edPaYMaec8zPaSPtOuVS02br88x4t5T44GeakoNIfKy3/63pA9AXuAQOgAMtcACJDyQ+opuDFoiKZ4DDBAfWmwOU1Ljy+rtef0WfUZ0cnvg25NSH/dd2exPIX3/pvyJz+C/z1If9NYV7d99bfGVGnCbhft8++NoNn0CJ9d+1++y97jmXz3DwGyT07Mt71okBOT/UB9ejUiZA+OSL/NxODPieXdpYzqXn91Hi87z4Kg4/h3wGtv+i+I2SbhxifjscDr6qxH18KeZEzhV/LpMNnIDgzxgf6teJgeib58GeS9nHsp97vzKSA1+/9m73FaSUk0dD+v+J5zdrlnN6/YnF+CzcQrZic8nzgXK9fTnwB/7gADgwFQeQ+EDiI2ujMBVRYRdOEhxYbw7EEh9D+NFtuq2NHfez2OD1XwGRG0Kq8+LdPy1/C4STFHJDy5tAe6Nub8ypX/teSv/cjjfpckPKm2XetPN7HpssXSc+OGEjn537Z3vUBz9DqP/FWI5+pYifITTP/PyHbN7tf2B2aV9gyM8pnymGFduR46Xn43mQ9qn/OwdfiWH7/Dn3I3lgz6+LK9yPfObU+R3av92uG+9BAonngZ4rdyw8B9wH44xyvf038Af+4AA40AIHkPhA4gOJD3AAHAAHmudALPHx6Dfe7L7mkhNY44mPLw1v4OxNoG1nsZFcnPrgzR9viLnuctMrTiR0/TpOCXAbLmX/dM/1PK6+XPW4TyrtDbDv2aluN1/iWV32ZN98PXSeOYnBGHB/XPrs28/J9bm055LHLO24sOL2XLrmVtrmPmS/1NaZ7BHzyv1TSf0tT5sI3nT9HJxkGdI/P5vkqHx26l+Oj+vHbLnmUo4H19j8gAPgADgADkzFASQ+sOFpfsMzlThgF44ZHGiHA7HEx9XnXzWX/+FPWf6s2+iJ0wISb+fm1KpLG0PelHanNg42r74NO28e5V/25eZS2qdrX//8mexnec96xtAYqc2RxIf1V3+qwy+7bujZuQ2VoWcIzTPPVze31rioX599+zm5rgsr+sy1WfdhSPX51dm3khEyecB9SLvympMIvnGwHSqpTjcP4r8OlfYvceG5lokQ+VyptlxzKceB654/mAvMBTgADoADuhxA4kMsYkA+XfJhvjHf4AA4kMqBaOLjqeeDvwHisiM3fvbncgNLnx3aBB78C1j5WxHyFAFvEnljy33z5lImLGS/fb3F71r4+l8+j7XpdvUVGiP1YycJfM/uquuyx2OQZegZQvPMffAzdRt/kQDx2Zdj4o14aC65jsSLbcp7/DxcdvYtDOR4UvqgvnzjYDtcLvkTSbBxfS59/cvnW1z3X+2itrKdrMv9ukrXXLrq4R58PzgADoAD4IA2B5D4QOJj+dcrbfLBHhweOAAOpHIglvio+eOmvHnz/vXb8Z9QDm14DxIjsj2Nk/uNJj4i/VNfrk233KjyvIaSDt0zWbb4Ge1np7pyjMtnEIkItmmXvmdw2XKNgfujhAYlPzgZ0dV1fEVE9iGTINyPPQ5+Du6X6vE91zxwP52dUOLDwwNuz6V8Xr7nKxfjCX+lym4b6p/H0M2JNRbZLmU+yC7Xk3NpPw/ew++DA+AAOAAOTMEBJD6Q+EDiAxwAB8CB5jjwo1/82vzTP/+56EV9hAKra0POm2uZnKA+Dm0CrQ04/zVcniro6ouvJXAf3akFscGU/fKz8jPw5tHbv+iH+5c/Rkn3XGNkO1T6EgMywcD17HuuZ5d987XrGXiMwXl+5Vfms7vfXGJoPyvZt+eT+13OXQJWvFm3kxz03PaYqX/uuxu/hUE3VpGMcfZBXycS7VzzuHimwycwlic+RNuh/TM2PKf37vW/Z8Of2c+VYss3l9wnSmx2wAFwABwAB6biABIf2PAsF5VTkRB24QDBAXDA5oBW4oM2tvIlkxfymXybwG7jTaceupMTh/+lLbWRfX/2g296/53ti9efOOSLeZPp6797HrEBpme1n5HuUT92MkSOize+d145bJ8TCPz88l/dcnuXPf5MlnIsfX+H54rr233S+77N4UQA1+V/A8v1ODHBfUr73Vw4sJLjlQkQeZ/6l4mazr6FQTffIvFBzyDtd31Yp2R4HDYHOInA46JSPptrfDn9U3u24eKI67liY+n6PEg2+Z6Xnxsl/D44AA6AA+CAJgeQ+EDi49BiW5N8sAVnBw6AAz4OaCQ+fLbHuu/6i/1YttahX9fGfB3GjTHCb4ID4AA4AA6AA/kcQOIDiQ8kPsABcAAcaI4Db733oaHkR8mL+mhpYcBfWbFPJLT0jKv0LEh85C/6VglfPCvwBQfAAXAAHKjJASQ+sOFpamNQk9zoC84SHAAHpuIAfSVAfi0h9JWCqZ5x1e0i8QF9rzqH8fzgMDgADoADehxA4gOJDyQ+wAFwABwAB0bgAG3M5e8zyN+HwEKnfKGDxEf5HIKHmENwABwAB8CBdeEAEh8jLHbXhTwYJxwlOAAOgAPgADgADoAD4AA4AA6AA+BA6xxA4gOJD/ylFxwAB8ABcAAcAAfAAXAAHAAHwAFwAByYLQeQ+AC5Z0vu1rOOeD5kxsEBcAAcAAfAAXAAHAAHwAFwABwYnwNIfCDxgcQHOAAOgAPgADgADoAD4AA4AA6AA+AAODBbDiwTH/fdd5/h14kTJ5bXfK92qWFjc3NzFuPQmCsNG8Cj11hMT8CjrbkCHsAjptkhn2vwai42ED/a0iDwAB5DfF6sDfxVW7wCHsAjptkhn08ZP5D4EAmfIeDNxSlojGNKog/B1tdGY640bACPtgIa8AAePp9Tcl/Dl2jYgD6gjxId+NpqcFfDBvQBffg4XnJfg7saNqAP6IN1gMQHEh/dqRg4nracAvAAHuyka5YavJqLDSyU2tIg8AAeNX0h9wV/1RavgAfwYG3WLBE/2uLVlHgg8YHEBxIfmRxAYG7LgQIP4FFzgcR9TRmY+RlqlNAH9FGDR3Yf0EdbvAIewMPWaI33iB9t8Qp4lOOBxEfmptd2JHMhocY4EJjLBWvzr+Q98AAeJfzxtdXwJRo2oA/ow8fxkvsa3NWwAX1AHyU68LXV4K6GDegD+vBxvOS+Bnc1bEypDyQ+kPjAiY9MDmg4BQ0bUzqeEsdvt9WYKw0bwAMLJZvbNd5rcFfDBvQBfdTQg92HBnc1bEAf0IfN7RrvNbirYQP6gD5YD0h8ZG56eeK41BDsXGzA8cDxsG5qltBHW7wCHsCjpr65L8SPtngFPIAHa7NmifjRFq+AB/CoqW/ua8r4gcQHEh848ZHJAQQCBAJ23jXLKQNBzXFAH9BHTT5xX9BHW7wCHsCDtVmzRPxoi1fAA3jU1Df3NWX8QOIjc9PLoHE5F6egMY4pic541Sg15krDBvBoK6ABD+BRwz/ZfWj4Eg0b0Af0YXO7xnsN7mrYgD6gjxp6sPvQ4K6GDegD+mBuI/GBxAdOfGRyQMNJa9hAIEAg4EBQs9TgroYN6AP6qKkL7kuDuxo2oA/ogzlds9TgroYN6AP6qKkL7kuDuxo2ptQHEh+Zm14mH5caBJmLjSmJznjVKIFHWwENeACPGrq2+4C/aotXwAN42Bqt8R7xoy1eAQ/gUUPXdh+IH23xako8kPhA4gMnPjI5gMDclgMFHsDDXuTUeD9lYK7x/NwH9AF9MBdqltBHW7wCHsCjpr65L8SPtngFPMrxQOIjc9PLzoDLuZBQYxwIzOWCZd7VKIEH8KjBI7sPDV+iYQP6gD5sbtd4r8FdDRvQB/RRQw92Hxrc1bABfUAfNrdrvNfgroaNKfWBxAcSHzjxkckBDaegYWNKx1MjAHAfGnOlYQN4YKHEnK5ZanBXwwb0AX3U1AX3pcFdDRvQB/TBnK5ZanBXwwb0AX2wLpaJDyLe3F5E9LmNaZXHAzza0hjwAB6r7E/GfnboA/oYm2Or3D/0AX2sMn/HfnboA/oYm2Or3P+U+lgmPjgTQiVNpnw/xrWGDZrYMZ5d9qkxjrnYAB7IuErt1LqGPtriFfAAHrW0LftB/GiLV8ADeEh91rpG/GiLV8ADeNTStuxnyviBxEfm1xwkcHQ9F6egMY4piW7jVvJeY640bACPtgIa8AAeJX7J11bDl2jYgD6gDx/HS+5rcFfDBvQBfZTowNdWg7saNqAP6IM5jsQHEh/4jY9MDmg4aQ0bCAQIBBwIapYa3NWwAX1AHzV1wX1pcFfDBvQBfTCna5Ya3NWwAX1AHzV1wX1pcFfDxpT6QOIjc9PL5ONSgyBzsTEl0RmvGiXwaCugAQ/gUUPXdh/wV23xCngAD1ujNd4jfrTFK+ABPGro2u4D8aMtXk2JBxIfSHzgxEcmBxCY23KgwAN42IucGu+nDMw1np/7gD6gD+ZCzRL6aItXwAN41NQ394X40RavgEc5Hkh8ZG562RlwORcSaowDgblcsMy7GiXwAB41eGT3oeFLNGxAH9CHze0a7zW4q2ED+oA+aujB7kODuxo2oA/ow+Z2jfca3NWwMaU+kPhA4gMnPjI5oOEUNGxM6XhqBADuQ2OuNGwADyyUmNM1Sw3uatiAPqCPmrrgvjS4q2ED+oA+mNM1Sw3uatiAPqAP1gUSH5mbXp44LjUEOxcbcDxwPKybmiX00RavgAfwqKlv7gvxoy1eAQ/gwdqsWSJ+tMUr4AE8auqb+5oyfqgmPj744AOD1+rPwcbGRndKhAmcWqYSHRxZfY60gOFQnrr47Ar+LYwRzwCtEAdCXHdx18XxknsaNlLjR+vj0JgrDRvAo60NEfAAHiW+z9dWw5do2IA+oA/muHriY39/31y6dGnlXnt7eyv3zLXnmbCLLbKZWK4y1fGQDfBk9TRSm29D+yvlqYu7rsAMnoKjQzlaq10K113cdXG85J6GjdT40fo4NOZKwwbwwEaiRGu+thrc1bABfUAfPo6X3NfgroaNKfWhnvigBd/W1tbKvc6cObNyz1x7ni9evKiW+ABPVk8jtfk2tL9SnrqCkisQUOIDPAVPh/K0RrsUrru46+J4yT0NG1MulErmxm6rMVcaNoAHNnY2t2u81+Cuhg3oA/qooQe7Dw3uatiYUh9IfCQmYZD42DIpi2xbpPJ9KtGxocRmsmRTWMpTyVm+dgUC8BQ8LeFpjbYpXHdxl3ldq9SwkRo/SsakMY652AAe2NiVaM3XFvpoi1fAA3j4tFpyf8r4gcQHEh/JJ1lSFtkhIaQSHRtKbChLNoWlPHVx2BX8wVPwtISnNdqmcN3FXRfHS+5p2EiNH62PQ2OuNGwAj7Y2RMADeJT4Pl9bDV+iYQP6gD6Y40h8IPGBxEciB1I2KjgZNP1mOGUzyA4wtXQFZiQ+psc6RZNzrpPCdRd3U3mfWk/DBhauWLim8jGnngZ3NWxAH9BHDu9T62pwV8MG9AF9MOfbTnzsbJnz17bNpds73Yuut3amWWxjQ9vwV13Ak+Tk1Zw3gTy2lM0gO8DU0hWYsxMf4Cl4WjHJSnxP4bqLu6m8T62nYQMLVyxcU/mYU0+Duxo2oA/oI4f3qXU1uKthA/qAPpjzzSU+tne3zf4bO+bJj/eCL6pDdXmzM3aJxEfaIpuJ5SpTHU/KhhI8mSYBOLbOavSfshl08TN0zxWYwVNwsAZfS/pI4bqLuyGuD/lMw0Zq/Bjy/NxGYxxzsQE8sJFg3dQsoY+2eAU8gEdNfXNfU8aPphIfOxe3zOPv7QYTHjIhQnWpTcnCMbUtEh/tJD7AEx3Op2qjtXopm0F2vqmlK/jHEh/gKXg6tjZSuO7ibirvU+tp2JhyoZQ6Dyn1NOZKwwbwaGtDBDyAR4r/ya2j4Us0bEAf0Adzv5nEx/ZuXtKDEyCU/KC2Yy8wW058vPLJV+beX+6YG5ubo85DyiKbieUqUx1PaEMJnvi5nssDu779vkRTqX2l1st5llKeurjrCszgqZ+LOXjZdcfghG1j7Pebt+6Yz774yvz1X//dfPbhbTPWmFK47uKui+Ml9zRspMaP1sehMVcaNoAHNhIlWvO11eCuhg3oA/rwcbzkvgZ3NWxMqY9mEh8pX2/hZIddUlvfQnbn0lb31ZkbH+yaKy/umO3tYYv1WOJj87XPu0UuLXTppZGI4DGPtajm/rlMWWSHBJ1K9NCGEjxx83dz87Z55y95CTDJmyHtmReuUvbt+pzvpdbj+illKU9dHHYFAvDUzcUUjEJ1xuDE5uab5u5BIoJ99N3XxkkUsy1KeNA4a2tLzl0K113cdXG85J6GjdT40fo4NOZKwwbwwMauRGu+thrc1bABfUAfPo6X3NfgroaNKfXRTOLDTmbw+9OPHTcP7vzn7kXXfN8u5WKQry9c3zZf+/15c+WlRWLk1kd75qlf7nmTJNzOVYYSHzc+/Ju598Xn5hVx4oISIbzwdfVX896QjQIvznMW/ymL7JCgU4ke2lDauPN78CR/EzqEN6m8Te07tV6qXapXylMXh12BADzN51wKjkM4EfJn5J8p2WH7ulc++Zt551b95MfitMc4fdvzl8J1F3ddHC+5p2EjNX60Pg6NudKwATywsSvRmq+tBnc1bEAf0IeP4yX3NbirYWNKfbSR+NjZ8iY0nvz4vLn06kb3omve6Nql67+90H+DocTHxVuLH0G9/r1dc/vXdRMfvODWSnLYC196X3uj4LJB91IW2SFBpxLdu6EETwYl7Xx4DuGNry/7fmrfqfXs/kPvS3nq4rArEICn7Sc+KAF97wudJARzUtNmCtdd3HVxvOSeho3U+NH6ODTmSsMG8MDGrkRrvrYa3NWwAX1AHz6Ol9zX4K6GjSn10UTi4/z1bW9CgxIcV793tnvZyQ75nvrghSeXl24vTnxceGLb7F3ZNo+/u2du/2avu6b38sVtfKXvxAcnPu598uYR+3Zf8nvfrq/D8CbwlYO/UNLXZd76nfvrC1yXftdDXrPNkC3+Cygf+aYyJXGTssgOCTqV6L4NJXiy2Ggy3pInLh7wEXvG2T6VxP3wb8PI9/ZXt7gP5kly3+K3DqgPWyfSZgp3uU6oLOWpi8OuQACe9r9j0WFr/c4QYyt5qunPmKPM2RBn6DPbZ9KY5CkR7o84LH2o1BWNmbXSzclB0oXngrXW2bO+HvnZh28uvq6WEEt4LClcd3HXxfGSexo2UuNH6+PQmCsNG8ADG7sSrfnaanBXwwb0AX34OF5yX4O7Gjam1EcTiQ9KUMgkhn2dkvigPngxyOWlp/vEB538CL24ja/0JT6oPi927U2d7Mv+K+ByES02C65+7HbUJy/QeVFuL6rtNi5bnLDhPuSz+q5TFtkhQacS3behBE8Wx/JdPCHMbB7c+PDz5VF+Fwfs+vZ7yQP7s5S+7c0w81ZuRO1+U7grn8t1XcpTF4ddgQA87U9S+PjVcUBs5G18CT/mBfuiIZxw+TO7XxdX+B49Fz0rP4N8LuYrj5Hq9fcWvx0ifb9rjPaYOHEi7VEde774+XxlCtdd3HVxvOSeho3U+NH6ODTmSsMG8MDGrkRrvrYa3NWwAX1AHz6Ol9zX4K6GjSn1MevEh1wshpIe9Jms67oOJT6oPi9kXQtXXjDLRS61WSzM+81Dtzi2fyvk4EcreaHNtuy/MvKPqabacm0UXOOW91IW2SFBpxJde0Mpx7iqPKEx2JsrOS66XmzI+t+isevb77m9ayPHn3Hp7NviMtUlnZRyl236ylKeujjsCgTg6eHfx2jNn9nP4+ML+0LpY7mu5Cv7Vva1rjp0z6UXqS2fvWX/IlHENnxlCtdd3HVxvOSeho3U+NH6ODTmSsMG8MDGrkRrvrYa3NWwAX1AHz6Ol9zX4K6GjSn1sUx80EOM/fJtFMb6CoNcLI69oWVbtMDtkh/ie+X8l0e673pxQkQujrk/KrvF98HJEF4cy0W6bJdqixffbFva813bi+yx+AKeDOOJ5AFjyHxk3vmSDlTf1Z55Ivk2pG9uY28Kpc1U7nJfvlLydCyOUr/g6TCeavmz5MTHwdexXL5Q8pV9rzzdQRyUyRF6L9swR108t+35+uc+XKXkOi2mxuQ7+h5/jYQ5xhyDA+AAOAAOgAPjcWCZ+JAZqLGyPb6NAv0wqf31lv798B83lQtFrcQH2VwuYA/+4s0bOnuhK5+PruXiWH4m27sW87KdrCv7sK95Qxt7JtnOXmRLzqRck5BT6oEnh/+SLjGga4m3/EzeZ3xlomOxIcs78dH1aZ3cGNI3P6e9KTz0zIENKLdPKUt56uKoyyeCp8N4Kn3UmP6MeepK2kkeyeeR9+la8nXp160TGS0lPlK566pXcs+lj5L+XG1T44erbeo9jXHMxQbwwF+0U3WVUw/6aItXwAN45Og3te6U8aONxMeWP/FR8m9K5SJWM/HRL5gXm8zUBbjcBMpnp+vus4Mf1bP/4ijbpdrieiuV+ABPuq9kSbwlT+R9uWHjOvYGTdZfckz85gz1QSdFbI4k920lTFw25DMwJ2MbVR6Pr5w88QGeBnm65IGCP+v45eCh5E6Id1Iz1RIfm4vfBbF5zs9h+3f5rPZ1CtexcMXCNXUxmlNvyoVrznPG6kIf0EeMI0M+hz7a4hXwAB6s42YSH/tv7AROfewFP6O29oLQfn/zx7sm9LLr2+99v/GxWKz2v9NB7VwLZFpA25vI7i+N4q+HchNo2+fN5md/+erIRtRul2KLF9n24tu2K9+nLLKZWK4y1fF4/5K+tWXAk8QTH1bSgv+qLU+A2LyR75kfrk2YnRDx9U18l+3tdsQtaZPep3BXctJ1XcpTF3ddi2Pw9HBSrEV/tvTF4quHxJnF/d5vO3lna+jg95Ykp5mzUlfsq9+51Z+IsXnevbeeie7ZmnHxW95L4bqLuy6Ol9zTsJEaP1ofh8ZcadgAHthIlGjN11aDuxo2oA/ow8fxkvsa3NWwMaU+mkl8bO9umcff2w0mOPqvv/SJEGpDbeVicIxrX+KDbPEmkRat/HIlFHhxzXXsH8mzF8dyHGzDbkN1XO1itrrnPljY0/O4nlfap+uURXZI0KlED20owRM33i4eSA50vHntc+8Pi9rteRPGXOWSN32pffO/MuX29umRody1uSnfl/LUxWFXIABPF8lcxtb2TS5sGSdtfyb5Ss97z0o60HNxYm45HqvOMokiktXUjvrOTXxQO1tjd1+7jX9ne59/sZwaP1z6Tb3n0nlq29R6c7EBPPxctbmggTnwAB4272q81+Cuhg3oA/pgPTST+KCF4M7FvOQHJT2oDbUd+xVKfIxtu5X+SzeUqY4ntKGkuQBPxud7K5wb8hylPGXnKEtXYAZPwcMh/PS18SVWfPXpfgrXXdyV3K5xrWEjNX6UjEdjHHOxATywkSjRmq8t9NEWr4AH8PBpteT+lPGjqcQHLeS2d7eTvs5AX3mguqFFYc3PkPhIW2SHhJBK9NiGEjzBhjOk7ZTNYIinrs9cwR88BQ9DPMz9jL8yZp+KCvWTwnUXd10cL7mnYSM1frQ+Do250rABPNraEAEP4FHi+3xtNXyJhg3oA/pgjjeX+Di0yNvZMuevbZtLt3e6F13Tf4A5VEfhtAfZQ+KjrcTHIQ6AJ5No4hAGSjpMsZmyGWQHmFq6AnNK4uPQ84Kn4OmBTujrMfLrhaGv/hzikKWzFK67uJvK+9R6GjawcMXCNZWPOfU0uKthA/qAPnJ4n1pXg7saNqAP6IM533biw1rkhRaAY3+GxEfDiT4bBZkAACAASURBVA/wBBtKwYGUzSA7wNTSFZizEx/iGcf2V7H+4c+mSaBLXOzf+ODfz5F1YtcpXHdxN5X3qfU0bGDhioVrKh9z6mlwV8MG9AF95PA+ta4GdzVsQB/QB3MeiY/EzQg2Ckh8xDYh9Dl4Mv2GMmUzyA4wtXQFZiQ+psc6RZNzrpPCdRd3U3mfWk/DBhauWLim8jGnngZ3NWxAH9BHDu9T62pwV8MG9AF9MOeR+EDiI/m0QMoim4nlKlMdDzaU2FCWbFZLeeririswg6fgaQlPa7RN4bqLuy6Ol9zTsJEaP1ofh8ZcadgAHthIlGjN11aDuxo2oA/ow8fxkvsa3NWwMaU+kPhA4gOJj0QOpGxUcOJj+s1wymYwN/C4AgESH9NjnaLJOddJ4bqLu7n8j9XXsDHlQik2/pzPNeZKwwbwwMYuh/epdTW4q2ED+oA+UjmfU0+Duxo2ptQHEh+Jm15saPFVl5QNFHgy/WY4ZTOYE2iorisQIPExPdYpmpxznRSuu7iby/9YfQ0bUy6UYuPP+VxjrjRsAA9s7HJ4n1pXg7saNqAP6COV8zn1NLirYWNKfSDxgcQHTnwkciBlA4XEx/Sb4ZTNYE6gobquQIDEx/RYp2hyznVSuO7ibi7/Y/U1bEy5UIqNP+dzjbnSsAE8sLHL4X1qXQ3uatiAPqCPVM7n1NPgroaNKfWhnvjY3983tFhbtdfe3t7KPXPtOSbsaLO3sbFhcoTKdVOJTjbAk9XTSG2+De2vlKfMV1m6AgF4Co4O5Witdilcd3FXcrvGtYaN1PhRMh6NcczFBvDAxq5Ea7620EdbvAIewMOn1ZL7U8YP9cQHbRbm+nrrzmuzHZvETCPxIe3h+rBm3v75d8y7P/7BWnCtBPuhPHU5c1fwL3k2tF1wel185th4h7ju4q6L4yX3NGxMuVAqmRu7rcZcadgAHm1tiIAH8LB9TY33Gr5Ewwb0AX2wHlQTH7Q4m+tr5+o58/Ifbhoq5zpGHheTJ7dMdTxsB+VRvZw6dco8e+eaufHm5dnzrBT/XH6G6rsCc+nzrXv7zb0z5qXf3zCXbu+Ay4WxMZe7ofpDPnPpY0g/oTap8SPUR+wzjXHMxQbwwEYipqchn0MfbfEKeACPITqOtZkyfqgmPuREaIhJc2KfePdyl/igUo6zxrXGXGnY0MSjxrz7+tCYK5+N7cdPdzyjDePJ0w8UcQ14tBXQ1g2Px94433H5a/+wb44dO5bFZZ8+fJodcn/d8BgyR9wGeLTlS4AH8GBt1iw1eDUXG4gfbWkQeAAP9oVIfNyXTgaeNFmSkz594eFuAU8nPuhF72Wd0msEgnSM5jJXrnHQ5pA2icwz2jiWcAuBoC1erRMelLSj5B1zmRJ6OVx26SOnfUrddcIjZT5CdYBHW74EeACPkF6HfqbBq7nYQPxoS4PAA3iw30Pio0Lig0978CK+9qkPBIK2BDsVHnzag3lWeuoDgaAtXq0THnzag7mce+pDQ4PrhAcvCIaWwKMtXwI8gMdQLYfaafBqLjYQP9rSIPAAHuzbkPgoTHxsXl589YAX8FzWPPWBQNCWYKfAwz7twTwrOfWBQNAWr9YFD/u0B3M559SHhgbXBQ9eDJSUwKMtXwI8gEeJnn1tNXg1FxuIH21pEHgAD/ZrSHwUJj6efP/K8rg2L+CprHnqA4GgLcFOgYd92oO5VnLqA4GgLV6tCx72aQ/mcs6pDw0NrgsevBgoKYFHW74EeACPEj372mrwai42ED/a0iDwAB7s15D4KEh82L/twQt4Lmud+kAgaEuw2nj4Tnswz4ae+kAgaItX64CH77QHczn11IeGBtcBD14IlJbAoy1fAjyAR6mmXe01eDUXG4gfbWkQeAAP9mlIfBQkPuzf9uDFO5e1Tn0gELQlWG08fKc9mGdDT30gELTFq3XAw3fag7mceupDQ4PrgAcvBEpL4NGWLwEewKNU0672Gryaiw3Ej7Y0CDyAB/s0JD4GJj5ipz14IV/j1AcCQVuC1cQjdtqDeTbk1AcCQVu8mjsesdMezOWUUx8aGpw7HrwIqFECj7Z8CfAAHjV0bfehwau52ED8aEuDwAN4sD9bJj7I2cztRUQfa0y+3/bgxTuXVG+sZ1i1fsfEY9XmIvV5z9865/wNGeYXl3TqY+PcQ1lcAx5t+by543H9OxeTuPzMLx4zJ0+ezOJyqp5y6s0dj5y5aKEu8IC/aoGHrT4D9AF9tMrNFp4L+oA+mIfLxAdnQqikD+X7Ma41bBDRx3j21NMevCktPfWhMVcaNsbCQ2KsMQ4tG6mnPZhnuac+gAcy4FI7ta5d+kg97cFcjp36cNmo9fzcD/QBfTAXapYa3NWwAX1AHzV1wX1pcFfDBvQBfTCna5Ya3NWwMaU+kPgY8FWX2G978OKdy9Lf+tAgoYaNKYm+io4n9tsezC8uc3/rA3ggMNfUBffl8iWx3/ZgDnMZ+60Plw22X6uEPqCPWlyS/WhwV8MG9AF9SF7XutbgroYN6AP6qKUJ2Y8GdzVsTKkPJD4yEx+5pz14IV9y6kODhBo2piS6dByl1xpzRUf9afPH/Ektc059AA8E5lItuNrb+sg97cFcD536sG24nqP0HvQBfZRyyNVeg7saNqAP6MPF79J7GtzVsAF9QB+lWnC11+Cuho0p9YHER2biI/e0By/iS059aJBQw8aURHc5kKH3NOYq9bc9mF9c5pz6AB4IzEM1EGpn6yP3tAdzOXTqw7YRep6hn0Ef0MdQ7oTaaXBXwwb0AX2EeD70Mw3uatiAPqCPoRoItdPgroaNKfWBxEdm4sMmJBPkwTMnur/OU2nXKX3PNkr7CbXXsDEl0UNjz/1MY658Nk6eesA8e/cxQ2Xuc9v1gQcCs82JGu993LX7LvGZqTZsmznvoQ/oI4cvqXU1uKthA/qAPlI5n1NPg7saNqAP6COH96l1NbirYWNKfSDxgcRHt4GeO9FTnUpKPY258tko2SzaY5vS8djPUvLeN1clfdptNWysGx4lXAYebS0qgQfwsH1mjfcavJqLjXWLHyX80sAceLTlE4EH8GCfgcQHEh9IfGRyQCNo+myUbBZZ9FwiECAQMBdqlj7u2jZKuJxqw7aZ8x76gD5y+JJaV4O7GjagD+gjlfM59TS4q2ED+oA+cnifWleDuxo2ptQHEh+Zm16bnEyQkkW83af9nm3Y92u+17AxJdFXba58eNTkGfBAYK6pC+7Lx13+nMsSLqfaYFtDSugD+hjCm1gbDe5q2IA+oI8Y14d8rsFdDRvQB/QxhP+xNhrc1bAxpT6Q+EDiAyc+Mjmg4RR8Nko2i7ZDndLx2M9S8t43VyV92m01bKwbHiVcBh5tLSqBB/CwfWaN9xq8mouNdYsfJfzSwBx4tOUTgQfwYJ+BxEfmppcnjksNBzoXG3A85Y6nZLPInOUSeJTjwXNZo1w3PE48fL+59vcXDJW586fhE9cNj1wMZH3g0ZYvAR7AQ+qz1rUGr+ZiA/GjLQ0CD+DBfhCJDyQ+cOIjkwNTBmYkPo467ynxYEdao0RgPoqtb141MAcewMPHv5L7GtzVsAF9QB8lOvC11eCuhg3oA/rwcbzkvgZ3NWxMqQ8kPjI3vTZhmSDHjh8zl1/aMSdPl/+bUZ8N+37N9zyOmn3afU1JdPtZSt5rzJXPBv11/LE3zpv7Tx7P/iu5PWbggcBsc6LGex937b6PHUuff7ttqg27Xc576CMdH+DR1lwBD+CR4+tS62rwai42ED/a0iDwAB7s55D4qJT4oAl9/lfXzd5TZ4s3pAwOlwgEbQkWeAAP1mbNct0CM/nKp392dZC/1NDguuFRwmXgsX4+EfpoC3PgATxKfLivrYZv17ABfUAfzHEkPiomPq6/dcHQiye3VqnhFDRswPHA8dTShOxHg7saNtZNHyX+Eni05UuAB/CQPrnWtQav5mJj3eJHCcc0MAcebflE4AE82Gcg8VEx8UF/waRTHzy5tUoNJ61hA46njuO5+YPL5uLzW8U8Ax518Kil83XDo+SEHPxVW9wFHsCjlh+U/Wjwai421i1+SJ7kXmtgDjza8onAA3iwn0Dio2Li48GzJ8zLn940Z69sFG9KGSAqNZy0hg04njqO5+b3L5ur39or5hjwqIOH1GrJ9TrhQT6SfCX5zCFzBn/VFneBB/AYouNYGw1ezcXGOsWPGG9in2tgDjza8onAA3iwX0Dio2LigyZ1//Xz5rm718z9J8p/fJJB0nDSGjbgeOo4Hkp6UPKD+TG0BB518Bg6/3a7dcGDfCP5SPKV9hykvoe/aou7wAN4pGo3p54Gr+ZiY13iRw5/fHU1MAcebflE4AE82B8g8VE58VFjUc/gcKnhpDVswPHUcTz0NZfbPx32o5DMKSqBRx085JyWXK8LHjWSw/BXbXEXeACPEt/na6vBq7nYWJf44eNKzn0NzIFHWz4ReAAP9hFIfFROfNDEnrn0cPei6xOn7u/+08tD5042/ddNBIK2nEIIj50bZ8zz/3htMJ9Y/AgEbWE+VzzI952+8PCSr8/cecycudy/Zz7mlCF95PQTqjtXPEJjHvoZ8GjLlwAP4DFUy6F2Gryaiw3Ej7Y0CDyAB/s2JD5GSHzw5FJJ32WnH/F7+Q83zYu/u2Fu//RRc/3Ni+bic1vm3P4pc/yBY92GgE6KPHjmhPN1authc+xYvB61H1qPbLjsD+3P1dfu5e3Bz+fqzzVejXGMiQdzJxT8KbH20qc3zLHjC05wm9TyxMP3d1gTHva8njz1wHKDyvXsOvQ+td6pc/0Gt0Z/LrsuzF31Wh/HHPCgJMfuzU3z6Kt75on3HzEv/Pbxzvfdev+RJa/uP1n+NcCQPlJ1EKuHhRIWSjGODPlcg7saNqAP6GMI/2NtNLirYQP6gD5iXB/yuQZ3NWxMqQ8kPkZOfDCxadNFiQ5KeFDigxIglAi5/8HFJuDCM+e6DQIlSFyvBx68v9s4oN7h+ZnbvOw8cabbMO5/64LZun66S0wwh7g8eeaBjiPEKb5nlydPP3CIb/I3Qa79/QUnx4h3z959bNlnjXrP/bI/mVKjv9rPl9ofxnFYd+yjXPNHyQ5KelDyo+PwwB8wtTkt3889MMuxll5rzJWGjSkXSqUYyPYac6VhA3hgYyd5Xetag7saNqAP6KOWJmQ/GtzVsDGlPpD4UEp8SOK6rnHi4/Bpl6EnTVx//acEwdD+XKcExjzxcWrvwW7D+OQPH13+tfzmO5fNxu6Dy4TEsfuPmUf/btec2OhPZzCnqB7Vp42pfcKI6/DJizmcMCB8XJjjxMdhPTGPxz6BQ/OuETQ1bEwZmFmrNUqNudKwATywkaihB7sPDe5q2IA+oA+b2zXea3BXwwb0AX2wHpD4aCTxwYC4Sg2noGEDjiff8Zw6/9AykXH1tfC/sKUTRZTwoMTH6QsPLRMlLk7RPeCRj4dvLmvcBx7AowaP7D40fLuGDegD+rC5XeO9Bnc1bEAf0EcNPdh9aHBXwwb0AX0wt5H4QOKj2yDD8bTlFGw86CTH5pWNYDKDfvPj1F484cHiRyBoC3PgATxYmzVL25fU7Jv70rABfUAfzLeapQZ3NWxAH9BHTV1wXxrc1bABfUAfzOll4oOIN7cXEX1uY1rl8QCPOhq78NSWefqnV80jL+x2/N7/5nlz7pHT2VwHHnXwqKVJ4AE8anFpjv1AH9DHHHlda0zQB/RRi0tz7Af6gD6Y18vEB2dCqKQP5fsxrjVsENHHeHbZp8Y45mIDeFTIuB67zzz5oyvm679+vPstEDoJ8vKnNw/9BojkZ+gaeFTAo/DEmMQHeAAPyYda14gfbfEKeACPWtqW/SB+tMUr4AE8pD5rXSN+lPMKiY/CjctcSKgxDgSCcsGS86QfkKQfLn3651e73/Og3/QY4lSBRx08hsy9qw3wAB4uXpTe0/DtGjagD+ijVAuu9hrc1bABfUAfLn6X3tPgroYN6AP6YC0g8YHER7dphuNpyynE8Ljxg8vdSQ867UE/gMqCzikRCNrCHHgAjxz9ptaN+ZLUfkL1NGxAH9BHiINDP9PgroYN6AP6GKqBUDsN7mrYgD6gD+Y5Eh9IfCDxkckBDScds3HlG7vdf3B54bePD0p6kANAIEAg4EBQs4xxt4YtDRvQB/RRg6t2Hxrc1bABfUAfNrdrvNfgroYN6AP6qKEHuw8N7mrYmFIfSHxkbnrnSsK5E93GreS9xlzFbFx8bqtLfDz140eR+MBvEiVzIMarEl1w27nYmDIw81zWKIFHWwtw4AE8auja7gP+qi1eAQ/gYWu0xnvEj3JeIfGBxAdOfGRyoAXHs/vkZpf4eOyN88mbXtvpIjCXO1B7TkveAw/gUcIfX9sW/JXv2XLuQx/QRw5fUutCH23xCngAj1Tt5tRD/GiLV1PigcRH5qbXFtpcnLTGOKYkuo1byXuNuYrZeHjrpHn2zmNm8+oGEh848ZHMgRivSnTBbediA/4KCyXmdM0S+miLV8ADeNTUN/eF+NEWr4AH8GBtIvGBxAdOfGRyAAulthwo8AAeHNBqllgotcUr4AE8auqb+0L8aItXwAN4sDZrlogfbfFqSjyQ+Mjc9NpCnIuT1hjHlES3cSt5rzFXGjaABwJBiQ58bTW4q2ED+oA+fBwvua/BXQ0b0Af0UaIDX1sN7mrYgD6gDx/HS+5rcFfDxpT6QOIDiQ+c+MjkgIZTiNnYvn66+40PKoc60Skdz9BndrWLzZWrTe49DRvAAwulXF6m1NfgroYN6AP6SOF7bh0N7mrYgD6gj1zup9TX4K6GDegD+mC+I/GRuenlieNSQ7BzsQHHU8/xIPHRzyX00c8F+yVfOZe50hgH/FVbvAIewMPn10rua/gSDRvQB/RRogNfWw3uatiAPqAP5jgSH0h84MRHJgc0nHTMBhIfvROPzRU7u5JSwwYCc49pDCvg0dZcAQ/gEdPskM81eDUXG4gfbWkQeACPIT4v1gb+qpxXSHxkbnptUs6FhBrjQCAoFyzzD4mPfi41uKthA/roMWWe+0rg0dZcAQ/g4dNqyX0NXs3FBuJHWxoEHsCjxPf52sJflfMKiQ8kPnDiI5MDLTgeJD5659cCHr4glXMfC6Ue09i8aWAOPIBHjIdDPtfgroYN6AP6GML/WBsN7mrYgD6gjxjXh3yuwV0NG1PqA4mPzE2vTVQNgszFxpREt3Ered8CHkh89EG1BTxK+MRtoY8eU54TX6mBOfAAHj7+ldzX4K6GDegD+ijRga+tBnc1bEAf0IeP4yX3NbirYWNKfSDxgcQHTnxkckDDKcRsIPHRB9XYXJUEGW6rYWPKQMDjrFFqzJWGDeDRayzGC+DR1lwBD+AR0+yQzzV4NRcbiB9taRB4AA/2eUh8ZG56eeK4nIuT1hgHHE89x/Pw9knz3N1rhkrmYm4JPOrhkTv3rvrAA3i4eFF6T8O3a9iAPqCPUi242mtwV8MG9AF9uPhdek+Duxo2oA/og7WAxAcSHzjxkckBDSetYQOBAIGAA0HNUoO7GjagD+ijpi64Lw3uatiAPqAP5nTNUoO7GjagD+ijpi64Lw3uatiYUh9IfGRuepl8XGoQZC42piQ641WjBB5tBTTgATxq6NruA/6qLV4BD+Bha7TGe8SPtngFPIBHDV3bfSB+tMWrKfFA4gOJD5z4yORAC4EZv/HRO/EW8LCD7JD3UwaCIc/rawM8em765ojvz2WuNMYBfbTFK+ABPNiP1Sw1fImGDegD+qipC+5Lg7saNqbUBxIfmZteJh+XGgSZi40pic541ShbwAOJjz6otoBHDV5BHz2msfnUwBx4AI8YD4d8rsFdDRvQB/QxhP+xNhrc1bABfUAfMa4P+VyDuxo2ptQHEh9IfODERyYHNJxCzAYSH31Qjc3VkOBit9GwMWUgsMdb8l5jrjRsAI9eYzE+AI+25gp4AI+YZod8rsGrudhA/GhLg8ADeLDPQ+Ijc9PLE8flXJy0xjjgeOo5HiQ++rnU4K6GDeijx5T9q68EHm3NFfAAHj6tltzX4NVcbCB+tKVB4AE8Snyfry38VTmvkPhA4gMnPjI50ILjQeKjd34t4OELUjn3sVDqMY3NmwbmwAN4xHg45HMN7mrYgD6gjyH8j7XR4K6GDegD+ohxfcjnGtzVsDGlPpaJDxro3F40sXMb0yqPB3jU09jejU3z8h9uGiqHcgJ41MNjKAayHfAAHpIPuD7MB+jj8HxMzQ/gATym5mDL9qEP6KNlfk79bFPqY5n4kJknmhD5foxrDRs0sWM8u+xTYxxzsQE86mXAceKjn0voo58L6Ztc13OZK41xwF+1xSvgATxcPq30noYv0bABfUAfpVpwtdfgroYN6AP6YH4j8ZH5NQeeOC41BDsXG3A89RzPw9snzXN3rxkqmYu5JfCoh0fu3LvqAw/g4eJF6T3Ej7Z4BTyAR6mmXe0RP9riFfAAHi6dlt5D/CjnFRIfSHyM+hsfH3zwgcELc7CqHNjY2BhVHzIIYqFUHtDkfJZeAw/gUcohV/uxFq6r6mPx3IfXBxxzXNwJ3YO/gr8K8WPoZ2P5K/k8GjagD+iDOYfEBxIfo27saFGzv79vLl26NIvX3t7eLMYxFzzGGgdxlrjLi1AE5raCJvAAHryIqVlq8GosG4i1q73GsGNOLq+xsWvLJwIP4JGr4ZT6Y8UPaVvDxpT6QOIDiY/REx+0Od3a2prF68yZM7MYx1zwGGscFy9eROJjoG/UCJoaNqYMzHIRUnqtMVcaNoBHeCNBiQ/E2tVdZ9gxJ1f30EdYH3I+4a/amivgATykPmtd+3iFxMfAxT0D45tY/rxGuco2sBhb3YXYWEmFVejXXoRqaBAL17aCP/AAHjXit93HWL4EsXa1Y60dc2zexN7DX8FfxTgy5POx/JV8Fg0b0Af0wZxD4gOJj7ZOfGxvm62Ll832lf3uRddbdK+REyM48bHai8tUHtmLUATmtoIm8AAevIipWWrwaiwbOYmP7b0tc/npHXP1tR1z7e3d7kXXdI8+S/WTY9Zbt1hrx5xcXmNj15ZPBB7AI1fDKfXHih/StoaNKfWBxAcSH00kPrZfeN3s3PmX4IvqjLnQSul73RZjKXMyxzr2InTugUAGvdJrjbnSsDFlYC7FQLbXmCsNG8AjvJFISXxs72ybKy/umCc+2jVPfrznfNFnVIfqTunb1y3W2jFHajjlGvoI60POIfxVW3MFPICH1Getax+vkPhA4mPSxMf2wWmO7e/fCSY9KClCdWghxm2mWJSt22Jsijluwaa9CPU50FoOmvrBwrWt4A88gEdNfXNfY/mSWOJj5/y2ufa9HWeyw5UEobrUZip/vG6x1o45zJfUEv4K/iqVKzn1xvJX8hk0bEAf0AdzDokPJD4mS3zs7O6al7/1xiKZkZH4oDbUdooF2botxqaY4xZs2otQBOa2gibwAB68iKlZavBqLBuhxAed3shJenAihNpMdfJj3WKtHXNyeY2NXVs+EXgAj1wNp9QfK35I2xo2ptQHEh9IfEyW+Pj22++a777/YXbig9pQW98GeefSltl/Y8fc+ODgyO52ve8sr9tizDfHc79vL0LnHghk0Cu91pgrDRtTBuZSDGR7jbnSsAE8whuJUOKDvrrCyYzcktr6/D1ibb21hR1zpIZTrqGPsD7kHMJftTVXwAN4SH3WuvbxCokPJD4mS3z88tM/HUl8bH34qTn51Mvm2O4Vc3z7EXP8/GNm48Xvmp1f/NflV10o8UFtXYuxC9e3zdd+f95ceWmxWLv10Z556pd7zrqu9rF7SHzUW+jF5nrKz+1FqM+B1nLQ1A8Wrm0Ff+ABPGrqm/say5f4Eh/0Y6Wu3/R45DtnzObNE4derqQItXX94Clibd1YaMcc5ktqCX8Ff5XKlZx6Y/kr+QwaNqAP6IM5h8QHEh+TJD52dna65IU88XHux5+a45eudUmPjee/bU5/831z8mt/Z45fesyc+9HvjiQ+qA97c3zp9k6X+Lh4a/Hd5Ovf2zW3f43Ehz1PeB9etNqLUATmtoIm8AAevIipWWrwaiwbvsQHxURXQmP/nXPmwjc2zMYjx7sXXbvq0T3qw44ZiLXhGGLPV+y9HXNyeY2NXVs+EXgAj1wNp9QfK35I2xo2ptQHEh9IfEyS+Lh+44kjiY+Tt14yx3avmrMf/PbQD51uf/Rfuvf846Z84oP6sBcTl24vTnxceGLb7F3ZNo+/u2du/2avu6b38mW3TXk/pxMfr3zylbn3lzvmxubmkXlMmQvtOprPay9C5x4IZNArvdaYKw0bUwbmUgxke4250rABPMIbCV/iY/91/39woaQGn/rwJT3oPvVh+3vEWiQ+pJ+pda3hSzRswF+F/ZXkC/Boa67mjgcSH0h8TJL4uP3s148kPo7vPWo2vv6dQ0kP+S9u7cQH9XFkMfZ0n/igr7yEXnbblPcpiY/NzTfN3S++Mn/9139fvu598uaRZ02xN1adzc3b5p2/5Cc+Nl/7fDkmGp9m4gSJj/TgKBcV8lojoM3FBhau6XzTwBx4hPHwJT6ufbc88UF92LHoUgOxlp7pxod/62LSZx/ePvKM9jO3/N5Otku/nXINfYT1IecQ/qqtuQIewEPqs9a1j1dIfCDx0Uzig37XY+P5N4oSH3JhE0p60Geybup1LPHBi7C7rx0+RUEJg9aSH6lj5no0tntffG5eESdEaFxaC84hiQ9OQtl48Jh8pb0I9TnQWg6a+sHCta3gDzyAR019c19j+RLtxIf0nVPEWrLPCfy7n3yumoSXY691bccc5ktqCX8Ff5XKlZx6Y/kr+QwaNqAP6IM5h8QHEh+TJD6cX3W5/Y3u9z3OvvvrQ8mPs9//OPmrLnIRor0Y65IbX/zNvHPrcNJDPtOqXnMCQSvJ4ZonJD7SAxc7eLvUWGDMxQYWSul808Acm3lFbgAAIABJREFUeITx8CU+xvqqi/TR2rGWbS9i7ufmlVt3zGdffGVyE9zcTwslEh8Lfmv4Eg0b8FdhfyXXJsCjrbmaOx5IfCDxMUniw/Xjpls/+ePyx00ffvZ1s/Hqu+bkza93/93l9Js/S/pxU7mA0VyM8V+echIDmweLNf5KjPzaCPdHp0T4FEn31RLrxAWNN9QPfc4Jg1cOjgSzHb4vf+ODExz2M/H9lFMrQ57nrd+5v3Yjn1FeM84hW3LeeDyp+NiL0LkHArkIKb3WmCsNG1i4trUYAx5hPHyJj7F+3JR9MJWasVba7WLCJ28uT37Y8ckVM7z3Dr6OyrGXY4Z9ypHb2/GUnisUj+Rzu67tmJPrh6GPsD7kfCJ+tDVXwAN4SH3WuvbxCokPJD4mSXxQ4Hf+O9uf/NGcPDj50f0720dumo1vvZ/872zlgkJzMcYLntS/ONmnQ3ixxUkJfk+LL96su5IPsX5oPmihRv3EFoXUl7RHbWlc7xx8bcfXj5zzoc9jt2Pb8q94vODkRI3dhueM57Dr4+D3VlJx4bHYi1CfA63loKkfLFzbCv7AA3jU1Df3NZYv8SU+xvp3tuwrqdSMtWzXjrmLr2IePnF5NEYsfn/rnjiZyXGDY8SNDz9fntrkz2RM8cXBo7byfkfLjjnMl9QS/gr+KpUrOfXG8lfyGTRsQB/QB3MOiQ8kPiZLfHz77XeN/He28odMXdfyx02pLS+AfOXNH++a0MvXLnTf9xsf9qKH+uBEhf2XI15M8UKL7S0WcouFG9eRCy6qJ39ng+uE+qE2XcLAcVJEJhK4Lzs5ws/GpTxFYdflPoY8D7flJI891uU4Dv4LDdeP2WIM7Ho8Hl9pL0IRmNsKmsADePAipmapwauxbPgSH+Tjrrzo/pe2of/kwp9RW5+f5PuhOEufcb2c0hdruQ8ZC+keJ0JkDLH9P8fpz/7yVf8Hhe7k5eGECdvo+qXf5xLx0xVPU+OR7Ne+tmNOLq+xsWvLJwIP4JGr4ZT6Y8UPaVvDxpT6QOIDiY/JEh87u7vm5W+90S2KKKnhSnbIe5z4oDbU1l44aLz3LcZk0sL1HHKRxgs0TojYJW3SeSFlJxdy+6FnkQkO+WzyPj9TaoKA2tJzH/rLmfXVHde4Qs/Tjc1KbMhFrOt5bRv8nsdhL3zl+EPX9iJ07oFABr3Sa4250rAxZWAuxUC215grDRvAI7yRCCU+tne2zbXv5Sc/qA21DfnKsT7zxVqyx35dxsdlzBRJCqrbxY2Dr7F0Mebg66P8RwUZd3gsHN84nhxJfFj/Bp7jJ9e3S45H3L+rtGOO1HDKNfQR1oecQ/irtuYKeAAPqc9a1z5eIfGBxMdkiQ8K/tvbi0VVTuKD27gWD2Pf8y3GeCEmN+ryWVwJi9BiaLmIs/4Nbm4/9AwyYSCfSd7nhVvomWRbul4+48FCM7UPaVf2Kdsvrg//FU62k3VlH/Y145IzLurDXoT6HGgtB039YOHaVvAHHsCjpr65r7F8SSjxQT5t53xe8oOSHtTG9qla732xluzTyQ07uSDfS3/fJzYWXz2hzxbxY/EfyiiucNzmeCETHYtTIv1/M5NxiOciNR5xfVdpxxzmS2oJfwV/lcqVnHpj+Sv5DBo2oA/ogzmHxAcSH5MmPngBsP3C6/ETHy+8PtkijJ8ztBiTSQmuz6X8jBdXvNjiOrJcJhVCiY+D368I9UN9uhZq9v2UZ5LPx9dyUZjah+95ls/Ef5Gzxi7bpdrienIhzM8eKu1FKAJzW0ETeAAPXsTULDV4NZaNWOKD/B2d3qCvrjzx0a7hr7LYJX1GdaY66cF+2Rdrl7HROnVB7VyfLZPor9F/flkkMLje3dfoNz/6BDt/FUb+ZzYZu8mGjEP8rBxnYrGY67tKO+bk8hobu7Z8IvAAHrkaTqk/VvyQtjVsTKkPJD6Q+Ggi8bFcCNAJkIuXzfaV/e5F11sHp0KWdba2JkuA+BZj9Gy8mJJf/+Bn7hZL4gguLaboL1RyQ94t0A42+8u+rM2/vQiL9UP2XQs1131nX6993j3jYmHXLxAPjVc8o7MP+gqMqON7nq7P7vvUfzP0HWw5N8nPa9kauiC1F6FzDwQy6JVea8yVho0pA3MpBrK9xlxp2AAe4Y1ESuKD/Ci96AdPLz+9Y66+tmOuvb3bveia7tFnXG/K0hdrY6cr7OQFx9K7n3x+6Ae+u1j6F4o1d4z8wWwZl9mWPAHii18psS80n3bMkRpOuYY+wvqQcwh/1dZcAQ/gIfVZ69rHq2Xig5wmXpiD2hzIWYyFFgWtfOZbjMnno4WXPHZL13LhxHV5ocR1+TvH9Dkv1uR3mOl+t1gTCRS+x310tsRCjj73LdRc9+1nl/Y5iSBtuf7CFRpX6HnoM7Yh54Lu+9rFbHV9Cjxcz8v9y1IuQmtrAv3Bz4ID4EBtDqxLrO3ilhUDpe9exhCRbOc4IZPpnNSwYwLXXcZS14+bWjGW7cu2y/abm0mJJBlzaOFfmx/oDz4HHAAHwIFNs0x8yAyLL0si65Rea9gggEufM9ZeYxyrbGNdFmO88EHZxl8LS3GwF6EaGoS/auuvHsADeMTi/5DPx/IliLWrHXvsmJPLLfgr+KtczqTUH8tfSdsaNqAP6IM5h8QHvurS1lddJvwaS8pmOeXER0o/qNP2ItVehCIwtxU0gQfw4EVMzVKDV2PZQOKj7ZgSi/l2zMnlNTZ2bflE4AE8cjWcUn+s+CFta9iYUh9IfCDxgcRHRrIFiY/VXlzGFp/8ub0InXsgkEGv9FpjrjRsTBmYSzGQ7TXmSsMG8AhvJJD4WO3YZMccqeGUa+gjrA85h/BXbc0V8AAeUp+1rn28QuIDiQ8kPpD4SPoOMicF1qG0F6E+B1rLQVM/WLi2FfyBB/CoqW/uayxfgsQHEh/MsbHKsbgrn3cuNhA/ED8kr2tdQx/lvELiA4kPJD6Q+EDiw+IAEh/pwcUO6AjM6XM3l7nSGAc2EmFeIfGBxIfti2u/19D5XGzAX4X9leSmBubAA3gw55D4QOIDiQ9r0xs60YCvuqz24jKErfwMiY/0IMnBhEuNRYyGDSyU0jkAPKafKyQ+Vjs22TGH/WlqCX81vQYlVsADeEg+1LrWiLUaNqbUBxIfSHwg8YHEB058WBywF6FzDwS1gjL1ozFXGjamDMzA4+iiGXgcnRPJEyQ+kPiQfBjjWsPvzsUG/FXYX0l+amAOPIAHcw6JDyQ+kPiwNr3yL//2NU58rPbi0sbT9x6Jj/QgycGES41FjIYNLJTSOQA8pp8rJD5WOzbZMYf9aWoJfzW9BiVWwAN4SD7UutaItRo2ptQHEh9IfIye+Njf3zcU1Ofw2tvbm8U45oDFmGMgztJGYmNjY1R9yGA4ZSCQz1F6rRE0NWwADyxcS7Xgaj8Wd8lfIdau7jrDjjku7oTuwV/BX4X4MfSzsfyVfB4NG9AH9MGcQ+IDiY9RN3a0GMNrnDn4+4//d/Pej3+O+R2RY0h8pAdLDioaixgNG1gopWMPPKafq7nH2e//9C3z7V++Mvt4xzGH/WlqCX81vQYlVsADeEg+1LrWiLUaNqbUBxIfSHyMmvigII5X/Tk4deaceerT/2ke/c6fML8jcoyD1dwDAY+zRqkxVxo2pgzMNXDgPjTmSsMG8AhvJOYeZ5/9xWPmpd/fNKdPn551zGPd5pbQR1gfcj7hr9qaK+ABPKQ+a137eIXEBxIfoyY+JIERmOs5t53nfmae+fN/mNv//P+Z+x8622Eo5zrlGnjUwyNlvmN1gAfwiHFkyOe+4D+kL18bDRvQx/rq49SFB83Lf7jZva5+c3dQvJuSu9BHW9wFHsDD5w9K7mvwai42poznSHwg8YHERyYHpnY8x+4/aZ78/f/oEh+U/Lj4rT8OWghO6XhKgovddmo87OcZ+h54tLUYAx7AY6iWQ+3gr/J59cw/7C8THy9+csMcP358UMxz4QI88vFwzWOte8ADeNTikuwH8bwtXk2JBxIfmZteKSS6nouT1hjHlES3cSt5rzFXIRt82oOSHiWnPoAHAkGJDnxtQ9z1tcm9r2ED+oA+cnmZUl+Duxo2tPQhT3uMcepDY640bGjhkcLxkjoac6VhA3ggfpTowNdWg7saNqbUBxIfSHzgxEcmBzScgs+GfdqDkx9DTn1M6Xh8Tn3Ifd9cDenL10bDBvDAQsnHv5L7GtzVsAF9rKc+5GkPTnzUPPWhwV0NG9DHeuqjJDaktNXgroYN6AP6YL4j8ZG56eWJ41JDsHOxAcdT7njs0x6c+BjyWx/AoxwP9gM1SuABPGrwyO4D8aMtXgGPdDw2L59afsWFkx5c1vqtD+CRjsdc5kpjHIjnbfEKeAAPXhsh8YHEB058ZHJAI2i6bPhOe3DyI/fUBwIBAgEHgpqli7s1+6e+NGxAH9BHbd5qcXcu+njmF/1ve3DCg8tapz405krDBvwV/BX8lZ8D0Id/bmzezN1fIfGRuemdgiAaJNSwAcdT5nh8pz048ZF76gN4lOFh+4LS98ADeJRyyNVew7dr2IA+1ksfrt/24KQHlzVOfWhwV8MG9LFe+iBfr8GrudiAPqAPXh8h8YHEB058ZHJgikAQO+3ByY+cUx8IBAgEHAhqllPoo+bzc1/QB/TBXKhZQh9pvHL9tgcnPLisceoDeKThQRqYy1xpjAPxoy1eAQ/gwXEciY/MTS9PHJcaDnQuNuB4hjue2GkPTnzknPoAHsPxYP3XLIEH8KjJJ+4L8aMtXgGPOB4ppz04+VF66gN4xPGYmy/RwBzxvC1eAQ/gwX4MiQ8kPnDiI5MDGkFT2kg97cHJj9RTHwgECAQcCGqWkrs1+5V9adiAPqAPybla1xrc1bAxpj5STntw4qP01IfGXGnYGBMP5r7GOOZiA3ggfrBuapbQRzmvkPjI3PTaBJ4LCTXGgUAwTLCppz048ZF66gN4DMPD9gG13gMP4FGLS7IfDd+uYQP6WA995Jz24ORHyakPDe5q2IA+1kMfc/Tt0Edb3J07Hkh8IPGBEx+ZHNBwCmwj97QHJz9STn1godRWsAEewEMuamtdsy+p1Z+rHw0b0Md66CPntAcnPkpOfWhwV8MG9LEe+pD+V4NXc7EBfUAfrB0kPjI3vTxxXM7FKWiMA44n3/HknvbgxEfKqQ/gkY8H636MEngAjzF4peHbNWxAH/PXx5DTHpz8GHrqQ4O7Gjagj/nrw44PGryaiw3oA/pg/SwTH0Tuub2I6HMb0yqPB3jU09jGzlVDSQ4qh3ICeNTDYygGsh3wAB6SD7g+zAfo4/B8TM0PbTzOPXLaUJKDyqnH3qJ9bTxanIOWngl4rLe/aomLLT7LlPpYJj44E0IlTZJ8P8a1hg2a2DGeXfapMY652AAe9TKuJzcvd4kPKiUfc66BRz08cubdVxd4AA8fN0ruI360xSvgMQyPMxcf7hIfVJbowW4LPIbhYc9jrffAA3jU4pLsB+urtng1JR5IfOCrLt0iQiPYTEl06QBLrzXmKmYDiY/eicfmqhRvaq9hA/roMY1hBjzamivgATximh3yueQVEh9hjiF+hOdH8k/ySt6veQ08gEdNPnFfGtzVsDGlPpD4QOIDiY9MDmg4hZgNJD76oBqbKw4YJaWGjSkDQcnc2G015krDBvDoNWZjbL8HHm3N1RzxQOIjzDH4q/D8SJ81R33I8dW81pgrDRvQB/TBukDiI3PTyxPHpYZg52IDjqee40Hio59L6KOfC/ZLvnIuc6UxDvirtngFPNYbDyQ+wvhDH+H5kTER8aOtuQIewEPqs9a1j1dIfCDxgRMfmRzwiamWWKmfmA0kPvpAEZurGrho2MDCtcc0hhnwaGuugAfwiGl2yOeSV0h8hDmG+BGeH8k/ySt5v+Y18AAeNfnEfWlwV8PGlPpA4iNz08vk41KDIHOxMSXRGa8aZQt4IPHRB9UW8KjBK+ijxzQ2nxqYAw/gEePhkM81uKthQ1sfSHyE9aiNxxDup7TR4K6GDeAR5qvkAvBoa67mjgcSH0h84MRHJgc0nELMBhIffaCIzZUMsEOvNWxgodRjGsMJeLQ1V8ADeMQ0O+RzyavNKxvdf3U5ff6hbs0ypD9XG2nD9XmNexo2ED/a0iDwAB41fIfdh4Yv0bAxpT6Q+Mjc9M6VhHMnuo1byXuNuYrZQOKjD6qxuSrBmttq2JgyEPA4a5Qac6VhA3j0GovxAni0NVdzxOPS17e6xMeDZ04g8eFYt8JftaVB4AE8YnFzyOcavl3DxpT6QOLDEUByyKhBkLnYmJLoOZjG6raABxIffVBtAY8YZ1I+hz56TGPzpYE58AAeMR4O+VyDuxo2tPVx8weXkPgIrFe18RjC/ZQ2GtzVsAE8ED9S+J5bR4O7Gjam1AcSH4FAkkJIDYLMxcaURE/BMrVOC3gg8dEH1RbwSOVOqB700WMamif6TANz4AE8Yjwc8rkGdzVsaOvj+X+8jsRHYL2qjccQ7qe00eCuhg3ggfiRwvfcOhrc1bAxpT6Q+AgEkhRCahBkLjamJHoKlql1WsADiY8+qLaARyp3QvWgjx7T0DzRZxqYAw/gEePhkM81uKthQ1MfZ+n3PT69aV76ww1z/ulNfNXFsW7VxGMI71PbaHBXwwbwQPxI5XxOPQ3uatiYUh9IfDgCyDqScO5Ez8E0VldjrmI2kPjog2psrmJ4pnyuYWPKQJAyB6l1NOZKwwbw6DUWwx54tDVXc8Lj/hPHzXN3r5n918+b3SfPmpc+vdmVMU6mfq4xVxo24K/a0iDwAB6pPiinnoYv0bAxpT6Q+EDiA//VJZMDGk4hZgOJjz6oxuYqJ6j46mrYmDIQ+MY95L7GXGnYAB69xmI8AB5tzdWc8KCEByU+KAFCPKyd/NCYKw0b8FdtaRB4AI9Y3BzyuYYv0bAxpT6Q+Mjc9NpE1SDIXGxMSXQbt5L3LeCBxEcfVFvAo4RP3Bb66DHlOfGVGpgDD+Dh41/JfQ3uatgYSx8PnTtp9p46a66/dcE8/6vr3QmPM5cfPvT1lkXy40b3OdWj+tRuCC4ac6VhYyw85JxqjGMuNoAH4ofUTq1r6KOcV0h8IPGBEx+ZHGjB8SDx0Tu/FvCoEdSwUOoxjc3nWJifPP2AoX+XSa/dy9vLa75Xuzy19TBsHMx3bG6Bx4KXsXmizzV4VYrHQ5snzbn9U+bic1vm+psXze2fPmpe/N2N7gdMKeFBCY2LX9syJ8884Exo0H2ZIHn5DzfNC7993Dzx/iPm0Vf3zNb1010yJDZfGnOlYaMUj9g8afFKY640bKw7HhRLY3GcPx8rnnP/VGJ9Nf36qhU8kPjI3PRK4OhaQ7BzsQHHU8/xIPHRzyX00c+F7Z/s93OZq9Jx0KLMt+miDRRemANwYHwOUKKDEh6U+KAECGmSNtjst3J0/uDZE12yg5IelPygJAgwHB9DzDHm2McBl75dCZEcnbNvyC2x/2hrnTglHkh8IPGBEx+ZHNBw0jEbSHz0Tjw2V7kB0lVfw8aUgcA15qH3NOZqqI2N3QfNzXcudxsi16KM/grNf/lc97/Y8TyklPgLalunMVYBD9cGyPY5Q3XO/Zw81Z/g8vFYY640bMBftaXBdccjdKKLYjDFYtZpqc65n1CJ9VW/Zg7NE302dzyQ+Mjc9NqE0SDIXGzA8dRzPEh89HMJffRzYfsn+/1c5ip3HDLhQYuu0xceWi667Dni9/BXbfEKeAAP1mbNMteXDLGtYQP6gD6GcDPWpjZ3KfbyHx84AVLbhmtM0Af0wbxA4gOJD5z4yOSAhpOO2UDio3fisbliZ1dSathAYO4xjWGVgwclPV7+9Ga32JJ/ZYrZAB7j4BGbd9/nwAN4+LhRcj/Hlwy1o2ED+oA+hvIz1G4s7i7/GPHpTXP24qnoHyJCz5jyGfQBfTBPkPjI3PTyxHE5llPg/qmciw04nnqOB4mPfi6hj34upN9wXc9lrnLGQX9VopdrPkL34K/a4hXwAB4hvQ79LMeXtGwD+oA+hvIz1G5sfVBsfuLdR7Ljc+iZXZ9BH9AH8wKJDyQ+cOIjkwNjBwISZ8wGEh+9E4/NFTu7klLDBgJzj2kMq1Q8+LRHzkkPtg086uPBczukBB7AYwhvYm1SfUmsn9DnGjagD+gjxMGhn43N3ZIYnTMm6AP6YL4g8ZG56eWJ43Jsp0B25mIDjqee40Hio59L6KOfC/ZLvnIuc5U6jqGnPWj+4K/a4hXwAB4+v1ZyP9WXtG4D+oA+Sjjqa6uhDzrxMeRUpu+ZXfehD+iDeYHEBxIfOPGRyQGNQBCzgcRH78Rjc8XOrqTUsIHA3GMawyoFD/ovDvTbHqfOx3/I1GUPeNTFwzXHOfeAB/DI4Utq3RRfktqXr56GDegD+vDxr+S+Cncvn+5iNcXskmcNtYU+oA/mBxIfmZtenjguNZzCXGzA8dRzPEh89HMJffRzwX7JV85lrlLGsfX4afPCbx4fvJCCv2qLV8ADePj8Wsn9FF9S0j+11bABfUAfpTx1tdfgLtmgWE0x2/UMNe5BH9AH82iZ+CDize1FRJ/bmFZ5PMCjnsY2dq6aZ/78H4bKoZwAHvXwGIqBbAc86uKx/83z5qkfPgp9zCS2Qx919SF9z5Br4AE8hvBmXdpAH3n6oFhNMXssfgCPPDzGwoH7nRKPZeKDMyFU0oPJ92Nca9igiR3j2WWfGuOYiw3gUS/jihMf/VxCH/1cSN/kup7LXKWM49b7j5hH/253cAyAv2qLV8ADeLh8Wum9FF+yCjagD+ijlKeu9lr6oFhNMdv1DDXuQR/QB/MIiQ981aVzNBrODY6nnuNB4qOfSw3uatiAPnpMOUD5yhQ8So/OAo+6ePiwTL0PPIBHKldy6qX4kpz+XHU1bEAf0IeLe6X3NLhLNkq/mhobJ/QBfTBHkPhA4gOJj0wOaAUCFqmrROKjd+It4OHCKPceAnOPaWzuYpifOHW/efkPN81D504O/gsS8KiHRwzPlM+BB/BI4UlunZgvye3PVV/DBvQBfbi4V3pPg7tkg2I1xWyK3aXP7GoPfUAfzAskPjI3vTxxXGo5BbY3VqkxDjieeo4HiY9+LjW4q2ED+ugxjfm5GB7df3T5w01T8ivxwKMeHjE8Uz4HHsAjhSe5dWK+JLc/V30NG9AH9OHiXuk9De6SjRoxOzRW6AP6YH4g8YHEB058ZHJAKxCwSF0lEh+9E28BDxdGufcQmHtMY3MXw7zGIgp41MMjhmfK58ADeKTwJLdOzJfk9ueqr2ED+oA+XNwrvafBXbJRI2aHxgp9QB/MDyQ+Mje9PHFcajkFtjdWqTEOOJ56jgeJj34uNbirYQP66DGN+bkYHjUWUcCjHh4xPFM+Bx7AI4UnuXViviS3P1d9DRvQB/Th4l7pPQ3uko0aMTs0VugD+mB+IPGBxAdOfGRyQCsQsEhdJRIfvRNvAQ8XRrn3EJh7TGNzF8O8xiIKeNTDI4ZnyufAA3ik8CS3TsyX5Pbnqq9hA/qAPlzcK72nwV2yUSNmh8YKfUAfzA8kPjI3vTxxXGo5BbY3VqkxDjieeo4HiY9+LjW4q2ED+ugxjfm5GB41FlHAox4eMTxTPgcewCOFJ7l1Yr4ktz9XfQ0b0Af04eJe6T0N7pKNGjE7NFboA/pgfiDxgcQHTnxkckArELBIXSUSH70TbwEPF0a59xCYe0xjcxfDvMYiCnjUwyOGZ8rnwAN4pPAkt07Ml+T256qvYQP6gD5c3Cu9p8FdslEjZofGCn1AH8wPJD4yN708cVxqOQW2N1apMQ44nnqOB4mPfi41uKthA/roMY35uRgeNRZRwKMeHjE8Uz4HHsAjhSe5dWK+JLc/V30NG9AH9OHiXuk9De6SjRoxOzRW6AP6YH4g8YHEB058ZHJAKxCwSF0lEh+9E28BDxdGufcQmHtMY3MXw7zGIgp41MMjhmfK58ADeKTwJLdOzJfk9ueqr2ED+oA+XNwrvafBXbJRI2aHxgp9QB/MDyQ+Mje9PHFcajkFtjdWqTEOOJ56jgeJj34uNbirYQP66DGN+bkYHjUWUcCjHh4xPFM+Bx7AI4UnuXViviS3P1d9DRvQB/Th4l7pPQ3uko0aMTs0VugD+mB+IPGBxAdOfGRyQCsQsEhdJRIfvRNvAQ8XRrn3EJh7TGNzF8O8xiIKeNTDI4ZnyufAA3ik8CS3TsyX5Pbnqq9hA/qAPlzcK72nwV2yUSNmh8YKfUAfzA8kPjI3vTxxXGo5BbY3VqkxDjieeo4HiY9+LjW4q2ED+ugxjfm5GB41FlHAox4eMTxTPgcewCOFJ7l1Yr4ktz9XfQ0b0Af04eJe6T0N7pKNGjE7NFboA/pgfiDxgcQHTnxkckArELBIXSUSH70TbwEPF0a59xCYe0xjcxfDvMYiCnjUwyOGZ8rnwAN4pPAkt07Ml+T256qvYQP6gD5c3Cu9p8FdslEjZofGCn1AH8wPJD4yN708cVxqOQW2N1apMQ44nnqOB4mPfi41uKthA/roMY35uRgeNRZRwKMeHjE8Uz4HHsAjhSe5dWK+JLc/V30NG9AH9OHiXuk9De6SjRoxOzRW6AP6YH4g8YHEB058ZHJAKxCwSF0lEh+9E28BDxdGufcQmHtMY3MXw7zGIgp41MMjhmfK58ADeKTwJLdOzJfk9ueqr2ED+oA+XNwrvafBXbJRI2aHxgp9QB/MDyQ+Mje9PHFcajkFtjdWqTEOOJ56jgeJj34uNbirYQP66DGN+bkYHjUWUcCjHh4xPFM+Bx7AI4UnuXViviS3P1d9DRvQB/Th4l7pPQ3uko0aMTs0VugD+mB+IPGBxAdOfGRyQCsQsEhdJRIfvRNvAQ8XRrn3EJh7TGNzF8O8xiIKeNTDI4ZnyufAA3ik8CS3TsyX5Pbnqq9hA/qAPlzcK72nwV2yUSNmh8YKfUAfzA8kPjL6IFstAAAgAElEQVQ3vTxxXGo5BbY3VqkxDjieeo4HiY9+LjW4q2ED+ugxjfm5GB41FlHAox4eMTxTPgcewCOFJ7l1Yr4ktz9XfQ0b0Af04eJe6T0N7pKNGjE7NFboA/pgfiDxgcQHTnxkckArELBIXSUSH70TbwEPF0a59xCYe0xjcxfDvMYiCnjUwyOGZ8rnwAN4pPAkt07Ml+T256qvYQP6gD5c3Cu9p8FdslEjZofGCn1AH8wPJD4yN708cVxqOQW2N1apMQ44nnqOB4mPfi41uKthA/roMY35uRgeNRZRwKMeHjE8Uz4HHsAjhSe5dWK+JLc/V30NG9AH9OHiXuk9De6SjftPHjePvLTTlaXP7GoPfUAfzAskPpD4aO7ExwcffGDwCs/Bez/6mXn9n/7VUIm5Cs8Vzc/GxkbHc3Z8uWVK8AcOcRy05ui9H75r/v7jVw2VWjZhJw3/oVpMXbgChzQcME+YpxwODNVtTqzNeR7UBX/BgflxoKaf8a3bkfhA4qPJxMf+/r65dOnSyr329vZW7plXcZ5Tn5l4RMGx1Jn6HKhc1JEd8Hb1NJvKJdQrw7ZUizmJD+iwDCtwHfPHHCjVrYyRsetVjqE8X7LEehA6knzAtZ8PY/gZ37p9mfigCnN70UJpbmNa5fGk4kHBjxzE1tbWyr3OnDmzcs+8ivOc+swXL148lPgYUz/g7erpNZVHqFeOrdTiEB0ifpRjAB5jDnM5IHVLiYsh2k1ts8ox1DWvWA9Cby5e4N5RXkg/k+ovhtZbJj5kJpY6k+/HuNawkfoXopLxaYxjLjZS8Vjl4IdAd9ShTenkpTMdW+fgbVvYT8k72D7KhVItIn4cnVPwDHMyNgdKdZsTd1c5hrpwwHoQ+nTxAveO8mIMP+PbOyPxga+6NPlVF5z4OOoY4Czz56SWM/U5ULmoW+VFGxZo+dyCHvPmrFSLSHzkzTf4ifmqwYFS3coYGbvOiaHbe1vm8tM75uprO+ba27vdi67pHn1WY+ylfSCutoFDKY5oPz6OY/gZ37odiQ8kPpD4qPiVGgS68R1kThCq5Ux9DlQu5HIWbTlj0KgL3rbFWw3MtW2UahGJD3BUm7Owt2VKdStjZOw6JYZu72ybKy/umCc+2jVPfrznfNFnVIfqTokh4ip81pT8WyXbY/gZ37odiQ8kPlY/8bG9bbYuXjbbV/a7F11v0b2KCY3UvhDo2gp0tZypz4HKhVzKou0Qj3a2zPlr2+bS7Z3uRddbO9PMH3g7zbwf4sME/krTfqkWR0t8QIeTxEpN7sHWcP9WqlsZI2PXsRi6c37bXPvejjPZ4UqCUF1qMxX+iKvDeTcVZrA7DWZj+Bnfuh2JDyQ+Vjbxsf3C62bnzr8EX1RH05Eh0E3jNH0Y13KmPgcqF3KxRRs94/buttl/I75wozpU1zeu2vfB27Z4WxvfFvor1WLNxAd0CL63oIlVeIZS3coYGbsOxVA6vZGT9OBECLWZ6uQH4ir8zCpovIVnHMPP+NbtSHwg8bFyiY/tg9Mc29+/E0x6UFKE6pCouc3YAkegayvQ1XKmPgcqF3KhRRvxbufilnn8Pf/xXF6ocUl1qc3YnKX+wVudedbAslUbpVqslfiADsH1VjXS4nOV6lbGyNh1KIbSV1c4NuaW1NY3tzuXtro/Rtz44ODrMdv19IG4Wm8uffjh/jzmeAw/41u3I/GBxMdKJT52dnfNy996Y5HMyEh8UBtqO7aTRKCLO+FXPvnK3PvLHXNjc3N0PGo5U58DlQu50KJtezcv6cELO0p+UNu581aTE2PPJfp387VUizUSH9ChGxvmLHQYnh+epynKVGxS66WOoVS3MkbGrn0xlH6s1PWbHo9854zZvHni0ItjpyypresHTy9c3zZf+/15c+WlRWLk1kd75qlf7lWLt1gPtqunVP6jng6GY/gZ37odiQ8kPlYq8fHtt981333/wy4w5Zz4oDbU1ufEamX9Q4Huxod/M/e++Ny84tjwb26+ae5+8ZX57MPb3mf0PfuQ+5uvfW7++q//vnxpJSLoWWsvzELjr+VMfQ5ULuR8izZ6vpSvt8iFmrymtr4xavFWcoWv775WJ3G1uXnbvPMXvWSYby5bvE8+g+Zbyy+MOQelWqyR+IAO/YtY6NA9Nxyb2e9RWcv35egtNW6m1ku1XapbGSNj174YSr+DJWMiX++/c85c+MaG2XjkePeia/7MLqkPe8x0jxIfF28tvlZ6/Xu75vavkfiw5wnv3b4B81JvXsbwM751OxIfSHysVOLjl5/+6UjiY+vDT83Jp142x3avmOPbj5jj5x8zGy9+1+z84r8uv+pCiQ9q63JUNbP+NRMfvOCyF1m++66xue65EjCUCNHaXA1ZmA0dcy1n6nOgciHnW7QRBvYijN+ffuy4eXDnP3cvuub7dunCUZW3Sid0XOOc670Yp3kjeveTz9VOSI0516VarJH4sHXF76HDegvYMTk0Rt8hHXLi0Y7Br3zyN/POrTqJ39QxpcbN1Hqpdkt1K2Nk7NoXQ/dfD39FlE99sJ5dJfVhj/nS7cWJjwtPbJu9K9vm8Xf3zO3f7HXX9F6+7LYp70PrwZT2Y9WxOWK/17I7lh30u3r+fAw/41u3I/GBxMfKJD52dna65IU88XHux5+a45eudUmPjee/bU5/831z8mt/Z45fesyc+9HvjiQ+qA/bKdbM+ocCnSvhwM/Ciy+ZfOB79qLLd5/7CpXcVtoJ1R/jsyFBlp/bnovY89Vypj4HKhdyvkUb/acW10Jsce+8ufTqRvd68uPz3nqu//aiylskPo74jRj3Yp/HOE3JyO6E2K075rMvvprkr8yxMeR8XqrF4sQHdFidwzn4t1rXp8OF/vQTHL55So2bqfV8duz7pbqVMTJ27Yuh175bnvigPuyxXXq6T3zQyY/Qy26b8j60HpTtOcGmtS6THOEE+9infvXsLE5PT31CS+I71rU2b8YaB/U7hp/xrduR+EDiY2USH9dvPHEk8XHy1kvm2O5Vc/aD3x76odPtj/5L955/3JRPfFAftnhrZv1DgS4n8cEOTTpvCoq++zSmZTA72Chx23ufvLkcMy/y5D17Pvj9pt2Ptflle68cHMenwPnW79xfWeC69Lse8jrFVmjM3N5X1nKmPgcqF3K+Rdv569vehAYlP65+72z38idH9gz1YY9RlbcW9vwsy8XMJ28e4qb8SpcLb2ov78tr+ZnkFv8mjM1L++h5yjMtbdjPfTBOyTk5luW4A9pIsS/7Z53ai95uTj5508j+2P7y+S1c7Hlc1jvwAdwX27THxu1T5j13oVyqxdLEB3SY75tz+DAnHbJObE1K/fE1141p6obtM0Rcpr5q9cOYsb/s+rZtW36Dx+IqS3UrY2Ts2hdDx0p8yPGGkh70maybeh1aD3IfjLvmyT4XR/h5apS8zsz9Q1WpbY6rtt2xTmiNOc5Y31PwphSfUPsx/Ixv3Y7EBxIfK5P4uP3s148kPo7vPWo2vv6dQ0kP+S9u7cQH9WGLr2bWPxToyCnbGw1+FnZycqHF92wn7rtPwYwWX3JDwptEmehY1rMWXvwsVNp/7WInK/t29WO36/o6WHTxOOyga7dx2fKNWT6z67qWM/U5ULmQ8y3aKEERSmqkJD6oD3t8qrz1LJQZK+Idc5exYs7Z+KZwwsWtrt3Bb9Mwl2Rfvf3Fb4aEnonasY1lO7E5WD77wW/v8Ht+hntf9H8J5jlgbfD7mH2eJzkW6l+OiT9b+I7epvs5Fn/pcj1b38/nyyP6/Jz83NQnz4kcr9tW/u+ylGqxNPEBHdIJIotDEd8c4gPxm3klObvU08Fv98R0wDaW7RrQIcdNOT4ao+t148NETQkfyv1LnZX0w3NHz0fzKTVt+1+X7l3j4nulupUxMnbti6FjfdWFx0jlZImPCU722RyR81DjOhTbavTv6sPmuatO7XtjjjPW92K8n5tXLB9ee4xa/Y3hZ3zrdiQ+kPhY6cQH/a7HxvNvFCU+pLBLg18s8UGLwNBLLmB8js93vwtmjh9PdSVcODNOzyIXXzQXvDCyF32LxVq/cHbZ47ZyHLZ9GXS5fsyWb8wSO9d1LWfqc6ByIedbtI214ZLj1eYtJ/AYP7nQpueSmHOdVE5Qeze3/D8A7LIXeqalDbEZWd6zNJTLVx5vzH6I03I89Fy8UZJzaLfnhd9nf+l/JNnWLPUlX8vF08EPLrvnfZHkiGlU9uu6LtViq4kPOVbosE/up+pA6ovn0sVDWY/7DnGS6wzRYUw3/JyuMkVT1M7WuN3X0H5y58m2a78v1a2MkbFrfwwd58dN5VhLtSv74uvQepDrdHgFTvZRvSWmIinoWrtl15N+34qFHF94vSp1xNpafiZiJvGa73PJcWv5fOIH/jm2cV0qpa7ZFq1TZd+8BqH54Tpsh+fWV9awKZ+Fn13at23I+eO2h8d58IcLa5yuvpecCPDGNdfeezM4EeryLb51OxIfSHysTOLD+VWX29/oft/j7Lu/PpT8OPv9j5O/6iKdY2nwCwU6cnbSWUu7HGQOOc6DvzZL50htuK593+XUuvrdXxT6hIW0S23Iscq/BNoOmx0vl2zXZ68b50EQdQUk2S7Vlm/Mciyu61qLNp8Dlc7Wt2gb64i9HO/ovLUWRWyb8bWTZzbXczhBfUuOLG0F/rLBm376wcHUZ+psWKeeXHYPPbu18GRNcEnaSLXv4zTfl3O67FMsMJfzdDCG7jkPFk28yJLPzvNIY+TnpVL6JNf4UzXK/fvKUi2WJj6gw4PNdqJvXvLL0j7zgeOAxHsuOlyM0R0z5Xj5OldT1E7OVc1+pIYZK6l3ee3CkJ+Fy1LdyhgZu/bF0LH+nS2PkcrSGCr74uvQepDqMD6MQ+evrVNZVI/5xX5dtpVxIqee7Etypuv74GTlofXorTvmnYP/5BY7ncQxjMdFffI4pF3SAPFR1uM5Ydsc+6hef69PEsi5kP2wTbusZbOz61ujW2tuHoMcu5zz5ediPeKbQ9d4Xbyx/Qv3d2itf3Aqj+cthuuSX+I5u+dJGK+Ng/1+DD/jW7cj8YHEx8okPlw/brr1kz8uf9z04WdfNxuvvmtO3vx6999dTr/5s6QfN5UCLA1+oUC3cE7p/86WHRU7JX5O333pSLkulbYDlJ91n/O/Ez3YVHHgse3a7bz2xAZ10dfhBaRsl2rLN2b7mez3tZypz4HKhZxv0TbWj5vKsY7OW2vzw7ZdAZs+s7kucY5xgtpLjixtCV7xPS4lx1OfqbNhBXCX3W4svFkMPMPyWVhPVt9H5iSwaJKbE/ta6rJ/tv5UxmJ+F36GxnNksSiSJ4t5632Sa/wSOx7jkLJUi6WJD+jw8EYLOlz8VxZXbOF7rB0f37meTB6maIr6O+yz+GtqvRaH9EP9Sg3X0G6pbmWMjF17Y+jWlrnyovvUR+hrpPwZtfVhyPdv/njXhF5cL6cMrQepnyMx4SC+2LzrMBV+m5/Bbp9VT8T0Q5zxxC+26SptrrIuZKyidoft1DvB6fJlzuc8iLn2/FJdOZfLNYSYI7sOvXeNk9vaY7efkdvSs0jb/Nz8ud2P8zkcvLHbs7+Z64lQl2/xrduR+EDiY2USHyR457+z/ckfzcmDkx/dv7N95KbZ+Nb7yf/Olh0NlaNvIB3Bi+yyk5IOme/Zjs933xf0ZLCRY5XXMnBx//JZZF2+DvXbfcZ/fbY2gLJdqi2uZ88FP4uvrLVo8zlQ6WxDizZegNllyb/RlGMenbfWAoBtc5CXf3Wiz1yBPJUT1F5ypLeVuVCyeGc/Ez8P9++z27XjxEdg4cT9pM6Ji9PLto75dn22XEy9Rv/5ZbFp4np3X6P56pOOvPCR/4bTOSeWbX7OmD/g8fvKUi0WJz5G+rfScrzQYX+qkXkY8w0t6pAw7Z7LE68Z82RNOfqRPq5WP8vnzvBXPBZfWapbGSNj16EYur2zba59Lz/5QW2orW98Y94PJT7Yr0p9LDVj8UVyRT6vzZuh9WS71GQZtZFJ+UPJP09SP9WOHNdyTgLxfBkHI/9iOjS2XJuEA2Mo16VsQ86NvHbVlacwGF9X39JmMm8O5q2L9bwmP/APcm3DdkO4Svy4fs54uY2rHMPP+NbtSHwg8bFSiY9vv/2ukf/OVv6Qqeta/rgptXUJTt4LZfzpM1nXdR0KdPYmQ7ZnJyc3F6571MZ3nx3WIYdoHSVctO03Q4v+Dn6oUAQWelZy1kectKjjcoI8Jg4ilF2WfdDndrsUW74xsz1fWcuZ+hyoXMiFFm37b+Qv2DhJQm194+P7o/PW2gyz3ZRFybLuwXHIFE7YHOE+nFw5wvGjfKb2tv46G4LPVMdlt2snxu98BvqLy0FfqXPi4jQvImzN8PhZV5y8YFvdfwQQY1k889/MZ+K5qa3UNNuSC1bX+HnuZFu617UXNvkZfWWpFmskPqDD/qQBdHj4xIeMvR2/+S/fInnY31/E0FRNkXaCcTlRm7F+6PlsDcf8lU+vfL9UtzJGxq5DMZSeZ+d8XvKDkh7UhseiXYbWg8wdwtT1kjHAxpTHYceDofVkO44L0j7bo5Ljlowbi+cQp5W0Ex8Jf5Donj1wYlPOJcdVqVlq38VVkZTiuZBzFZu/Q3N58DxZiY8DX+HiDN2Tz7JYB9wxNw58GX22eL4FVoQ7+z0eSwhXyRMeR854uY2rHMPP+NbtSHwg8bFSiY+d3V3z8rfe6AIZJTVcyQ55jxMf1IbaugRX814o0NlOU9plp8NOiD+TwVF+5rrPTon/FSU7RukIqV+2xZ9TKftm27xg4nry+4lUh+3Jf5vHbdmG3cbXLmaL2rnGzPZ8ZS1n6nOgciEXWrRt726Zx9/bDf53F050yJLaUFvf+Grdj/GWOSBLWhSkLhDoOXM4EeSWFfjtRUPqM3U2rI27y26/eFhslGgsIb6m2u/mRIyFNNjZFwsrG9/lHIrn5meROufFiK1rrks4dtrsklH9gtU1fn4G2XbZXvxIHdfzlaVarJH4gA6hQ+KxXNwTX0Ox5QjvrUSI/DykqVhcrtWPS8Oy71ztlupWxsjYdSiGsl+h0xv01ZUnPvLHU/qM6kx10oOf1RdXlzFCJKa5jeszX1ywsc6qJ2zLfjjG2LFj+XzW7znQfeKX1BT3IWMS1Uu1I/tbzoeIeS6bvrHzc1PJz+Ua2xCb3J8cJ99z2Tj8LIs/0FC9zrbAQz7r4b4P/qhj1V3UP/rZYh3wN/POGpwIdfkW37odiQ8kPlYq8UEC395eZPBzEh/cRjqeMa59gW4MW3afMqjYn63r+1qLNp8Dlc42tmjbuZiX/KCkB7XRwG5K3mqMDzZ0eBSa51It1kh80PNBh9NzIcSTuX226nG5VLcyRsauYzFUcoN+8PTy0zvm6ms75trbu92LrukefSbrTnXti6ucmJabWvmMlIiTCX3iUJewEpt/TtbJPnLqyT9K2RyljTjZk32TPXpv2+WxuBIf9uY/1Y60nZr4WNazEpOL+/0pZ9/Yhtl0f/3WaUOcCiWs5Vwsn13i6zjFwnMtcQnxhvtdhxOhLt/iW7cj8YHEx8olPljo2y+8Hj/x8cLrqgHQF+j4mccspSMd084q9V1r0eZzoNLZpizatne3Tcpxe6pDdbXmekreao0RdqbdDJRqsVbig3gAHU7LhXXS4qrH5VLdyhgZu06JoavEHV9c7TiRcbKPORQ7NZRbj0/rcjt+T3PMCQ5KCNBLfu2DN/bdfTp9YJ0ctNtzAiTJjjNx8dUh+9Q/PYNMtjAv5LN1z2f1Zz+bqw4nDOSYfTblPPE4uS71za8jiSbruTipIW3afXfzl8Eb+RwyWcK25PPKut2cOHB14Uft7LbL9oonQl2+xbduR+IDiY+VTXyw4LboBMjFy2b7yn73ouvu3oEgl/UU3vsCncYzhJyShv0WbdRatPkcqHS22Yu2nS1z/tq2uXR7p3vRNf3niSnmcUreTjFe2NTnWakWayY+DuEPHU7icw5hoBCbp7K36nG5VLcyRsaus2No47ypFVdTOZRabyotwK5+3F2VOR/Dz/jW7Uh8IPGx+omPhoJfrUA3xFkh6B0NKrWcqc+ByoXcKi/apuTtEK6jzVGutz4npVocLfGB+IHEx4gcWPW4XKpbGSNj16scQ13+t1ZcTeVQaj3Xs+Le6sXUOWE2hp/xrduR+EDiA4mPioueWoFuTg5tyrHUcqY+ByoXcqu8aANvsegZW6elWkTiAxwdm6Po/yjHSnUrY2TsepVjqIs7teJqakIjtZ7rWXHvKPcxJ3pzMoaf8a3bkfhA4gOJDyQ+ZvsXv1rO1OdA5UJulRdttRZoWCjoLRRWba5LtYjEB7i1apyfw/OW6lbGyNj1KsdQF9a14mpqQiO1nutZcQ/+dUoOjOFnfOv2ZeKDFhV4YQ5a4MAqB79agW5KBzQn27YzHZPf4C0WDnPSTu2xSC1Ch26tIH6456U2F9Ff+jxL3VLiAtpNnzvoOX2uoMn1nivpZ8b0MdT3MvEhM7G+LImsU3qtYYMGWPqcsfYa45iLjVQ8sIFcbwdYMwBKZxrTcujzFA2Ct+BtTe7Ora9SLSJ+QF9z08QqjKdUt6G4an+2yjHUhSUSH/BZLl7g3lFejOFnfOt2JD7wVRd81QVfdcFXXSJ+wOdA5cJtlRdtWKAdDcRYnNSdk9KFDRIfdfEAvzGfKRwo1a2MkbHrVY6hrrlEXIXGXLzAvaO8GMPP+NbtSHxENjwxR+2b2Fi7nM/nYiNn4bq/v29ICKv22tvbW7lnXrU5znle4hEtpjY2NopOf6VokOyAt6un2Rw+oe5wfEu1iPgxfO7BW8zdUA6U6jZnrYvEx9ENITbJmJN14AD5pxprdelvfOt2JD6Q+GjyxAcJAK/wHPzgp781H3zwQ8xTAle0Eh/gbJizmvPzzoffNx/8sJ3n0Rx7y7aGajEn8dHy+PFsvSbf+cn3Eb8S4lcLnBmqW7kRiV3TOFf1jweuxBL+EIaEo4sXuHeUF2MkWJH4KExw+By2b2J99Yfcn4uN1IUrBVi84nNw4x/+b3P+2fcxVwl8GaI72SZFg+BsnLOac3T7R1fNxad2oI8EfWjiInWVc4340Za+Sjmz+9g588wvHjMbp+Y1rtJ5abV9jlaH1m0hwYNn6BOTmnPx/g/fN2/deQ2J0BVJhI7FDfJ/Q/2H3c63bseJj8KEiG9ibQBK3s/FRurCFXN1n4lhfurKC+aZP/+HeeKf/h9z7NjxQY4CeNyXPG8xPEo4y22BRz08zlx62Lz8h5vm6Z9fNfcdS++XsaASeKTPG/TR1lytAh633n+k0+j242e8flhjHHOxMQd/1WrSB881fnLyygvnzQv/y+Pm7PZp/LGisT9WaPJfrsFKr32+HYkPJD66RYePIKXEk+3nEJhpPBpzFbNx7Wf/V5f4oOTH5q23vQtHOf/2NfBoa7MCPOrhwZsqSn6ENla2JuR74FEPDzmvQ6+Bx3zw4MRkLDkZi4NDuSTbzcXGXPQhscF1uuZXea6OP3DcPPera10i9Moru4PWs6s8fjz7ODz3+XYkPpD4QOIjkwM+MdV0XiEbfNqDkh4lpz7mslAKzVUtTDRsAI/04BfCQ26qYhurED+ARx08QnOc8xnwmA8eMjEZSk6GdJ7DnVDdudiAPuajjxBf5Wdz4e6l53a6pAf5Ajr1ceLh+6snP6AP6IO1g8RH5qaXJ47LuTgejXHA8dRxPPK0Byc/hpz6AB518GBfUFoCjzp42Juq0MYqhBnwqINHaI5zPgMe88DDTkyGkpMa65K52IA+5qGPHJ84B+7SaY/n//H6MvFB/mCMUx/QB/TB2kLiA4kPnPjI5MCUwcY+7cGJjyG/9YFAgEDAgaBmOaU+XJuq0MYqNG7oA/oI8WPoZ1PqY+gzu9oN1YcrMelLTs5lrjTGMRQPF7a+exrjmIsN4JEWP85/7dyhpAf5gjFOfQCPNDxI+xoanBIPJD4yN712QNAgyFxsTEl0G7eS91Pi4TrtwcmP3FMfwAOBoEQHvrZT6sO3qfJtrHxjoPvQB/QR4sfQz6bUx9BndrUbog9fYtKXnJzLXGmMYwgeLlxD9zTGMRcbwCMeP+Rve5APkK/apz6ARxwP1r6GBqfEA4kPJD5w4iOTAxpOwWXDd9qDEx+5pz6mdDzsYGuUrrmq0a/sQ8MG8CgLzKFNlW9jJTG2r4FHGR72fJa+Bx6rj0coMUkatX+IWMPvzsUG9LH6+sj1kavOXddpD05+1D71AX1AH6wvJD4yN708cVyuuuPRHAccT5njCZ324ORHzqkP4FGGB2unVgk8yvCIbapcG6sQdsCjDI/Q3A75DHisNh6xxKQrOYn1VTrm0Ef6XGnwCniE8Qid9uDkR81TH8AjjIeMyXPXBxIfSHzgxEcmBzScgm0jdtqDEx85pz4QCBAIZLCrdW1zt1a/sh/bRsqmyrWxkn3a19AH9GFzosZ7m7s1+rT70LCRq4+UxKSdnNQYx1xs5OJhcybl/VzmSmMcwCMcP0KnPTjxUfPUB/AI4yH1P3d9IPGRuemV5KBrDYLMxQYcz3DHk3Lag5Mfqac+gMdwPGw/UOM98BiOR+qmyt5YhXADHsPxCM3r0M+Ax+rikZqYtJOTc1n7aIwD+lhdfQz1iRq8GsNGymkPTn7UOvUBfUAfrDMkPpD4wImPTA6MEQhYkFxKG6mnPTjxkXrqA4EAgYD5VrOU3K3Zr+xL2sjZVNkbK9mnfQ19QB82J2q8l9yt0Z+rDw0bOfrISUzK5KTGOOZiIwcPF2dS7s1lrjTGATz88SPltAcnPmqd+gAefjxs7c9dH0h8ZG56pyCIBgk1bMDxDHM8Oac9OPmRcuoDeAzDw/YBtd4Dj2F45G6q5MYqhB3wGIZHaE5LPgMeq4lHbmJSJic11iVzsQF9rKY+SnziKnI357QHJz9qnPqAPqAP1oGRvXkAACAASURBVBoSH0h84MRHJgc0g03uaQ9OfKSc+kAgQCDgQFCz1NTHkE2V3FiFxg19QB8hfgz9TFMfQ58xpV2qPoYkJjk5OZe50hhHKh4p2PrqaIxjLjaAhzt+5Jz24MRHjVMfwMONh0vrGhqcEg8kPjI3vTZJNAgyFxtTEt3GreS9Jh4bl54xW7ffP/Lae/GXhpIcVLo+p3v3P3S2S2r5xgo8EAh83Ci5r6mP0xceMru3zh55XXxuy9CiiUrX53Tv/gePQx+F8Y95ooE5/NXq+Sv6665Pf7H7Zy4/jN9Qy9An9LF6+mD/ObTU8Ls1bQw57cHJj9JTH9AH9ME6Q+IjI7DwpMmyplOQ/crrudiA46nneE5uXu4SH1RKruRcA496eOTMu68u8KiHx4NnTnSJDyp98x27Dzzq4RGb65TPgQfwSOFJbh2sr9riFfBYTzxqxOyQ9hE/2uLVlHgg8YHER7cx0Ag2UxI95BBzP9OYq5gNJD56Jx6bq1x8XfU1bEAfPaYuDOS9GB41FlHAox4eEruh18BjXnikaDSm86Fcku3mYgP6mJc+JEd913PhLo0jxR/45iHlPvQBfTBPkPhA4gOJj0wOtBBskPjonXgLeLBDLSkRmHtMY/MYw7zGIgp41MMjhmfK58BjXnikaDSm8xTexOrMxQb0MS99xHhLn8+FuzSOFH+QMie+OtAH9MHcQOIjc9PLE8flnBwPj2msEo6nnuNB4qOfy7loEProMY35oBjmNRZRwKMeHjE8Uz4HHvPCI0WjMZ2n8CZWZy42oI956SPGW/p8LtylcZzYeMA8+cMrXZky9tw60Af0wZxB4gOJD5z4yORAC8EGiY/eibeABzvUkhKBucc0No8xzGkR9fyvrpuTpx7Ab3ycGP47JzEc+PMYHlyvpIQ+6umjBAduW4rHxs6D3e/wkFa5T7vU4NVcbJTiYc+96/1c5kpjHMBjXv7KpQf7ngav5mJjSn0sEx80mXN70cTObUyrPB7gUU9jGztXux83pXIoJ4BHPTyGYiDbAQ/gIfmA68N8gD4Oz8fU/CjF48rLu+ZrP98fHL+mHn9r9kvxaG08q/48wGNe/mrV+dja80+pj2XiQ2auaILk+zGuNWzQxI7x7LJPjXHMxQbwqJcBx4mPfi6hj34upG9yXc9lrjTGAX/VFq+Ax7zwoKTH5Re3g2s0DZ3PxQb0MS99uOK3fW8u3KVx4KsuafydC+ZT+iskPjK/5jBnx2OPrfb7KYlecywtOB4kPvog0QIeNfgFffSYxuYzBfP7Tx43t3/yqNl98mxwc+WzBTzq4uGb59T7wGM+eGxe2TAvfXrDPLQZ/iNbis5T+eOrNxcb0Md89OHjqn1/LtylcaT85o89/pz30Af0wXxB4gOJj25ToOFA4XjqOR4kPvq51OCuhg3oo8eUA5SvTMWDkh4vfXrT7D2Vf/oPeNTHw4dnyn3gMR88jh27z1DyI4Z7qs5j/YQ+n4sN6GM++gjxVX42F+7SOJD4SOPvXDCf0l8h8YHEBxIfmRxowfEg8dEHiRbwkIuRoddTBoKhz+xq1xoei+THDfPCbx83T7z/iHn01T1zbv//b+9dgvQ6rjNBejEdMROOVkfHaELuHqnVjJbdEgECBaLwKNQLQIEACwABggQIPgFBNMGHaUo0SUEiJFEWRXkkK0hRkgnSpKNDiwl67AjNig73YjwxE/RSu4nZzXqmZ9qblrTNiXOrzo+srHv/m3kz75f5Z32LP/I+MvPcPN95ZH6V99aB3kUX8bjtY20429cQmBOP2cNDdnQsnj3Y+Jz43mP/wxkjpIdtO9OOEXZViwz6R1l2RTzC8CDx4acvxis/PUle6dIViY/ARa+bpLsU69aLOa9FBhNBvMOqHZH4uK1L+sdtXah9dJW16Cp0HDKpshdgD7xyYrL4OnFluVmYyf17jsw1f3mS+isnlsye/XdP6sl/iJHrbb+h9Q4s7k/aX9uziYyhz9fWn1xz+wsdx67duyZ67bJV97p3/th11xadqqzde3Ztue6OTeqJXfnUk2cbWs/VVcjz+cpFjEP8w9ahjuPQif0NwShE49Wfnt9COIqPaT0X37bzUD9v66PvWi0yvP0jYs5bi64Q4yAeYfMSiSUSL6Ts89kh94lHGB5DdBzSJiceJD4ikoCAjAigtcjIaeghDtlXtwQ89hxcbf6ry76l04OTBPFgIuiz9SH3S/CPkOc+/ujiloWaTL70d+6ltYl/XfrOfZPrel9L1rutM9WJlNP08viPzjb/1ePC1+81xy4fmehZFs6H1raSNYKnxqu9++9u7t+9d3fTZn5lnzn/0onmey6yo8CWL8dyX9ovnjm47Z5dV+qJ7frU8+0vV72c4xA9yq6qhkjs+YaH6Gfab9ZiSddYEONQ/+h6hhTXEeOoRQbxmO7btj0K5iQ+/PRF//DTk9hXl65IfPQkXts52467FNtWd+i1WmQwEcQ7rG1DF//i/zELD7w4deJo13ePiUdaPFz9hp4Tj/x42Ls6uOPDf4eLu4tBdwK4O0P0uhAbS2cPmmMPHzEnv7y85RssSjDJxy/tD9MuLh8x69dXzdV3NkgWIUjEx2SXzn1Pr5rjjy2a5fOHG1JE5UipOwx8dmhIrvWpJ3KH1nN1FfJ8vnIR4+ja8REa96bVr2XugxgH80f+/GHbMvEIw0NitRDRUtp6THVMPMLwSKX3rn5y4kHig8RHE2SYmMsKCj54nPnO/2qOP3NrcJLIGXi6guGQ6z66GtKv3QYhg3iU5YPEIx8eQgYcvbTQfJhWyA8hOR7/s/vNo2+eMQun5s1dAd+JsP247xjh57XIoH/k8482OyYexKPNLmKvoeIV/52tn/2i8Ii1m772OeMViQ8SHyQ+Am2glMAjpIeQH30Bput+zsDT9UxDrpeCx5Bnt9sQD7/ELzpDYE488uOhH6a98pNz5vyLJ42+3mL7TcpjhF3VIoP+kd8/bNsnHsTDtodUx4xXZdkV8YjHg8RH4KLXDSa1GCFiHEzM8Q5r25+85iKvu9jXQo6JR1o8QnTfVpd4EI82u4i9hojtY8q4/L31Zgu0vFoRq4u+9mOOQ2XXIoPxivFKbTplSf8oy66IB/FI6d/aV878QeKDxAd3fATaQCmJoPnPLh/8xswfvzRoQZAz8GjwS1GWgkfsWIhHWRMM4lEGHmtPLJlL3z5llo7e/gBqrK91ta8lliDGQf8owz/UlokH8VBbSFkiYonI4KsufvaLwiOlDbX1lTNekfgIXPS6ANZihIhx5DR0F7eYc4SufGWsv/b3Rn5DxkM8/BKN6NYXjyE4aBviQTzUFlKWCNtFyKB/0D9S+oX2hbBdhAz6B/1DbTplibBdkcGPm/rZLwqPlDbU1lfOeEXig8QHd3wE2kBJgWf/0QfN5Q9+Y6RsCy7TruUMPNOeK/ReSXiEPrtdn3j4JX7RGQJz4lEGHnvmNv5tLfEoAw+NWcSDeKgtpCwRsR0hg/4R5h8kPvz0hbBdhIyc/kHiI3DR6wZ4hIHUIiOnobu4xZyXhsfQXR/Ewy/RiK0gMCcexCMmLnW1RdjumDKuvHXOnH3+qKF/0D+6bDzm+pi2q8+FkEH/oH+ovaUsEbYrMkh8+NkvCo+UNtTWV854ReKDxAd3fATaQGmBZ2PXx6+bV15Cdn7kDDxtgXDotdLwGDoO4uGX+EW/CMyJR348zvzRsebDpgsn50l8BOQp+kd+27XzAPEgHrY9pDpG2BVKBokPPx9B4ZHKRrv6yTm/IvERMJloA7AWI0SMI6eht2E39BpCV6EyhPCQnR+XP/xtU86vPdz76gvx8Es0YieheAyxLeJBPIbYTV8bhO2mlrF7z25z/1ePmys/PW+E/JAx0j/oH322PuR+atttewaEDPoH/aPN9mKvIWxXZJD48LNfFB6xdtPXPme8IvFB4oM7PgJtoOTAYxMgl279Z3PuzV+ZUy//rVm58mfm8NlnzL7F+4z8Nxj5LZ+8MDnWa6nL+eXb8lL3rf3VImMW8Nh78GgvoVayf/QlY/t+zsRsP0fs8TQ8Dhy7xxw6vr/5HVy9Z4LtvoW5yXW9r2VbvSP3HtxWv62e9nHs4SPmvqdWzLmvrpn7Xzw+kfvw6/eZq++cb3Z5XLVID9HBTsAjFmttPw1zrRNbEg+/hYromXiUpSviUR4eJD78MEHYLkJGzvxB4iNw0etOFhAGUouMnIbu4hZzPgt47D10vCE6hPAQ4kMIECFCZEcIf9RBjA1c/Iv/ZM58+x/M2nPvm4XzLzTkme1Ps+Af9vN2HdcYr05eWzGPfP+0efKt+yfkghAM8rvyzrnbBMT3Tm+7n7zeO+fNlbfPmUf/7MxE7upDhxtCRIiRe5bmJtcFoxrx6LK92OsIHyQefgsVwZJ4lKUr4lEeHvx3tn6YIGwXISNn/iDxQeKjmVzWbuixE0m7PUJXY8nYe+jYZJfHLOww0F0d00ru+NjYwTNNR3ovVlf7lk43ZIeQHkJ+CAmir1fp92XGsl20D+ZMzPZYY46Xzh0yl984Y+TVEelHXhsR4uP8yyfMvVeXzcLJA5OdGtN2aOhODSnb6oXu+NDnCRlbDXjIeOkffhP8mnSFwJz+UZZdEQ/iEZLffOsiYglCRk7/IPFB4oPER6ANIIICQkbOwOMb5H3qIXSFkDGreMwfv7Tl+zKHTvR/X8YH12l1iMf0SaUQHo/98Gyza0PK+cWtuyem6XbIPeIxHQ9bpwhdIWTMaryysZBjhK4QMohHWT5IPIiHG2tSnCNiCUJGTv8g8RG46HUNF2EgtcjIaegubjHnxKOshEY8ysBj8n2ZD35tdPdHjJ9Na4vAfFbjlZAe8lqKEB5yjNAVQsas4uHaMUJXCBnEo4y4q/ZFPIiH2kLKEhFLRAZfdfGzXxQeKW2ora+c8YrEB4kP7vgItAEGHr8ALcGuFl0hxpEzEbQlpqHXTt/8j80OkKHtfdoRj24fFMJDfqpHhK4QMmrxD4SuEDKIR7cPqu9pSTzK0hXxKA8PftzUDxOE7SJk5MwfJD4CF72ayLREGEgtMnIauuKVoiQefgFadF2LrhDjqMU/5FWXyx/8ZtRdH8Sj3Qd1t4eUGusQukLIqMU/ELpCyCAe7T6ofmeXxKMsXRGP8vAg8eGHCcJ2ETJy5g8SHyQ+uOMj0AYQQQEhI2fgsSeFsccIXSFk1ITH+mt/P+quD+LRPkk6+dTGf22xfQqhK4SMmvzDxmeMY+LR7h9tukboCiGD/lEW5sQjDA8SH376QsQShIyc/jEhPmSgtf1EsbWNaZbHQzzK8jHiQTzGiieHTz66setj8eTMxmD6B/1jLP+ooV/6B/2jBjseawz0jzD/OLC4v/k2lZRjYEI8wvAYAwO7z5x4TIgPmwmXh7PPxzhGyBDFjvHsdp+IcdQig3j4MbpiXwjMiQfxsGNZqmOx3V27dpuH3/snc+js9VFiMP2jLNslHsQjVfyw+0HYVS0ymM/L8kHiEYYHd3z46Yvxyk9Pkke6dEXiI/A1BzspT1OsWy/mvAu8mD7dtggZTATxDuviFnNOPIhHjP10tdVYcu4HvzKrV39I4mNKjlFddeky5PoDr54wj//o9kdNtW1KGdqnWyJkMF4xXrl2l+IcYbsIGfQP+kcKf3D7QNiuyCDx4We/KDxcO0h9njNekfiYMin1AboWI0SMI6eh+2DpWwehK4QM4uGXaMQuiEe4rk79yd8Y+fn6VUg94rEdj0e+f8bIz9UjQlcIGYxX2zF3sdZz4lGWrogH8VDfTFki7Aolg//O1s9HUHiktNO2vnLmcxIfJD6aiTLCmXIaepvjDb2G0BVCBvHwSzRiJ8QjXFey20N2fQz1s2ntiMd2PJ5865yRXR+u3hC6QshgvNqOuYu1nhOPsnRFPIiH+mbKEmFXtchg/ijLB3PiQeKDxAeJj0AbYCIoK4ASjzLxkO97yHc+5HsfKSd70hcC85yJOVRfu3fvbj4Md+/V5W26RugKIWOW8JiGH0JXCBnEo6y4SzyIx7S4M/QeIpYgZNA/6B/qAyQ+Ahe9qjgtEQ5biwwGHgYe9ZuUJf2jLLtSPPYtrpvLH/7W7Dm4um0xHou/yojtZ1r7WYpX86tzDfFx+NSBbbpG6AohY5bwmGZXCF0hZBCPsuIu8SAe0+LO0HuIWCIy+KqLn/2i8BhqL77tcsYrEh8kPpqJMsKZchq6rzP61EPoCiGDePglGrEJ4hGuq7mFEw3xIaWPX4XUIR5b8Th0fONfAUrp6hGhK4QMxqutmLs42+fEoyxdEQ/iYftnqmOEXaFk8OOmfj6CwiOVjXb1kzOfk/gg8UHiI9AGGHj8ArQEvFp0hRhHzkTQlZyGXFddkfjo9xPV1RA9221IfPTr2tZX13EqPLr6l+u1yKgtXk3DLPYeAnPi4R8DiEdZuhI8SHz4YYKwXYSMnPGKxEfgotdNgAgDqUVGTkN3cYs5Jx5+AVp0XIuuEOOozT9IfPT7SSq7mju4xzz4jZNGSje2pZLh9mufI2TU5h+2/lIfE49+31OdI3SFkEH/KAtz4hGGB4kPP30hYglCRk7/IPFB4oM7PgJtABEUEDJyBh6ddKYoEbpCyKgNDxIf/RMZhF3VIqM2/0gR+7r6QGBOPPr9W/EhHmXpiniUhweJDz9MELaLkJEzf5D4CFz0aiLTEmEgtcjIaeiKV4qSePgFaNF1LbpCjGNxYcE8d+fnzM8/++nRfrc+/5nR+tbnVhm3vnCn+dtLrxkp9V6qUmWk6q+tnw+/8Nnkz+3KQYyjBhniF+IfKeL3tD4Qfl6LDObzsvIg8SAe02Lb0HuoeEXiw89+UXgMtRffdjnjFYkPEh/c8RFoAww8fgFaAmAtukKM45XdXzTmU3fwRx3QBlps4OXdXyTx4ZmrEPEq58TVd3LtUw+hK4QM4lHWvIR4hOFB4sNPX4hYgpCR0z9IfHhOJLoSKMJAapGR09C78BtynXj4BWjRbS26QoxDdhiQ+CDxQxtot4H/8zO/S+LDc76CiFfM52XlQeJBPIbMZ/vaIGKJyOC/s/WzXxQefXYRez9nvCLx4TmR6AK5FiNEjCOnoXfhN+Q6QlcIGcTDL9GIjSDwcIkP97WIFOfI1x74qkv/K0up8Pjgi//K/M8P/HsjpWsnqWS4/drnY8mwSaC/+nf/PYkPz/kKIl4xf5SVP4gH8Rgyn+1rg4glCBn0D/qH2jqJD8+JhCrMLREOW4sMBh4GHtd/UpzX4h828SGLyhS6cftA6oofN+3391R41PrvbMUPlPwQ/3DtOfV5KjymPVctMpjP+/1b7QCBOfEgHmpvKUuE7SJk0D/oH+oXJD5IfDSTSQaesoIC8dh5eJD4KAvzWZookfjwtx2d/LSViLhbi4xZ8o82rPUa8fD3nVp0hRgH/SPMrviqi5++ELaLkJHTP0h8kPgg8RFoA4iggJCRM/DopDNFidAVQgaJD7/ELzaDwGOW/IPEh7/tTIs5CLuqRcYs+cdOwJx4+McAhA8SjzA8+HFTP30hbBchI6d/kPgIXPS6CRRhILXIyGnoLm4x58TDL0CLjmvRFWIcJD7KsqtZilckPvxtZ1rsR/h5LTJmyT92AubEwz8GIHyQeIThQeLDT18I20XIyOkfJD5IfHDHR6ANIIICQkbOwDNtIhp6D6ErhIzaiI+79x00x576iZEyFNO++gg8Zsk/5g7uMQ9+46SR0tUdQldjyeA3PvwmwzkwnyX/cPVjn49lu2gZxMPfVxCYE48wPEh8+OkLYbsIGTn9g8RH4KLXTmZyjDCQWmTkNHQXt5hz4uEXoOkf/noSXfURHzdu3DD8UQc12sD8/Pw2wkZ8gsRHWAzRvIbIUczn/tgQj7J0RTzKw4PEhx8mCNtFyMiZP0h8kPjgjo9AG0AEBYSMnIFHJ+gpSoSuEDJ8iI/19XWztrY2c7/V1dWZe+ZZ1POsPbPYsxA5JD78Jr2+8RIRr5g//DEjHmXpiniUhweJDz9MELaLkJEzf5D4CFz0uhMPhIHUIiOnobu4xZwTD78ALTquRVeIcfgQH7KwXVxcnLnfoUOHZu6ZZ1HPs/bMx48fJ/EROQdpy2WIeMV8XlYeJB7Eoy0WxF5DxBKRQeLDz35ReMTaTV/7nPGKxEfkpKMWI0SMI6eh9zlhyH2ErhAyiIdfohHbQOBB4mP2CJ1ZIxpKe14SH/4xqLQcxfzhjx0ifxAP4hESI3zrImxXZPDf2frZLwoPX/sYWi9nvCLxQeKDr7oE2gADj1+AloBYi64Q4yDxQeKjNGJi7Och8eEfS0MmmIh4lXPiGqKLvroIXSFkEA9/XyIeZemKeBCPvjg95H6XXU2ID6lQ208SQW1jmuXxEI+yfIx4lIWHTXzc+vxntsUu+RYCX3UhOTI2GYHs3yU+3PwmfmA+dUfzE/9w7/M8Xwxj/sin+za7Jx7Eo80ueG3DLugf9A/1hQnxYbMpctM+H+MYIUMMfYxnt/tEjKMWGcSjLFaXeJSFh018yH+zsOOMHAcTH0tLZvH4CbN0cr35yfGiXMvwjRB+44OETZvducSHa/P8ry7+McrWHWLOwPzhjw3xKEtXxKM8PPiqix8mCNtFyMiZP0h8BL7mYE8u5BhhILXIyGnoLm4x58TDL0DTP/z1JLpKRXwsPfGMWX7jg6k/qdO2EB3rGokPEh9ttkXiIyxG+OYtRI5iPvfHjniUpSviUR4e/LipHyYI20XIyJk/SHyQ+OA3PgJtABEUEDJyBh7fCbxPPYSuEDJiiY+lzd0cSy+9MZX0EFJE6shCVNu0LUpTXiPxQeKjzZ5IfPhNdn3ioF0HEa+YP/yxIx5l6Yp4lIcHiQ8/TBC2i5CRM3+Q+Ahc9NqTCzlGGEgtMnIauotbzDnx8AvQ9A9/PYmuYoiP5ZUVc/XpZzfIjADiQ9pI27ZFacprJD76iY9rb39iPvrFG+bcwsLoeKTENqYvEh9hMcI3byFyFPO5P3bEoyxdEY/y8CDx4YcJwnYRMnLmDxIfJD644yPQBhBBASEjZ+DxncD71EPoCiEjhvh47quvmBe/fjOY+JA20rZr8bq8tmjWn102526smJNPLpulpf4FfFtf04iPczd/aT76+H1zrWXBv7Dwgnnz40/Muzcvdj5jm7yh1xauv2/++u/+cfJDEhEpiQ/pyx6HHKN0GKJ7Eh9+k12fOGjXQcQr5g9/7IhHWboiHuXhQeLDDxOE7SJk5MwfJD4CF7325EKOEQZSi4ychu7iFnNOPPwCNP3DX0+iqxji4wfvvLeN+Fi8+Y6Ze+iq2bVy0uxeutfsPnrazD/5oln+3l9OXnUR4kPati1Wj51dMg//5Kg5eWW5uX/h9VXz0A9WW+u2tbevpSQ+lAx58/rWnRFd1+3nmHbcRsAIEYIiDIYQH11jdvtauPCGeRdIIE3Ts32PxEdYjPDNW4gcxXzujx3xKEtXxKM8PEh8+GGCsF2EjJz5g8QHiQ/u+Ai0AURQQMjIGXh8J/A+9RC6QsgYSnwsLy835IW94+PIa++Y3WtnGtJj/rHnzME//LqZe/grZvfaaXPkm29tIz6kD3tBKsdrF5cb4uP4hY3/BHP2ayvm4o/qJD6UQECRHK6u5dwlK9rquNf0uV0SqK2v5trbL2zD2e0TeU7iw2+y6xMH7TqIeMX84Y8d8ShLV8SjPDxIfPhhgrBdhIyc+YPER+Ci155cyDHCQGqRkdPQXdxizomHX4Cmf/jrSXQ1lPg4e+6BbcTH3IUrZtfKfebwjR9v+dDp0uu3mnP9uKnu+JA+3AXv2sWNHR/HHlgyqyeXzP2vrJqLf77aHMu5/XPbuuepdnzIroy2Vzi6rstzTEiAzV0P2v4jiwRQAsG+5o5Bz3X3xKQf57scKu/a5rPK6zJ//Fb79zu0rnzXwz72keU15s3XhxYWLpqXf/GJccfXNxZtNxmr9UqS3pM+7Wfpem1Jx2SXJD7CYoRv3kLkKOZzf+yIR1m6Ih7l4cF/Z+uHCcJ2ETJy5g8SHyQ+uOMj0AYQQQEhI2fg8Z3A+9RD6AohYyjxcfGRx7cRH7tXT5n5x5/fQnrY/+LWJT6kD3tBKsdrl24TH/LKy7Sf29Y9T0V8SL9KUri7HLquC6EgC3f7ex264LeJgEk9ixBxxyGvvnz08S/Nyxc2XrOZLP4t8qOtH7ddM45NIkbH4RIfbps2WdPGvGW8zXNv/Y6KT//nbr7fOVZ9HtGt7pTR57H16urQPifx4TfZ9YmDdh1EvGL+8MeOeJSlK+JBPOx4meoYYVe1yMiZP0h8BC56XQepxQgR48hp6C5uMecIXSFkEI+ykn9K4kO+6zH/2LNRxIe9QJ1Gesg9u27bcR/xoTsKukpdWEvfurhWwkDldV1vCAVrp4LWl10K7u6ELTsXHAJEF/rb5DYExm0ypE2etrXH4cq3iQ+t3ydr2phdXdqyfftXXWm5QZZsECjah02wSD13XNq2rSTx4R+DQnIW84e/XhG6QshgPi8Lc+JBPEJitm9dRCxByMjpHyQ+SHxwx0egDSCCAkJGzsDjG+R96iF0hZAxlPhofdXl4peb73scfuVHW8iPwy993/tVF3uhOjbx4RIQKlsX9lsX7Rv/6WUbKbD5H2Dc6zahoP1K6e54sO9JGyEOtuzucF6VcYkFldslryEENneGKGlgj8tupztSXBl6rrJUP3quY7D7asaqr7qofM+xSFvVhcpWrHQM7u4OEh/TJ/yIWIKQwfwxHWc7dxGPsnRFPMrDg6+6+GGCsF2EjJz5g8RH4KLXTmZyjDCQWmTkNHQXt5hz4uEXoOkf/noSXQ0lPto+brr4rZ9NPm66/5FnzPxTr5i58483/93l4Avf8fq4qS6ipdxpxMcWsmBzt4iSES7JYOtJjl3SQe/b7TeOb+8ScdvZdbV9W+lLfEhbm+jx6V/7VqLjdh/Ojg9nZwyJj+l+z/wxU1SzAAAAIABJREFUXT92bq5FV4hxcH5Vll0RjzA8+HFTP30hYglCRk7/IPFB4oM7PgJtABEUEDJyBh57cht7jNAVQsZQ4kMWpK3/zvZbPzNzmzs/mn9ne+95M//0173/na290J554qPlVZcugsIe99ZXOzZ2mti7NOy6ejyt3+be5sdA3Z0SdjslHfpkaT2XjLH70ufaQnxs7o6Z1r9dX/uwSQ3u+PCbqLrxDRFLEDKYP/zxJx5l6Yp4lIcHiQ8/TBC2i5CRM3+Q+Ahc9NY6iand0F3cYs4RukLIyBl4YvTvtkXoCiEjhvh47quvGPvf2dofMm07tj9uKm11YdtVnn9txUz7dbXT633f+LB3FWgbKXVhby/Q26511ZXrQgLIaxo20SCLermmhMFGn1t3YLQt7GXhb7dr5MprI9auhzbSQeo1dTc/jvruLz6ZyNZ7bjsfWV26cPuajMX6CGtf/9t0tPl6jGI16dMau4zFJkd0bF0lv/HhN9l1Y17fOSJeMX/4Y0c8ytIV8SgPDxIffpggbBchI2f+IPFB4oM7PgJtABEUEDJyBp6+iXvIfYSuEDJiiI/llRVz9elnm8W1kBptZId9TYkPaSNtuxamqa6nJD7kmXRRLiTEFlJkk9CwrysJoP9eVu655EXT5+YuCL1v92HrQQkDred+3FPlyb+otdvZMtw2cq+tXZ+sps+OMevzaWkTP/pcff3b95tntv47DIkPv4mqG8sQsQQhg/nDH3/iUZauiEd5eJD48MMEYbsIGTnzB4mPwEVvrZOY2g3dxS3mHKErhIycgSdG/25bhK4QMmKID1nILi0tBRMf2kYXwmOV04iPsWRqv22Egt5jubETJZceuOPDb7Lrxry+c0S8Yv7wx454lKUr4lEeHiQ+/DBB2C5CRs78QeKDxAd3fATaACIoIGTkDDx9E/eQ+whdIWTEEh+6eF164pn+HR9PPLNtN4K2H6Mk8ZGXYBgD0xR9kvjwm+yGxEOpi4hXzB/+2BGPsnRFPMrDg8SHHyYI20XIyJk/SHwELnrdCQjCQGqRkdPQXdxizomHX4BGTcBrwSMV8TFZkMoOkOMnzNLJ9eYnx4ubu0ImdTa/PTH2OYkPEh9tNkbiwz+WhuQsRExkPvfHjniUpSviUR4e/He2fpggbBchI2f+IPFB4oM7PgJtABEUEDJyBp6QSXxfXYSuEDKSEx8gUqNtQeteI/FB4sO1CTkn8eE32e2Lge59RLxi/vDHjniUpSviQTzcmJniHGFXtcjImT9IfAQuel3nqMUIEePIaegubjHnCF0hZBCPspI/iQ+SA23kQM3XSHz4x6CQnMX84a9XhK4QMpjPy8KceBCPkJjtWxcRSxAycvoHiQ8SH9zxEWgDiKCAkJEz8PgGeZ96CF0hZJD4IPFRM8nRNjYSH/6LA59YqHUQ8Yr5wx874lGWrohHeXjwVRc/TBC2i5CRM3+Q+Ahc9OrEQkuEgdQiI6ehK14pSuLhF6BF17XoCjEOEh8kPtrIgZqvkfjwj6UhuQsRr5jP/bEjHmXpiniUhwc/buqHCcJ2ETJy5g8SHyQ+uOMj0AYQQQEhI2fgCZnE99VF6Aohg8QHiY+aSY62sZH48Jvs9sVA9z4iXjF/+GNHPMrSFfEoDw8SH36YIGwXISNn/iDxEbjozTHBQBghQkZOQ3dxizlH6Aohg3j4JRqxFQQeJD5IfLSRAzVfI/HhH4NCchYiXjF/+GNHPMrSFfEoDw8SH36YIGwXISNn/pgQH/IQ/FEHtAHaAG0gjw3YxIccuzjcuHHDrK+vN/8JQxaMs/RbXV2dqeedJd3O8rOKPYtdz8/PNzsPXZvv8wm3Ps/zxC7qnXqnDdAGYmxg5cSSufrT80bKmH7YlnbYZwMT4sP+awKC7UHIkMHb4xrjGDGOWmQQDz9GV+wUgTnxKAsPe5H3889+elvskgUif+Pr4NVvfse89Po71DXQ3pT4cHO0+IH51B3NT/zDvZ/6HBF3a5HB/FFW/iAexCN1PJT+UPGKOz787BeFxxi2ZPeZM16R+OCrLs1kEuFMOQ3ddrjYY4SuEDKIh1+iEXtB4NFHfMjikL/xdXDi+jvm3Hf/N+oaaG9dMZnEh3+MsnWIiFfMH/7YEI+ydEU8ysODxIcfJgjbRcjImT9IfJD4IPERaAOIoICQkTPw2JP02GOErhAy+oiPWD1Je8Q4ZlnG3fsOmos//7/N5Q9/a44+8DR3GHjGxrEwJ/HhNxl2Y8NYeNhymD/8sSEeZemKeJSHB/+drR8mCNtFyMiZP0h8eE7s7IRvHyMMpBYZOQ3dxiz2mHj4BWjRcy26QoyDxEd+u1q99uOG9BDi4/yf/u8kPjzz41j+QeLD3yfsvDYWHrYM5nN/bIhHWboiHsTDjmWpjhF2VYuMnPmDxIfnxK7LMWoxQsQ4chp6F35DriN0hZBBPMpK/iQ+8uJh7/YQ4kN+B+59bFTyA+HnsyyDxIe/T9i5DIE584c/NsSjLF0RD+Jhx8tUxwi7qkVGzvxB4oPEB191CbQBBp6dlzQRmJP4yGtX9m4PJT7OfPsfSHx4xMex/IPEh79P2JP3sfCwZeScuNrPEXuM0BVCBvHw9xXiUZauBA++6uKHCcJ2ETJyxisSHx6TummJFWEgtcjIaejTMAy9Rzz8ArTotRZdIcZhEx/ynyxk0Zf6d+vzn0nep/uMsyjj3X/7r83/dOFl87eXXtv2+8u7do+ms1nUlYu3nI81Dv2PLlKKf4TG6tD6CD+vRQbzeVl5kHgQj9B451MfFa/4cVM/+0Xh4WMbMXVyxisSHyQ+uOMj0AYYePwCtATFWnSFGIdLfNiLPh5v/EtT6mHn6oHER1lxN+fENWbC7bZFxHaEDOJB/3BtO8U5wnZFBokPP/tF4ZHCdqb1kTNekfgIXPS6QNZihIhx5DR0F7eYc4SuEDKIh1+iEVtB4PHK7i8aLux37sKe2E/H/uXdX+SOD8/5CiJeMX+UlT+IB/GImdd2tUXEEpFB4sPPflF4dNlDqus54xWJD8+JRBfYtRghYhw5Db0LvyHXEbpCyCAefolGbASBx+LCgnn2zs+N9lrFmK8k2K8/jPXaw1gy/sPhe7e93uK+8vI/nrwyCi6zpisbA/t47HGIX4h/DInXIW0Qfl6LDOaPsvIH8SAeIbHOty4qXpH48LNfFB6+9jG0Xs54ReKDxAdfdQm0AQYevwAtAbEWXSHGkTMRDE1ebe0Qukolo+0/ueiHTd1yjP/wkmocbTjotVpk0D/KirvEg3hojElZMl6VZVcoPEh8+OGOwiOlT7f1lTN/kPgIXPS6ANZihIhx5DR0F7eYc4SuEDKIh1+iEVshHmXpKhUebf/JxSU89HyM//CSahzT4lktMhivyvJB4kE8psWdofcYr8qyKxQeJD78cEfhMdR/fdvlzB8kPkh8cMdHoA0w8PgFaAmAtegKMY6cicA3WfnUQ+gqhYyQ3R5KfqTe9ZFiHH2Y1CKD/lFW3CUexKMv9gy5z3hVll2h8OC/s/XDHYXHEN8NaZMzf5D4CFz0usDWYoSIceQ0dBe3mHOErhAyiIdfohFbIR5l6SoFHiG7PZT4SL3rI8U4+mJZLTIYr8ryQeJBPPpiz5D7jFdl2RXxIB5D/LivTc78QeKDxAd3fATaABMBE0FfUB9yP2ciGPK8XW1mwT+G7PZQ8iPlro9Z0FUXzvZ1xDjoH2XFXeJBPOwYkOoYEUsQMugf9I9UPmH3g7BdhIyc/kHiI3DRaxugHCMMpBYZOQ3dxS3mnHiUldCIB/EI9ec9+xfMgZNPtv6OXHjJCMmx9vhrrffnjpxM9t9FarFdxDiYP8ryc+JBPELjrk99RCxByKB/hPkHX3Xx0xfCdhEycvoHiQ8SH9zxEWgDiKCAkJEz8PhMgHzrIHSFkEE8/BK/2MWYeMwtnGiIj+WTF5IRHF22POY4VGYtMugfZfiH2hXxIB5qCylLxquy7AqFBz9u6oc7Co+UPt3WV878QeIjcNHrAliLESLGkdPQXdxizhG6QsggHn6JRmyFeJSlqzHxIPHhj7XG0THxUBmMV/64EI+ydEU8iIfGsZQlwq5QMkh8+PkICo+UdtrWV858TuKDxAd3fATaAAOPX4CWYFeLrhDjyJkI2hLT0GsIXY0pg8SHv3+rjYyJh8qgf/jjQjzK0hXxIB4ax1KWCLtCySDx4ecjKDxS2mlbXznzOYmPwEWvC2AtRogYR05Dd3GLOUfoCiGDePglGrEV4lGWrsbEg8SHP9YaR8fEQ2UwXvnjQjzK0hXxIB4ax1KWCLtCySDx4ecjKDxS2mlbXznzOYkPEh/c8RFoAww8fgFagl0tukKMI2ciaEtMQ68hdDWmDBIf/v6tNjImHiqD/uGPC/EoS1fEg3hoHEtZIuwKJeOeI3Pm6k/Pm70H7h7l21rMH2X5YE48SHwELnrdoIUKCq7c1OeIceQ09JT6QugKIYN4MBGk9AvtC2G7Y8og8eHvF0jMGa/8cRnTPxRz4kE81BZSlgjbRcigf4T5x+L9B80Tf37/KKSH2CfxCMMjpU+39ZUTDxIfJD644yPQBhBJEyEjZ+BpC4RDryF0hZBBPMpIzCQ+/HFQn6V/+OsMoSuEDMarsjAnHsRD43HKEhFLRMbimYNm/foqiY+e9QgKj5Q21NZXznhF4qPHyNoAs6/VYoSIceQ0dBuz2GOErhAyiAcnSrG+0NYeYbtjyiDx4e8Xiv+YeKgMxit/XIhHWboiHsRD41jKEmFXtchg/ijLB3PiMSE+xLhr+4liaxvTLI+HeJTlY8SDeMxyPBnr2eeX7zOXP/ytWT55gfmjoHkB4xXj1Vg+X0O/9A/6Rw12PNYY6B/0D7WtCfFhs5By0z4f4xghQwx9jGe3+0SMoxYZxIOMq+07qY7pH2XZ1azjwR0f/vakPozAnPnDHxfiUZauiAfx0FiZskTYFULGwomD5pHvnzZ79o3zYVPROfNHWT6YEw8SH3zVhd/4CLQBRCJAyMgZeJj8tych4rFdJ112MqZ/kPjwx0HxGRMPlUH/8MeFeJSlK+JBPDSOpSwRdoWQ8cAr95rzL58Y9Q/VzB9l+WBOPEh8BC563aCFCAq1yMhp6C5uMefEo6wASjyIR4w/u2337D9iHv7g1+ber/xg1ImYyK3FdhHjYP4oy8+JB/FwY2eKc0QsQcigf/j5x/zKPnP1nfNGyhT209UH8fDDQ/RXu3+Q+CDxwR0fgTaACAoIGUwETARdk4SY6wjbHVvG4sPfNJc/+C9Gyhhd9LUdexwivxYZjFeMV33+NOQ+/aMsuyIeOwsP2ekhOz6G+G5IG+aPsuwqJx4kPgIXva6j1RKkEePIaegubjHnCF0hZBAPJoIYP+hqi7BdhIwTV783OvmBGEctMhivGK+6Yk7MdfpHWXZFPHYGHrLDQ0gP2e1x+PgBEh+ea1H6R7x/kPjwNLauxFqLESLGwYlrvMN22eGQ68SDeAyxm742iFiCkCH+ITs+5LWX9df+3uw/+mDyyRliHLXIYLxivOqLPUPu0z/KsiviUT8eu/fsNo//6GxDfAgBgsCc+aMsu8qJB4kPEh/NZJ6Bp6ygQDyIx5BJfF8bhF3VIkMTsxAeQnzIv7iVcv7EI0Y+gJriJ/86N0U/0/ooXcbeQ8e8CCXFo8/GY+7XYruIcQzBY+7gHrPv0N5tv7kDeyY2sOeeuyf3DyzunxxLu656bp8h9VRXttyY/tT+7P4Q41A8bLmzOA7iUYd/3LMwZ46sHzDHH100Z184bi5++5R58BsnJ36+d//t/+CimKvvjFGqf4zRt/aJGEctMnLiQeKDxAeJj0AbYODZeaQEAvOciUATd4oSoSuEDBcPmwAREoS/dDq4dOs/m3Nv/sqcevlvzcqVPzOHzz5j9h46Ppkki126eKSwVbcPhF3VImMaHkJwyKJn9eLCBMPTzx8zV396vvX36J+duV3vOWw9xeM0WK7aXiq5ikeq/lI/n29/xGO7j8yqfzz51rmG8BDiQwiQhVPzEz9Xe5BSMbevpT5W/0jdr90fYhy1yMiJB4mPwEWvbeRyXIsRIsaR09Bd3GLOEbpCyCAeZRE4xGM28NhzYDnZLo3Sd2NM20li34sZx77F+xqiQwgPIT6EABEiRHfY6CtG9I/y/WPy3v5PzxtZ9Dx085S5a9fGc88d2mPkr8DuLgQ579qhgdgpobl21ndKqH/M+jiIRx07PoT89J1nK+a+9YfUU/8Y0ta3DWIctcjIiQeJDxIfTXBCOFNOQ/cNXD71ELpCyCAe5S8kfOwxpA7CrmqRQf/I6x/zaw9vecVo9ewV74l0iE/YdWuxXcQ4bP+wCQ/5YOHBY/ckwQoxjlpk2HjYNp3yuBZdIcZBPPLmD9fuiQfxUJsg8UHig8RHoA0gkiZCBhMBE4EmgpQlwnYRMugfZfjH5BWjD349ygdmbdtH2FUtMtQ/5C+7T751/+RDhbY+Y49r0RViHIpHrM6ntUeMoxYZxKOM/KH2TDyIh9oCiY/ARa8qTstagjRiHAw8DDzqNylLhO0iZNA/6B8p/UL7QtguQsa51/+XZgeIjmuMEjGOWmTY8WrvvP+29hDcatEVYhw2HiE6DqmLGEctMogH83mIb/nWpX/E2xWJDxIf3PERaAMMPPGBxzfI+9QjHsTDx05C63DiWpZdyasulz/4zai7PmqJJYhx0D/K8g/iQTxCc5xPfUQsQcigf9A/1N5JfAQuelVxWiIcthYZDDwMPOo3KUv6R1l2RTyIR0r/1r4kf8i/E5afXktd1mK7iHEIHvd/bc2sPnT7P7cQj3bfR+GRWv9uf4hx1CKD8912X3BtSs4RmBMP4qG2R+KDxAd3fATaACJII2QwETARaCJIWSJsFyGD/lGef8wfv9Ts+nD/1W0q+0XYVS0yltcWzdV3zpsDR9N8yLQNw1p0hRgH41V58arNplNeQ9hVLTLoH/QP9T0SH4GLXlWclrUEBcQ4GHgYeNRvUpYI20XIoH/QP1L6hfaFsF2EDPGPXbt2m4ff+ydz6Oz1UXZ9IMZRi4x7Lx5t/mXtrl27RsFC7LcWXSHGwfzB/KExP2WJsF2EDPoH/UP9gsQHiQ/u+Ai0AUSQRshgImAi0ESQskTYLkIG/aNM/zj3g1+Z1as/HGWxjbCrWmSceWrNXPrOfaPgoPGoFl0hxsF4VWa8Ulseo0TYVS0y6B/0D/VBEh+Bi15VnJa1BAXEOBh4GHjUb1KWCNtFyKB/0D9S+oX2hbBdhAz1j1N/8jdGfjq+lCViHLXIuPDSKXP2heOj4KCY1qIrxDjUP1R3Y5SIcdQig3gwn9MHu20gp3+Q+CDx0UxcEMkmp6GnDEAIXSFkEI/uoOzaC/EoS1fEY+fiIbs9ZNeH66MpzhF2VYuMR/70jFl7fHEUHBTLWnSFGAfzeVkxkXgQD41jKUtELEHIyOkfJD5IfJD4CLQBRFBAyMgZeJgItk8KiMd2nXTZCf2jLF0h8ZDve8h3PuR7H132MfQ6Yhw1yJDvejz51jlzZP1Acgxs7GrQlYwHMQ7mj7JiIvEgHnYsS3WMiCUIGTn9g8RH4KLXNV6EgdQiI6ehu7jFnBOPshIa8SAeMf7c1Zbxqiy7Ujz2La6byx/+1uw5uJp80V1LLBl7HLv37DZnnz5h5g7sSY6B7Y9jj0Nk1SJD/cPWX+rjWnSFGAfxKDN/pPYJuz+EXdUiI6d/kPgg8dFMXBDOlNPQ7eAUe4zQFUIG8WBijvWFtvYI20XIoH+U6R9zCyca4kPKNvuLuYawq1pk0D/K9I8Y++9rW4vtIsZB/6B/9PnTkPsI20XIyOkfJD5IfJD4CLQBRFBAyMgZeIYE/K42CF0hZBAPTpS6bDzmOsJ2ETLUP0h89PsJEo8Y2+xrixhHLTLUP/p0GnO/Fl0hxkE8+uOU2iLxKEtXteNB4iNw0auOqiXCQGqRwURQVnAjHsRD41jKkvGqLLuqDQ8SH/32NTbm+w7tNVd/et5ImTJ2uH2NPQ6RV4sM5vN+v1D7QmBOPIiH2lvKEmG7CBk5/WNCfMhAa/uJYmsb0yyPh3iU5WPEg3jMcjwZ+9npH2X6x/zyfc2rLlKObQPsv90GDizub4gPKamjdh2h9cJ4VQYOijvxIB5qCyy320JO/5gQHzYjJSDZ52McI2SIYsd4drtPxDhqkUE8yIDbvpPqmP5Rll0RD+KRyrftfjR/cMdHv32N7YPc8dGPgW27Y+MhstQ/bLmpjxHjqEUG8fD3EQTmxIN4aDwk8cFXXfiNj0AbQARphAwmAiYCTQQpS4TtImTQP8r0DxIf/biM7R8kPvoxsGPq2HiILMYrf0yIR1m6Ih7Ew46XqY677IrER+Ci1wWkS7FuvZjzWmQwMZcV3IgH8YiJS11tGa/Ksqva8CDx0W9fY2NO4qMfAzs+jo2HyGI+98eEeJSlK+JBPOx4meq4y65IfJD44I6PQBvocqZUzir9IGRwolRWsiEexCNlDNG+ELEEIUP9g8RHv5+MjQeJj34M1P+Yz8vT1dj+IZhrvLLtIPUxYhy1yCAe/n6IwDwnHiQ+Ahe9buBCGEgtMnIauotbzDnxKCuAEg/iEePPXW0Zr8qyK8WDxEc/LmPHRBIf/RjYcWVsPESW+octN/UxYhy1yCAe/j6CwJx4EA+NhyQ+SHxwx0egDSCCNEIGEwETgSaClCXCdhEy6B9l+geJj35cxvaPu+d2m7NPnzBSpowdbl9jj0Pk1SKD8arfL9S+EJgTD+Kh9payRNguQkZO/yDxEbjodQ0YYSC1yMhp6C5uMefEo6yERjyIR4w/d7VlvCrLrhQPEh/9uCBiouLR5T8priPGUYsM4tHvF2qTCMyJB/FQe0tZImwXISOnf5D4IPHBHR+BNoAICggZOQMPE8H2SQHx2K6TLjuhf5SlKyQeJD76sUfi0eWjKa4jxlGLDOaPfr9Qm0RgTjyIh9pbyhJhuwgZOf2DxEfgotc1YISB1CIjp6G7uMWcE4+yEhrxIB4x/tzVlvGqLLtSPEh89OMydkzkNz76MbDjyth4iCz1D1tu6mPEOGqRQTz8fQSBOfEgHhoPSXyQ+OCOj0AbQARphAwmAiYCTQQpS4TtImTQP8r0DxIf/biM7R8kPvoxsGPq2HiILMYrf0yIR1m6Ih7Ew46XqY677IrER+Ci1wWkS7FuvZjzWmQwMZcV3IgH8YiJS11tGa/Ksqva8CDx0W9fY2NO4qMfAzs+jo2HyGI+98eEeJSlK+JBPOx4meq4y65IfJD44I6PQBvocqZUzir9IGRwolRWsiEexCNlDNG+ELEEIUP9g8RHv5+MjQeJj34M1P+Yz8vT1dj+IZhrvLLtIPUxYhy1yCAe/n6IwDwnHiQ+Ahe9buBCGEgtMnIauotbzDnxKCuAEg/iEePPXW0Zr8qyK8WDxEc/LmPHRBIf/RjYcWVsPESW+octN/UxYhy1yCAe/j6CwJx4EA+NhyQ+SHxwx0egDSCCNEIGEwETgSaClCXCdhEy6B9l+geJj35cxvYPEh/9GNgxdWw8RBbjlT8mxKMsXREP4mHHy1THXXZF4iNw0esC0qVYt17MeS0ymJjLCm7Eg3jExKWutoxXZdlVbXiQ+Oi3r7ExJ/HRj4EdH8fGQ2Qxn/tjQjzK0hXxIB52vEx13GVXJD5IfHDHR6ANdDlTKmeVfhAyck+Ubty4YfijDmgDW21gfn6+icmp4okbS2Zd369+8zvmmR/+nZFy1scyq8//6jdeMX/0/aeMlLM6Bn3u1P7W5reuD7bVib2WO5/HPr+2R+gKIYN4lLWYJx7EQ2MMiY/ARa8qTktEAK1FBgMPA4/6jZQy8VxfXzdra2sz91tdXZ25Z55FPe+kZxZfEJ9IvRBz8wf9bvbizU7yA9RYx/I3O8fpseuDej1lyfkV51cp7Un7QtguQgb9g/6hNk3ig8QHd3wE2gAiSCNk5E4EsgCTSe7i4uLM/Q4dOjRzzzyLet5Jz3z8+HEY8UG/m72Ys5N8ATHWsfxNJ9d2uRPyuT3emGOErhAycs+vYjCw2yJ0hZBBPEh8qF2T+Ahc9KritEQ4bC0yGHgYeNRvpCTxwcUXYoEzKzLGWoi5+YN+R7+bFZ8Y8znH8jc7x+mx64N6PWXJ+RXnVyntSftC2C5CBv2D/qE2TeKDxAd3fATaACJII2TkTgRcgHEBNubCZtb6Hmsh5sYS+h39btZ8Y4znHcvfdHJtl64P2vdSHefO56nGgdAVQgbx4EI7lU/Y/SBsFyEjp3+Q+Ahc9NoGKMcIA6lFRk5Dd3GLOSceaRIaF2BcgI2xoJnVPsdaiLnxin5Hv5tVH0n53GP5W9vcwvXBtjqx1zi/SjMvicVB2xMP4qG2kLJExBKEjJz+QeKDxAd3fATaACIoIGTkDDySCIIXYMuL5uiZJbN2cbn5yfHicp5FDL/xkUfvKRc+pfU11kLMjSXBfre0ZBaPnzBLJ9ebnxwvyrUM3+ah39HvUtndWP7WtshxfbCtTuy13Pk89vm1PUJXCBnEg8SH2nTKEmG7CBk5/YPER+Ci1zVghIHUIiOnobu4xZwTjzQJzWcBtrSyZNafXTYPfn916k/qSN1Uk+K+frgA4wKsz0ZC74+1EHPjlY/fybMvPfGMWX7jg6k/qRM6zpj69Dv6XYz92G3H8re2uYXrg211Yq9xfpVmXhKLg7YnHsRDbSFliYglCBk5/YPEB4kP7vgItAFEUEDIyBl4JBH0LcCWjy+a+19dmUp42ISI1JU29uR2rGMuwDB6Hgu/EvsdayHmxpI+v1va3M2x9NIbU0kPIUWkjuhS24ytV/od/S6VjY3lb22LHNcH2+rEXsudz2OfX9sjdIWQQTxIfKhNpywRtouQkdM/JsSHDLS2nyi2tjHN8niIR1k+lhuPaQuwpZUw0kMJECE/pG2qyXFXP1yAja/jLt32a5PYAAAgAElEQVSnuH7t7U/MR794w5xbWBjdVnyf112IjRXrp/nd8sqKufr0sxtkRgDxIW2kre9Yh9aj38X5XWP3b78wOk5D8UX6pe1vY/kast/c+Rw51lmQRTw4350FO831jDn9Y0J82IyUKMI+H+MYIUMUO8az230ixlGLDOJBBtz2nWkLsLbXW86/vmJOXD9gli/vM0cu7DVHn9xvTr98ZNuOEGnbNfFeXltsXp05d2PFnHxy2SwtDVtI9C3AFq6/b/767/5x8ittkd2ln5TXm0XMx++baw65sHDhDfPux5+Yd29e3ILTwsJF8/IvPjEfjbwwm8gpnPiwfSXm2M0f0/zuua++Yl78+s0Gl5AdH9JG2nbZD8Lvzt385cTfbN9783o55FaXflDXfYiPnLErF/ER418+bV0f9GkTWofzK86vQm3Gpz7CdhEy6B/0D7V3Eh+Brzmo4rREOGwtMhh4GHjUb6SctgDTHRxa7lv+ojl2bd5ceGPrtz7O3lg08yd2bbvetpA4dnbJPPyTo+bklQ1i5MLrq+ahH6x2Ltba+tBr04gPWYB95Cz4ZTHhLvS1r1pLGfNHH//SvHxh68JTF6guGaSEyE5dqNp/gbb9JPbYzR/T/O4H77y3jfhYvPmOmXvoqtm1ctLsXrrX7D562sw/+aJZ/t5fTl51EeJD2rbZck6/a3uenXytj/jIHbuGEB8LCy+YNz/+xITGjbH8rc1fXR9sqxN7jfMrzq9ibaitPcJ2ETLoH/QPtW8SHyQ++I2PQBtABGmEjNyJoHMBtry4ZRfHuW8vm6NP3NNce+BPV8yJZw42uz6OXtlvzn5j0ay/tGDu++rCljZt/+1F/huMEB/HL2x8BPXs11bMxR+lJT50Er7TSI62xWSbLnS3xZs3ZdfH1t0gXURJW981XhtrIebGki6/W15ebsgLe8fHkdfeMbvXzjSkx/xjz5mDf/h1M/fwV8zutdPmyDff2kZ8SB8uNgi/E5lti3b3WXb6+TTio81f0foi8eG/ONFJvJa587k+R2zpxqvY/traI2QQD39bJh5l6ap2PEh8BC563SCKMJBaZDARlBXccuPRtQA7enZpC4lx/Cvz5vx3VswDr6+YA6d2Nb9jV/cb2QWihMfqYxvEiO4QkT7cSfvaxY0dH8ceWDKrJ5fM/a+smot/vtocy7n9c9u65107PnTxMO11Da3jkiPupH9yvvlqiG7fd/sOrXdt85UAe8eF7raYyHBeA9Fn1vv2X1e77inJsUVO89dZ2QWy/a+0k3Fsvhqj7VWmu4tG69vjuf/wQ5PXZXRnibTvaivf+FA5otdpbcQG3NcA3r35wkSe2kiXPvR+V5mb+Dh77oFtxMfchStm18p95vCNH2/50OnS67eac/24qe74kD7c8SH8TmT2ER9t9mLjP9XOXNvY9I9ee3F91/IrfR77OzOd16zXv1xflee2/VF0of3YviFymutWX3Iu7SUWqd268cXFU87dZ7B9vEv+H7/V/l0dfdbJ81k66pNl61/xc+Nq2/PLtbH8zZ0jyjliDpc7n7eNe8g1hK4QMogH57tD7L+vDcJ2ETJy+geJDxIf3PERaAOIoICQkTPwSHDvIj5koaQEhpTyTQ8p156ab8iOM99YNKdfXmiOZbeH3Ft8cO+WNtKHO+Fdu3Sb+JCdH9N+blv3vIv4kHq6mOhaQOgCw52g2wuALf1YCwFdcNh9T+T51rMWPiLH3WkxIQI2+2t73ms3Nz4MOu2e9O0uRhtZm/3Kc6sO2vo5d/P9yWsy7jNt0Y81Hq2ni7lmfJtb4V2d6WLNt40usuxF5kT3m8/QNg7VlTzLtN9YCzE3lnT53cVHHt9GfOxePWXmH39+C+lh/4tbl/iQPtwxovzOtTX3OVys9L6vnU1s1SIz1KYUdz2Xvnv9ynkVbNKH9XqY2qbanBJvet7IaflmTtdY5bo+o489q47ssm9cUrdNvtvOfnYdT/N8dhzbpqPN7wDZdfiqSzOHy53P+xZsvvfdeOXbLqQeQgbxIPERYpO+dRG2i5CR0z9IfAQuel3jRBhILTJyGrqLW8w58UiT0LoWYC7xcWST1Dh65R5zz+qXzIXvrZrjX94gQU6/eqTZDSL3bLKkjfiwJ+/TSA+5Z9dtO55GfEh9XVTIAlwXGtqPLnB0IaXX3Ul/c+68DqJ92zsYYuq5Cyt9lg2CZeP7HEq26OJE60g57V7b/eZZN0mCZqGq5EqzeNv+PZAtsppF0O3XY9rGreNRUkPbu4vipq3K1o+qWospaWe36cJsIk+Jj81FaJuu9Fm6yhKJD/mux/xjz0YRH/Z4x/Q72+f0r/8+fmI/nxxvLNAdO3Nso8322mzKtYMtfuUs2JUYePcXFiFo+UWXDcoz27Yq523PN7n+9guTnUtuDNK+JvqzSEW5p/Y+bVwTOU7s0ra2zNbndvyyT5bqxa0nzzHtN5a/tc0tEHMGzq/SzEva8BtyjXgQjyF209cGEUsQMnL6B4kPEh/c8RFoA4iggJCRM/BIcO8iPtxXXYTUELLj7NcXG+JDiJD9x+4y82t3mcP3320Ore825761vIX4aHvVxZ4Ej7kAs+XIAqQhP7b8FXfjNQ97ASBt7IVT27n2qwsk/Wio2y6knhIXutBxS1lM6IKlGYezAJx2T55D78tY3QWKvQh0F0A6BtWfPte2hWzH87hkk9u/rTN9xmltVE/u4sptq+dtutIxdZVjLcTcWNLld62vulz8cvN9j8Ov/GgL+XH4pe97v+pij3dMv3MxtuXKsY152z21sQY7a9HetHMIgLa+Gvm6aN8kwOw+7WO1I7vvpv3mKzVK3LX1qW3tMfjGhI3n/mXrf1Wy+1N9bejiNiGpfmCPxT7WZ2vTj/S5ZTybhKMdB+12vrLcuOKOo+t8LH9rW7i4PthWJ/Za7nwe+/zaHqErhAziQeJDbTplibBdhIyc/kHiI3DR6xowwkBqkZHT0F3cYs6JR5qE1rUAkw+T2rs35D+3nHj2YHNNdnisPHGPkfLct5aMkCLyb23t+s2rL8vT/9o35gLMnWjrYlgX7TpRtyf80sae9Leda7++ixyferq40AWLymgrtW6zGHIJB2uhp4s27WMyrqbO7b+kqx5EdlPHWlzqPdWZ9LUxntvtJ/1a/y53omurL2nbLLjcxawuUnXHx5Q2OnZXT13ytH6brlQvbjnWQsyNV11+1/Zx08Vv/WzycdP9jzxj5p96xcydf7z57y4HX/iO18dN7XGO6XcuxrZcOW63lw0SstfOHNto62vLon7TH1x7cZ/pdpuNVzik/obtbNi5yNE4oTbV1qePr9/WwQbx4fqp+2xyPrHvTd+Z9gx2+zb9NP1Zetno6zapIvftdr6yNFa06cV+Jvd4LH9rm1u4PthWJ/Ya51dp5iWxOGh74kE81BZSlohYgpCR0z9IfJD44I6PQBtABAWEjJyBRxJB1wJMJqgukSE7PNb/5Mi26+6/t9V27iTXPR9zAebKknN70T5ZTPQspppFgLVY137txYFcC6rnEhab2+11caUyppUyFlnQty002u7pouzNt39p3MVW8+xvv7/t31FqG93VIs/jLmxdPUidLt1Oa+vTRhdXrp70urtbRPXXpg+955ZjLcTcWDLN71r/ne23fmbmNnd+NP/O9t7zZv7pr3v/O1t7nGP6nYuxLVeOW+3F+YaE1HP72bDRF7a8NtHWV9NuQqa17+pyn2my+L9++78cqT2+eV36uE0MqK25Ntj5zI6vT3Qgr7psEhBddms/54YvbhAx057BbtOmH72v+mz0NSUG+srSem3xSGW2lWP5W9six/XBtjqx13Ln89jn1/YIXSFkEA8SH2rTKUuE7SJk5PQPEh+Bi17XgBEGUouMnIbu4hZzTjzSJLRpC7D1Z7e+uiKEhnzQVP6t7ZELe83SxbnmOx+y80PJDi2lbdtE1752/rUVM+1n12077vrGx8Yk/PZiRdrqQsZeZDSTf4vU0AWyTQxInWbHgLU40Hr2JD+knt2/jksWIC6R0SyMNuXK8Zs3L050urEQ2hjjtHvavy5MRIa7aNPxfGQt8BqdOeTKZKFm6azRobO4a9O19Ne6mJ0sUjc/mGjpubON85yu7n30oXpxy7EWYm68muZ3z331FWP/O1v7Q6Ztx/bHTaWtOyb3fJrPyT23vnve5XdSz8XYbdtqL7525thGW1+NfMse+/xKnk/t9c2339/yLaCNvn5p3rX60zFu81VnDFKv7fkm1y2/fvfj2x879Y1dPuPqkt+MeZNskm+Z2HFs8nzWmH1kaXxxY4v0N+03lr+1zS1cH2yrE3uN86s085JYHLQ98SAeagspS0QsQcjI6R8kPkh8cMdHoA0gggJCRs7AI4lg2gJsaWXR3P/qyjZSQ8mNrlLaSNtpE94U96YtwHQiLgsU/bmTcl3w6H0hRdzFgp7rv6TUul2LBd969r/PVF3oAkNluASJPMvkXsfiX+67BIb2r+3dZ58QGtZiR9vYz9Q8T9vHTZ12qlebZJL+pC/7dQbVrejCt430o+NQXbx5fTtpYtfp0oeO0S7HWoi5sWSa3y2vrJirTz/b+I+QGm1kh31NiQ9pI23t8YxxPM3vXIxd+Tbm9j0vOxtAfIgMu+/GPxx7tevYvqF+4cYNqa9kodpgm411jbW5bo1F+1J/94ld9jNPnsEZV5f85vn1vyw5beReWzsfHeo45HnadCZ9u7+x/K1tkeP6YFud2Gu583ns82t7hK4QMogHiQ+16ZQlwnYRMnL6B4mPwEWva8AIA6lFRk5Dd3GLOSceaRLatAWYTFKXj4eRH0J6SBt3gjvG+bQFWCp5bYuAtr5967W15bU4e+kiTYbodayFmBuv+vxuaWnjX0GHEB/aZsi4Q9og/C7keVg3zn9y6m8sf2ubW7g+2FYn9hrnV2nmJbE4aHviQTzUFlKWiFiCkJHTP0h8kPjgjo9AG0AEBYSMnIFHEkHfAkwmxUsrS6bttRd3x4fUkbqoiTRiAeZLaPjWQ+lmJ8nRv8zbf60fOv6xFmJuLPHxOxnD0hPP9O/4eOIZmM/JMyH8bih+bDdbJMhY/ta2yHF9sK1O7LXc+Tz2+bU9QlcIGcSDxIfadMoSYbsIGTn9g8RH4KLXNWCEgdQiI6ehu7jFnBOPNAnNdwE2WVAsL5qjZ5bM2sXl5ifH8h9gJvdbtjOPdQ+xAPMlNHzrjaWLndKvbLm3t9HrawH6mkCsHsZaiLnxKtjvZAfI8RNm6eR685Pjxc1dIbFjDm2P8LvQZ2L9PDE4Vu9j+Vvb3ML1wbY6sdc4v0ozL4nFQdsTD+KhtpCyRMQShIyc/kHig8QHd3wE2gAiKCBk5Aw8kgiCF2BAYqNvUo1YgPkSGr71+sbE+/0LONG1ftdASvdbIjE6HGsh5sYS+l0/zjE4su1s6Hcsf2tb5Lg+2FYn9lrufB77/NoeoSuEDOJB4kNtOmWJsF2EjJz+QeIjcNHrGjDCQGqRkdPQXdxizolHmoTGBdhsLBC4kMPgNNZCzI1X9DsMnvSbsvU8lr+1zS1cH2yrE3uN86s085JYHLQ98SAeagspS0QsQcjI6R8kPkh8cMdHoA0gggJCRs7AI4mAC7CyFwZcuGHxGWsh5sYS+h0WV/pRmfoey9/aFjmuD7bVib2WO5/HPr+2R+gKIYN4kPhQm05ZImwXISOnf5D4CFz0ugaMMJBaZOQ0dBe3mHPikSahcQFW5oKAC7U8uIy1EHPjFf0uD770q7L0Ppa/tc0tXB9sqxN7jfOrNPOSWBy0PfEgHmoLKUtELEHIyOkfJD5IfHDHR6ANIIICQkbOwCOJgAuwshYCXJjlxWOshZgbS+h3eXGmn5Wh/7H8rW2R4/pgW53Ya7nzeezza3uErhAyiAeJD7XplCXCdhEycvoHiY/ARa9rwAgDqUVGTkN3cYs5Jx5pEhoXYGUsALgQKwOHsRZibryi35WBN/0uLw5j+Vvb3ML1wbY6sdc4v0ozL4nFQdsTD+KhtpCyRMQShIyc/kHig8QHd3wE2gAiKCBk5Aw8kghkAba+vm5kAjprv9XV1Zl75lnT8U57XvEF8Yn5+fkmJqeaLLmxhH43e/Fmp/kCYrxj+Vub37o+2FYn9lrufB77/NoeoSuEDOJB4kNtOmWJsF2EjJz+QeIjcNHrGjDCQGqRkdPQXdxizolHmoQmCzD+qAPawFYbQBAf1PlWnaP18epr3zVf/8ZrjH8F5IDU/tY2t0DMGTi/SjMvacNvyDXiQTyG2E1fG0QsQcjI6R8kPkh8cMdHoA0gggJCRs7AI8FdJpz8UQe0ga020DfxCb3vxhLqe6u+c+jj1B/9pVm78j3GvwJyQKg/Danv+uCQPvra5M7nfc/nex+hK4QM4kHiw9fmQ+ohbBchI6d/kPgIXPS6BoowkFpk5DR0F7eYc+JRVkIjHsQjxp+72jJelWVXteBxz6EVc+nW/2cefPv/Mrvu3pv0tSa1ZURMrAUPhK4QMogH45X6f8oSYbsIGfQP+of6xYT4EKPgjzqgDdAGaAO0AdoAbYA2MI4NrP/xh+byh79tfievvcl5F+eetAHaAG2ANkAbANnAhPhQJkRKBPuGkCETN3tcYxwjxlGLDOJBxpU+2G0D9I9u3bh2g4iJxIN4uHYXe75n/5Fmt4cSH2Pt+qB/lGW7xIN4xMaOtvYIu6pFBvN5WT6YEw8SH3zVhd/4CLQBJoKyAijxIB5tk8LYazkTc+yz2+3pH+X4x/HrfzHZ7aHkx/Ij30r+BxoE5vSPcuxK/J14EA877qc6RsQShAz6B/1DfYLER+CiVxWnJcJha5HBwMPAo36TsqR/lGVXxIN4pPRv7WvW84e720OJjzF2fSB8cNbxULtC6Aohg3iUFXeJB/HQGJOyRMQShIyc/kHig8QHd3wE2gAiKCBk5Aw8TATbJwU58Hj00d8zP//57xgpU2GCsF2EjBx4pMLA7gehK4SMWcejbbeHkh+pd30Qj+3x1fYJ+xihK4SMWfcPxQShK4QM4lGWDxIP4qExhsRH4KJXFaclIoDWIoOBh4FH/SZlSf8Yblcvv/zPzXvv3WGkTIUJ8RiORyoM7H6IR348unZ7KPGRetcHAnPm8/x2Zfs58SAetj2kOkbEEoQM+gf9Q32CxAeJD+74CLQBRJBGyGAiYCI4cOAPzGOPfcZIqUkhtkTYLkIG/YP+EesL2n7abg8lP1Lu+qB/lGW7xIN4aCxIWSLsqhYZzOdl+WBOPEh8BC563aBVS1BAjCOnobu4xZwjdIWQQTyYCGL8oKstwnYRMugf9I8uGw+53rfbQ4mPlLs+6B9l2S7xIB4hMcO3LsKuapHBfF6WD+bEg8QHiQ/u+Ai0ASaCsgIo8SAevhPFkHo5E3PIc/bVpX/k9Q+f3R5KfqTa9YHAnP6R165cvycexMO1iRTniFiCkEH/oH+oP5D4CFz0quK0RDhsLTIYeBh41G9SlvSPsuyKeBCPlP6tfc1i/vDd7aHER6pdHwgfnEU81JbsEqErhAziUVbcJR7Ew44zqY4RsQQhI6d/kPgg8cEdH4E2gAgKCBk5A0+qJCD9IHSFkEE8OFFK6RfaF8J2ETJm0T9Cdnso+ZFi1wfxKCuWEA/iofE4ZYmwq1pkzGL+aLMV4hEfS0h8BC56XUOsxQgR42DgiXdY1/5izokH8Yixn662iFiCkEH/oH902bjP9dDdHkp8pNj1Qf8oy3aJB/HwiRmhdRB2VYsM5vOyfDAnHiQ+SHxwx0egDTARlBVAiQfxCJ0w+tTPmZh9ns+3Dv0jj3/sP/aQOfbUT7b9Tr7wH4yQHCee/6tt97T+3JFTUf9lCYE5/SOPXXX5PfEgHl22EXMdEUsQMugf9A/1AxIfgYteVZyWCIetRQYDDwOP+k3Kkv5Rll0RD+KR0r+1r1ryx/zyfQ3xMbdwIorcUL20lQgfrAUPhK4QMohHWXGXeBCPttgcew0RSxAycvoHiQ8SH9zxEWgDiKCAkJEz8MQGf7s9QlcIGTnwePTR3zM///nvGCltncYcI3SFkJEDjxi9d7VF6AohoxY8SHyUtSBC2C5CRi3+gdAVQgbxKMvPiQfx0DkSiY/ARa8qTktEAK1FBgMPA4/6TcqS/jHcrl5++Z+b9967w0iZChPiMRyPVBjY/RCPsvAg8VEWHvQP4mHHy1THnO+WZVfEg3iob5P4IPHBHR+BNsCJUlkBlHgMx+PAgT8wjz32GSOlJoXYkngMxyNW923tiUdZeJD4KAsP+gfxaIubsde40C7LrogH8VCfJvERuOhVxWlZS9JEjIOBh4FH/SZlibBdhAz6B/0jpV9oXwjbRcioxT9IfJTl5wjbRcioxT8QukLIIB5l+TnxIB46JyLxQeKDOz4CbQCRNBEymAiYCDQRpCwRtouQQf+gf6T0C+2LxEdZdoWIJQgZjFdl2RXxIB4a81OWiFiCkJHTP0h8BC56XQNGGEgtMnIauotbzDnxKCuhEQ/iEePPXW0Zr8qyq1rwIPFRll0xfxCPrhwQc72WeEX/oH/E+EFX25z+QeKDxAd3fATaABMBE0FXMI+5njMRxDy325b+Qf9wbSLFeS3+QeKD/pHCH9w+avEP5g/6h2vbKc7pH2XZVU48SHwELnpdB6wlSCPGkdPQXdxizhG6QsggHkwEMX7Q1RZhuwgZ9A/6R5eNx1wn8VGWXSFiCUIG41VZdkU8iEdMnuhqi4glCBk5/YPEB4kP7vgItAFEUEDIyBl4uoL6kOsIXSFkEA9OlIbYf18bhO0iZNTiHyQ+yvJzhO0iZNTiHwhdIWQQj7L8nHgQD50rkfgIXPSq4rREBNBaZDDwMPCo36Qs6R9p7Oq++z5vLl78V2bXLv/+2nAkHv76q0VXiHHUkj9Wn/iuefiDX5s9+48k+xfSrh8Sj53ng7X4B8J2ETKIR1k+SDyIh+ZJEh8kPrjjI9AGEEkTIYOJgIlAE8Hc3L837777O+a99+4wp09/LmpBhrBdhAz6B/1D/SNVufjwN83lD/6LkTJVn2390D/Ksl3iQTza/DT2GsKuapHBfF6WD+bEY0J8iHHX9hPF1jamWR4P8SjLx4gH8dB4Mje3x7z++u+aH//4vzLLy19i3Ny719A/6B/qHynKlUe/1ZAeUqboL3cf9A/6R24bLFk+/YP+UbJ95n62nP4xIT5s5lEUYp+PcYyQIYod49ntPhHjqEUG8SDjavtOqmP6R1l2RTyIRyrftvuZ1fyx/+iDZv21v29eb5GdHvQP+odt16mOZ9U/3PHTP+gfrk2kOKd/lGVXOfEg8RH4moPrgLUEacQ4chq6i1vMOUJXCBnEg4kgxA/k2x+vvfa75kc/+mfm8OHf7ySVxXafeurT5mtf+xdm794vdtYT2UPrdfnHqVP/xly48K+nyvQdM/2jPP/Ye/ComVs4MdpPPjyaqv/5E480hMflD3/blEKAiO112a6vXfrUQ8igf5TnHz62EVMHYVe1yKB/0D9ifK2rLf0j3q5IfJD4gE3GmAjiHbYrGA65TjyIR4jdyHdAbt3a+A7ImTPd3wFZWNjVfCtEvhdy9mx3vfn5Pxhcry35S3/6fCdPfj6a/KB/5PUPISAWzr9g1p5735z59j+YS+/+v0ZIhFn6yU4PJTzU19psV++lKhEy6B95/cO1FeJBPFybSHGOiCUIGfQP+of6A4kPEh8kPgJtABGkETKYCJgINBH4lqdP/xtz+fLvTf3PL2K7Q3dydD2H21+bf9x995fM9773XzffKTl4sHtHSpcM9zr9I49/6KshQnBc/Iv/1JAeQn6sPfp1s2/pdLIdGW07O1Lu+NhzYLmVfGuzXdf2Ys8RMugfefyjyzaIB/Hoso2Y64hYgpBB/6B/qB+Q+Ahc9KritEQ4bC0yGHgYeNRvUpb0j7LsingQjyH+bRMeslNi/vilLcQB80dZdkU8iMcQP+9rw/xRll0RD+LR57ND7ufMHyQ+SHxwx0egDTARMBEMCfR9bXImgr5nC7lfsn/s2fMl89JLnzIvvvgvzK5dX9qysHbHSDxwfi6kx+UPfr3lWxjEw1//rq4QPkj/8MeHeJSlK+JBPNyYmeIcYVe1yMiZP0h8BC56XeeoxQgR48hp6C5uMecIXSFkEI+ykj/xGB+PtbV/O/muyPLyvyPxEZn/NI7GxivZ4SE/7a+tpH+M7x9teu+6RjyIR5dtxFyPjSU+shEy6B/0Dx9bDK2DsF2EjJz+QeIjcuKHMJBaZOQ09NDgMq0+8SgroREP4jHNX+17ssvj6af/W3Pt2qenfqdE2jBeYexqY7fHb7Z9BNTGjXj4YyG6QsRE+oc/JsSjLF0RD+Lh5pcU5wi7qkVGzvxB4oPEB191CbQBBp6dlzQRmOdMBCmSvvaB0BVCBvHA+LnPbg+xLeKBwUP9uK8kHsSjz0aG3EfEdoQM+gf9Y4j997VB2C5CRk7/IPERuOh1jRJhILXIyGnoLm4x58SjrIRGPIhHjD93tWW8Gt+u9h46bi5/8JttHzJtw4R4jI9Hm967rhEP4tFlGzHXmc/LsiviQTxi/Lmrbc78QeKDxAd3fATaABMBE0FXMI+5njMRxDy325b+Qf9wbaLr/NDZ6+bh9/7J7Nq1e+r3PaQ9/aMsuyIexKPLr2OuM3+UZVfEg3jE+HNX25z5g8RH4KLXBbGWoIAYR05Dd3GLOUfoCiGDeJSV0IgH8YiJS11tEbFkqIzVqz80537wq17SQ8ZG/6B/dNl4zPWhthsiEyGD/kH/CLFJ37oI20XIoH/QP9TmSXyQ+OCOj0AbQARphAwmAiYCTQQpS4TtImTQP8b3j1N/8jdGfj72RzzGx8MHB61DPIiH2kLKEhHbETLoH/SPlH6hfSFsFyEjp3+Q+Ahc9KrxaYkwkFpk5DR0xStFSTzKSmjEg3ik8Gu3D8ar8e1KdnvIrg9X923nxAZ1kf4AACAASURBVGN8PNr03nWNeBCPLtuIuc58XpZdEQ/iEePPXW1z5g8SHyQ+uOMj0AaYCJgIuoJ5zPWciSDmud22s+If8q9tjx6900jpjkHOice4fi7f9ZDve8h3Ptr0714jHuPi4eq775x4EI8+Gxlyf1byR9/Y6B/0jz4bGXKf/hFvVyQ+Ahe9rqHWYoSIcTARxDusa38x58SDeMTYT1dbRCxJIeP55/+lee+9O4yUbWOhf4zrH3sOrprLH/7W7Ftcb9W/iwnxGBcPV99958SDePTZyJD7KWJ7n1yEDPoH/aPPDofcR9guQkZO/yDxQeKjmXTWbuhDAkxXG4SuEDJyBp4u3Q65jtAVQgbxwE6USHz467vPL4f4x9zCiYb4kLKvf7lP//DHawgePhjYdYgH8bDtIdUxwnYRMugf9I9UPmH3g7BdhIyc/kHig8QHiY9AG0AEBYSMnIHHDuSxxwhdIWQQD+xEia+6+Ou7z0eH+AeJj3T6d/EZgofbR98545U/fsSjLF0RD+LRF9+G3EfYVS0ycuYPEh+Bi17XGWoxQsQ4chq6i1vMOUJXCBnEo6zkTzyIR0xc6mqLiCVDZJD48Lf3Lmy7rg/Bo6uvruuMV/74EY+ydEU8iEdXXIu5jrCrWmTkzB8kPkh8cMdHoA0w8Oy8pInAPGciiEn2bluErhAyiMe4fk7iw1+/ro/1ndM//HWL0BVCBuNVWZgTD+LRF6eH3EfEEoSMnP5B4iNw0esaKsJAapGR09Bd3GLOiUdZCY14EI8Yf+5qy3g1rl2R+PDXb5eNdl1HxET6hz9+xKMsXREP4tEVO2OuI+yqFhk58weJDxIf3PERaAMMPDsvaSIwz5kIYpK92xahK4QM4jGun5P48Nev62N95/QPf90idIWQwXhVFubEg3j0xekh9xGxBCEjp3+Q+Ahc9LqGijCQWmTkNHQXt5hz4lFWQiMexCPGn7vaMl6Na1ckPvz122WjXdcRMZH+4Y8f8ShLV8SDeHTFzpjrCLuqRUbO/EHig8QHd3wE2gADz85LmgjMcyaCmGTvtkXoCiGDeIzr5yQ+/PXr+ljfOf3DX7cIXSFkMF6VhTnxIB59cXrIfUQsQcjI6R8T4kMGWttPFFvbmGZ5PMSjLB8jHsRjluNJ7LPPze0xJ078vpGyrS/6x7j+Mb98n7n84W+NlG36d68Rj3HxcPXdd048iEefjezk+/QP+sdOtv++sef0jwnxYTNP8sD2+RjHCBmi2DGe3e4TMY5aZBAPMuC276Q6pn+UZVezgsfzz/9L8957dxgp22yR8Wpcu+KOD3/9ttnntGsIH6R/+ONHPMrSFfEgHtPi59B7CLuqRUbO/EHiI/A1B9chajFCxDhyGrqLW8w5QlcIGcSjrORPPLB4kPjw13dfvBwSr0h8pNO/i88QPNw++s4Zr/zxIx5l6Yp4EI+++DbkPsKuapGRM3+Q+CDxwW98BNoAA8/OS5oIzHMmgiFJvqsNQlcpZOza9SVz9OidRsq2sRCPcf2cxIe/ftvsc9q1FP4xrX+5R//wx494lKUr4kE8+uLbkPsIu6pFRs78QeIjcNHrOkMtRogYR05Dd3GLOUfoCiGDeJSV/HPjsfuuu8xzd37O/Pyzn4763fr8Z6La+8hHyPjwC5+tYhwIXQ2RcesLd5q/vfSakdIH8xrwEP/ax1eJW4nGtpyMyIO1yMidP9rwG3KNeJQ1LyEexGOIH/e1yRmvSHyQ+OCOj0AbYCJgIugL6kPu50wE8ryyKDOfuoM/6oA2MKINvPD7d3ov/IfEEWmDyFG549VQ3bjtELpCyCAeZc1LiAfxcGNNinNELEHIyOkfJD4CF72u4SIMpBYZOQ3dxS3mnHiUldCIRxo85K/uJD5I/NAGxrWB/+O/+29IfHjOu2qJ7YhxcH6VJg/GzA3ttsSDeNj2kOoYEUsQMnL6B4kPzwTcZbQIA6lFRk5D78JvyHXiUVZCIx5p8HCJD5/XD9rqDHntoa2fadcQMmp4tUJ0iNDVEBk76VUXm0x6//OfIfHhOe+qJbYjxsH5VZo8OGRO2NaGeBCPNruIvYaIJQgZOf2DxIdnAu4yVoSB1CIjp6F34TfkOvEoK6ERjzR4yCJZF2hyPMQ3pA3xSIPHUP277UrFYyd93NT2LSGJXIxSnyMwZz4vy8+JB/FIHUekP0QsQcigf9A/1D9IfJD4aCZhDDxlBQXiQTw0SKcsp9mVvTgj8cH/WhFid9Psqqufu/cdNMee+omRsquOfX2WJ662b5H42HmxfYh/2LbvczzL/mGPD6ErhAziUZafEw/ioXGGxAeJDxIfgTaASJoIGUwETASaCKS0F2e+xMeNGzcMf9TBTraB+fn5XuLG9i0SH2XFXUSuRchgPi/LrogH8bDnV6mOEbEEISOnf5D4CFz0usaLMJBaZOQ0dBe3mHPiUVZCIx5p8LAXZyHEx/r6ullbW5u53+rq6sw98yzqudZnFrsXwofEh3/8Cc27tcR2xDg4v/K3Q+JRlq6IB/EIzQ0+9bvsisQHiQ/u+Ai0gS5n8nFE3zoIGZwolZVscuMxlPiQhe3i4uLM/Q4dOjRzzzyLeq71mY8fP07iIzB3+uY/rYfIg7XIyJ0/FLPYkniUNS8hHsQj1qfb2ueMVyQ+IhN3LUEBMY6cht7meEOvIXSFkEE8ykpoufEg8TF75E2tpMIsjIvEx0LvKz5Dc6y2Q+TBWmTkzh+KWWxJPMqalxAP4hHr023tc8YrEh8kPrjjI9AGmAiYCNoCeey1nIlAnp3EB4mPWSAcSnlGEh8kPnxjPmLOkDt/+Oqirx5CVwgZxKOseSLxIB4ae0h8BC56VXFaIgJoLTIYeBh41G9SlvSPNHZF4oPERymkwiw8B4kPEh++eQyRozi/SpMHfTHtq0c8iEefjQy5j4glCBk5/YPEB4kP7vgItAFEUEDIyBl4hgT8rjYIXSFk5MZjdOJj9ahZunTFLF1/1Sx/9bvNT47l2uLqUfj3NviNDxI9MQQLiQ8SH105yb2+E/KHO+ah5whdIWTkzudD9e+2Q+gKIYN4kIhS2ybxEbjoVcVpiXDYWmQw8DDwqN+kLOkfaexqLOJjaXnZLD35nFl+/ZZZ/v5ftf9ev9XUkboxi9GQtiQ+SHyE2Itbl8QHiQ/fPIbIUZxfpcmDvpj21SMexKPPRobcR8QShIyc/kHig8QHd3wE2gAiKCBk5Aw8QwJ+VxuErhAycuMxCvFx9JhZ+tob7WRHCwkidRePHoOQHyQ+SHy4ZEbIOYkPEh9dOcm9vhPyhzvmoecIXSFk5M7nQ/XvtkPoCiGDeJCIUtsm8RG46FXFaYlw2FpkMPAw8KjfpCzpH2nsKjXx0ez0CCA9dDeIkB+InR+piI9rb39iPvrFG+bcwgKEsAlZnLt1m2d9+4Xin9N9bt9zJBYkPkh8+OYxRI7i/CpNHvTFtK8e8SAefTYy5D4iliBk5PQPEh8kPrjjI9AGEEEBISNn4BkS8LvaIHSFkJEbj+TEh7ze0rKrw+eavBrTtdhdXls0688um3M3VszJJ5fN0tKwnQvTiI9zN39p/vrv/nHL76OPf2levrCV3FhYuGhe/gWJDxurhevvb9UbkBQi8bGx2NgJ8aorH4ReR+gKISN3/gjVe1d9hK4QMogHiY8uG4+5jrBdhIyc/kHiI3DR6xoswkBqkZHT0F3cYs6JR1kJjXikwSMp8bF6tPObHgf/6Dtm3+Wnzd5zj5l7Hn/eLHzjre0Eyeu3Wj94euzsknn4J0fNySsb3wK58PqqeegHq50kib0gd4/7iA93F8fChTfMux9/Yj4qYMfEwsIL5s2PPzFvXt9KxLhjdM/H3vEhhNFHH79vrlm7X4QIeffmxUEYuc/fdz6E+BiqS+744I4P33kEIkdxfpUmD/pi2lePeBCPPhsZch8RSxAycvoHiQ8SH9zxEWgDiKCAkJEz8AwJ+F1tELpCyMiNR0riY+nik9vJjDc+NPsuXjO7jq2bex571sx/+Wtm7sEr5u77HjRLb3ywrb704S501y4uN8TH8QtLzb2zX1sxF3+EIT7kWXSRjFrIu+PXc32OkogPfaacuiHxsbHY2AnxqisfhF5H6AohI3f+CNV7V32ErhAyiAeJjy4bj7mOsF2EjJz+QeIjcNHrGizCQGqRkdPQXdxizolHWQmNeKTBIyXxsfzMq9uIjIPPf8vsOn7aLH77Z1vvfe8vt57r6zHPvNpCfGzs+Dj2wJJZPblk7n9l1Vz889XmWM7tn5IEXWXojg/tx93V4C62lQDQV2VscmJSd3P3iNZxd5HoKzST+9YuirbXcGyywZVv71xp5L/9grH7cHdoyDh1d8tEvvO6io7j2uYrQSLj/sN/1OxCcceierPLIf3/8VvtrxTps8g3VuxjlTdNlq0HHautS+2jreSOD+748J1HIHIU51dp8qAvpn31iAfx6LORIfcRsQQhI6d/kPgg8cEdH4E2gAgKCBk5A8+QgN/VBqErhIzceCQlPl787jYyY9+lp5qdHj7f+GjqvPjd7cTHpdvEh7zyMu3Xtli1rw0lPjYW0re/92EvtpV0sBfP127e/vCp1JUFtk1G6MLcJgzO3Xx/8j0RJUG2tOl41UW/r2HLl/5f3nwlRuXrfX3eLX1ff9/Y3zNpk6/92M8suu26butdnnFI/2476VN1p+SSyA8di+pA+7CfddoxiQ8SH105yb2+E/KHO+ah5whdIWTkzudD9e+2Q+gKIYN4kIhS254QH2J4tf3E0Gsb0yyPh3iU5WPEg3jY8eTW5z9jzKfuaH5ybN/rOr5x44ZZW1vbRlAsdxEfjz6zjRDpJEJaiA97ITqN9JB7dt224zji4/b3NezFtrsQd+U2da3dG3rf3UWi17XcWPTf/nZG22J9QlBM+QaJ/azaty1b+3BJgI1xOWRPyzikT3sXhUuMxPSvbZW0UVn2jhV7fFq/byxtulTdTCtd4qPLR+T6EN+a1l8J95g/mD9KsMNSn4H+Qf8o1TZLeK6c/jEhPpQJkVKUYp+PcYyQIYod49ntPhHjqEUG8SDjavtOqmP6Rxq7Srrjo+tVl2Pr5sjNn24hP47c+PGW8wkR0vKqi70QzUt8OCTA5qsguth2d3Xoc9sLc70mZdtuBqmrr180/VlEQ9tivY90ETmNfIcY2UJ8OK/g2PLlWEmErnHYY9Ln37K7I7L/5lkdXdtEiP1cqg93DHquY2nTpT2OrmOX+JgWz2zfEhJkWt0U9xAxkfk8TdxNgbf0QTyIRypbsvtBxBKEDPoH/UPtmsRH4GsOqjgtEQ5biwwGHgYe9ZuUJf0jjV3ZizM59sGoa8dH18dN9z54xeyWj5s++ozZf+VFs+f+R5rzpddvbSM/2j5uai9CcxEfNlEgz2MvtvX57EW3/epFW11pYxMfuhC3dzJ47fjYJBV0Qa/PYpeNfA/iY1of0l/XOGxZcqxEkI5F9TK0f7v9xvFtAsp9Lruu+1z2ueq775nsNnJM4oN/WPKJkVIHkaM4v0qTB30x7atHPIhHn40MuY+IJQgZOf2DxAeJj2aBU7uhDwkwXW0QukLIyBl4unQ75DpCVwgZufFISXwsdv072zc+NPKRU/nex9yFJ83+qy+axW9t3QHS7Pjo+He29uIzB/Ghi+SuXQb288mxEBbbdkpYOze0vk0k2CSI3nfJFn0Oe7Gu1+xn0/Za9hIfm98OmdaH9GU/r/bdVdqkjc8z9vWvY2h04pA49nP5ytJ6ti67xmJfJ/FB4sM3X+2E/OGri756CF0hZOTO53169r2P0BVCBvEgEaU2T+KDxAeJj0AbQARphAwmAiYCTQRSJiU+FhfN0pPPbdvFMXmNRf9zS0cpbe1FZtvx+ddWzLRfWxv7Wug3PpTEcL9bsWWxfeEN8+bNi5Nnd0kMqStEiN2H9qsL723nmzs5dNeEjEEX6y5BIWSATbQ0da+/v/UVFYcscEmV1j7kGax29phVpxvPtHUHxmTHh9V2aP8TOZsfR333F7e/s6L33OfykdWlS+2zqyTxQeLDjp/TjpnPy8q1xIN4TPPXofcQdlWLjJzrDxIfgYte1yFqMULEOHIauotbzDlCVwgZxKOs5J8bj+TEx/KyWfraG8Hkh7RZWl6ekAddC8/Y633Eh34LQkubeLBlu4ttJTcaguPjrUSA1tV/A6t9K+mh/eqCvelDvmnRLPZvf9xU6ilBInVsAsS+3rS3SIdGvnUu/Ygsd2y2/MkzLCxMMNFxyL+Q1Wdunmlzx4i00Z/9bFp3aP+2DPsVIu237bn6ZDV9bu7MkWdue17t3y5JfJD48J1HMJ+XlWuJB/Hw9d2Qegi7qkVGzvkuiQ8SH9zxEWgDDDw7L2kiMM+ZCCS5pyY+mkXi0WNB5IeQHotHj21ZTNuLzZTH04iPlHLsvtoW5vZ9Hi9CsE+hZxIfJD58F0U7IX/46qKvHkJXCBm583mfnn3vI3SFkEE8ypq358SDxEfgotcNFgiHrUVGTkN3cYs5Jx5lBVDikQaPUYgPeeVFdn7Iay8tHzCdvPry+q2mDmKnhy56SXzMDsmgmJVUkvgg8eE7j0DkKM6v0uRBX0z76hEP4tFnI0PuI2IJQkZO/yDxQeKDOz4CbQARFBAycgaeIQG/qw1CVwgZufEYi/iYLFZXj5qlS1fM0vVXzfJXv9v85FiuycdQJ/UWMQtyEh8YPaNxRckj8UHioysnudd3Qv5wxzz0HKErhIzc+Xyo/t12CF0hZBAPElFq2yQ+Ahe9qjgtEQ5biwwGHgYe9ZuUJf0jjV2NTnyACA3fhS+JDxIfvrbSVo/EB4kP3zyGyFGcX6XJg76Y9tUjHsSjz0aG3EfEEoSMnP5B4oPEB3d8BNoAIiggZOQMPEMCflcbhK4QMnLjQeKDREDbAp/X2u2CxAeJj66c5F7fCfnDHfPQc4SuEDJy5/Oh+nfbIXSFkEE8SESpbZP4CFz0quK0RDhsLTIYeBh41G9SlvSPNHZF4qN9gcuFP/XSZgMkPkh8+OYxRI7i/CpNHvTFtK8e8SAefTYy5D4iliBk5PQPEh8kPrjjI9AGEEEBISNn4BkS8LvaIHSFkJEbDxIfXOC3LfB5rd0uSHyQ+OjKSe71nZA/3DEPPUfoCiEjdz4fqn+3HUJXCBnEg0SU2nY08fH8888b+/fcc8+Zr3zlK+bs2bNm9+7dzaJahdnlLBi6jMt+ZvtY7409Dlu37rE+jz6LnNvHet+nHHsc8gwMPAw8PrYYWgdhuwgZuf2DxEf7ApcLf+qlzQZIfJD48M1VOyF/+Oqirx5CVwgZufN5n5597yN0hZBBPLj+UJtPQnxoZ1Lu2rXL3H333ebUqVPmwoULncTBLBj6NBJB7409DpETIkOfy8bE5zhEhk9/bXUYeBh42uwi9hrCdhEycvsHiQ8u8NsW+LzWbhckPkh8+OaunZA/fHXRVw+hK4SM3Pm8T8++9xG6QsggHlx/qM0nJz60YzHk69evk/gIfI1C9acliQ9/ZxWdIQJoLTKYCPxtC4F5bjyGEh/r6+tGFoGz9ltdXZ25Z541Hdf8vGL3N27cMPPz853zHM3jtm/d+vxneutru6HlTohXQ3XjtkPoCiEjd/5w9Tr0HKErhAziwfnVUB+Y1g5huwgZOf1jVOLjqaeemiR42Qly5swZ84d/+Ifm2WefNU888cRkwiD17rnnnkldmUjIgt9WjNyXV2jUIE6fPm2efvrppj95rUb613vS9sSJE+aZZ54xjz322OT6tDayS+WBBx5o+pR+19bWpr42IjJkUnft2rWG4HnooYfMnj17zIEDB8zVq1cnMvWZ5LUfGbvU0Ws+dX2ID6mjfdrHcm3amFdWVoy8miRtZMyXL19unl/7Sl3aeKbuW/tDOGwtMogHE7P6jZT24kyO7Xtdx7Lw44862Mk2QOLDP452xZGu67XkWsQ4mM/97ZB4lKUr4kE8unJAzPUuu0pOfMgCX0iK8+fPN4tufWh59eXcuXPNazBSRxbkly5daibXFy9eNMeOHZtMtKXelStXzIMPPji5JveFXJD+5Fh+0o/87r///ubVGpUlC3mpK1t09+/f79VG6gsRIP3JREbkuySC9i+l3BOC4/Dhw00bIUqE2JF7jz/+uFlaWpo8u1yT+/Z4tK++uiKnCzztw35O+7hPT0J6yJilH8FMyKI20kblxJZMzGUFN+JBPGyfHkJ8SKzkjzrYyTZg+1DXse1b3PFRVtztm191YRpyHSGD+bwsuyIexCMkRvjWRcQShIyc/pGE+JDFtv5kN4d0KttA7V0YsqB2d3XIDggB+9577212W8ixEA9yXQgL2YUgOzHkuuzGkIW5HMtuEb0u5/v27WtkyrH85FlkN4Wt2L42sptEZGsfQprYJIJe11LuHTlyZEJKyPM8+eSTTfujR4+aRx99dNKXtBEiRUgSba9lX13Vq1tqeynt57SP+8Ys+hVyRPqo3dBtfcUeI3SFkGH7R6xOutojxlGLjNx42Isz3x0fbbgTj7ImfMQjPx62b5H4yI+HHbfoH8TDtodUx7nzeapx0D/oH6lsye4np38kIT7swXQdCyFiEwtzc3PNKy9S/+DBg5OdBrIQ150dshNEdkpIHSFO5K9KcizfDnGJAOlfZcs9kWUrtq+N3V76kVdSbBJB+9ZS7gnZYQcF/aaJED5C3gj5IvWFIOnaSdFXV+TYMlS+XdrPaR/3jXl5ebkZo7ziIq/t6O4Pu++UxzYeKfu1++rTlV136HEtMohHWQktNx724ozEB/8LVUh8RMTE3P4Rog+3ru1bJD7KirsI20XImGX/sP0FoSuEDOJRlp8TD+KhcQZGfMgi3CY+ZJeGLtJl8S/3hWyQb3KogcquC9m1INdld4I+tHy7w+5Lr2up/Wo/ct2njd2nkBraj/Zrl3JP6msAlTGIDK0jr/Loqy3ySo/uVtH7djmtrshRGXYb+9h+Tvu4b8zSh5BO8mxCNglZoztA7P5THdt4pOrT7adPV279Iee1yCAeTAS2/duLMxIfJD5s2+g7RsTEWY5Xtm+R+Cgr7iJsFyFjlv3Dji8IXSFkEI+y/Jx4EA+NMzDiQ14DcV91sRfpjzzySPOdDnkgfTghE+QVFHltRr8HIvfktRG7L62vpfZrG3pfGyFW7D7ltRTtR/u1S7l36NChCSkhgVQ+dKp1ZEeLEA+yS0VJHb3nltPqipy+IG0/p33cN2b7OUSGjMdub99PcWzjkaK/tj76dNXWJvRaLTKIBxOBbfv24sx86o7mY6dyLfQnC7vQNqH1ETI+/MJnqxgHQlcIGbOMh/iT/kRXtt+NcYzIUcwfzB+zarv0j7Jsl3gQD2QsgREfsqvA/bipvYtDyA153eS+++7bMimQ3RByXT6OqoqRvqS+vmoibexvauji3U7MfW0efvhhI/8dRvoUAkR2mmg/Ktcu5Z7sThFiQ3Z+yHdKZHx2HSFr5BWXCxcubLlu19Hjrroipy8o2M9pH/eNWcgoqaN6lH/vKB881WdKXdp4pO5b++vTldaLKWuRQTzKSja58RDyQRdnLG8vVKkL6iKlDZD4KCvuMp8Tj5j5YFfb3Pm867lCr9M/6B+hNuNTP6d/wIgP2b0h/31Fdj/IT74rITsMVEHyHQxZdMvuB70mpZAQspi3PwwqfQlJIcSJ7KqQvux2uvi3FdvXRhb/9r+zFSJD+7GfR4/lnpAGMhZ5BiFO3AAhY5J69ji1vVt21ZX2br9uW/s57eO+MQtpI4SRjEHa2f/lxZWR4tzGI0V/bX306aqtTei1WmQQj7ISWm48nrvzcyQ+rL/Mp1zssi+SJ2oDL/z+nVvmOKH5x6c+Ikfljlc+evCpg9AVQgbxYD73sffQOgjbRcigf9A/1PajiQ/tKLTcCYYupI28quOjm2l1EbpCyGDgYeDx8YXQOgjbRcjI7R+777rLPHvn56Jf70C89oCQMcuvVtivDiF0hZBRAx7iX/v27vWaE4TGQbv+TohX9nhjjhG6QsjInT9iMLDbInSFkEE8ON+17TrVMcJ2ETJy+seE+JCH4C+dDuTDrPL6inzgtE+vIXX7+uL9dBhSl9QlbYA2QBugDdAGaAO0AdoAbYA2QBuYfRuYEB82G4VgexAyxEDtcY1x3DUOef1FvgFi/6eYLvl9dbtkdPU35DpCRk48huikqw1CVwgZxIN/keiy8ZjrCNtFyKB/0D9i/KCrLcJ2ETLoH/SPLhuPuY6wXYQM+gf9I8YPutoibBchI6d/kPi4y9852wwRYSC1yMhp6G3YDb1GPPx9phZdIcZB/yjLrogH8RiaI6a1Q8QShAz6B/1jmp0PvYewXYQM+gf9Y6gPTGuHsF2EjJz+QeKDxEezK6Z2Q58WSELvIXSFkJEz8ITqfFp9hK4QMogHJ0rT7HzoPYTtImTQP+gfQ31gWjuE7SJk0D/oH9PsfOg9hO0iZNA/6B/qAyQ+SHyQ+Ai0AUSQRshgImAi0ESQskTYLkIG/YP+kdIvtC+E7SJk0D/oH2rTKUuE7SJk0D/oHyn9QvtC2C5CRk7/IPERuOhV49MSYSC1yMhp6IpXipJ4lJXQiAfxSOHXbh+MV2XZFfEgHq6Ppjhn/ijLrogH8Ujh124fzB9l2VVOPEh8kPjgjo9AG2BiLiuAEg/i4U5yUpznTMwpnl/7oH/QP9QWUpb0j7LsingQj5T+rX0xf5RlV8QjHg8SH4GLXg0GWtZihIhxMDHHO6zaXYqSeBCPFHbk9oGIJQgZ9A/6h2vbKc4RtouQQf+gf6TwB7cPhO0iZNA/6B+ubac4R9guQkZO/yDxQeKDOz4CbQARFBAycgaeFAlA+0DoCiGDeHCipDadskTYLkIG/YP+kdIvtC+E7SJk0D/oH2rTKUuE7SJk0D/oH+oXJD4CF72qOC0RDluLDAYeBh71m5Ql/aMsuyIexCOlf2tfYmQrtQAAAUhJREFUzB9l2RXxIB7qmylL5o+y7Ip4EI+U/q195cwfJD5IfHDHR6ANMBEwEWjwTlnmTAQpx0H/oH+ktCfti/5Rll0RD+KhvpmyZP4oy66IB/FI6d/aV878QeIjcNGroGlZS1BAjCOnoSteKUqErhAyiEdZCY14EI8U8cntAxFLEDLoH/QP17ZTnCNsFyGD/kH/SOEPbh8I20XIoH/QP9S2SXyQ+OCOj0AbQARphAwmAiYCTQQpS4TtImTQP+gfKf1C+0LYLkIG/YP+oTadskTYLkIG/YP+kdIvtC+E7SJk5PQPEh+Bi141Pi0RBlKLjJyGrnilKIlHWQmNeBCPFH7t9sF4VZZdEQ/i4fpoinPmj7LsingQjxR+7fbB/FGWXeXEY0J8yAF/1AFtgDZAG6AN0AZoA7QB2gBtgDZAG6AN0AZoA7XZwP8PgxegqOy+VxIAAAAASUVORK5CYII=;" vertex="1" parent="1">
          <mxGeometry x="41" y="-743" width="767" height="413.16" as="geometry" />
        </mxCell>
        <mxCell id="jz__pMLLjrS1bMTCTAv0-2" value="" style="shape=image;verticalLabelPosition=bottom;labelBackgroundColor=default;verticalAlign=top;aspect=fixed;imageAspect=0;image=data:image/png,iVBORw0KGgoAAAANSUhEUgAAAfUAAAHlCAYAAADsnmWKAAAgAElEQVR4Ae29TYxdx5Xn6e2selVAYwAXCgZq0SPSJmWlRaXyZSbJpGimRFFKKfVhyaJES6I+ipbs0gfbotpym6I9lg3RKnVRYlk90+oeDN1oQAP0gAZUqFVDxvSiN4MGZjXoXjV6OxtvY3Due/+X50Xej3Pfu3HevZH/xWXcj4g4EefrF3Hfe8mvPffcc4EHdUAfoA/QB+gD9IHh+8DXxIjbD+7woA7oA/QB+gB9gD4wYB8QnhPqAzYgF2NcjNIH6AP0AfoAfIBQJ9C5KqcP0AfoA/SBTHyAUM/EkFilseSKnT5AH6APHFwfINQJda7Q6QP0AfoAfSATHyDUMzEkV+YHd2VO29P29AH6AHyAUCfUF16h//CtK+EnP/9goUP6gFOyZIKiD9AH6APz+QChTqgvDFMB+q/+9rOFDumDQTxfEFNv1Bt9gD4AHyDUCfWFYUqoM6EgobCkL9AHlusDhDqhTqjTBxb2ASby5SZy6p/6hw8Q6kzonSf00y+9FbYffKSm30fCuE6aQHz9xpfhy1u/DM+cfbhmDGlkI7BSlWcu/DLc+vLL8Pd///fh1rUXBjU/L7tY5VjrwZZx/fga9VgOM7ZysRuhTqh3Cob73ng/bN7+L2Hr1/97Zb/yTOpIXWsgPXPt9wXIBGY4vvzy9+HqhVlwnzn7Qrh6K0+onzn7Vrjx5ZdJYQ49Ny2KBGhihxt/Pav/KnvOa5e24LTKsdbT89Fjmae97ovnBH8qHyDUCXUzWJuc8PTr74XN//P/DZu3/2txnPrlv9rXt9zDc6krbZr6lecCmxg02LV+eUPeDOSfJMbz3b+Q6XLuYz3/PtwqWTBBDsZx69aXZqijbdtSg7RtW9THYsi6AEG7uOxiLHGfvM4/br1tTKgfABh4ONV3n34+nPj0y3Dyd/9QQPvEv/6qOD99ae+nanIuz+WZgL04//TLIG2bxlgGdWmDhD20V9FN8y17fuavPw1lbyfK6s57r9Dzl5+GG/IRRsViqahz49PircGioGwaZxcghY8sOtYuxtI0Xz4n5Bf1AUKdUG8EalsnE2CffunNyn7lmdRp028V1KUPgOj1yWfocfLFq9K91/afBtTFGASYeC7lrWtvjV/jK7Ch39cnHwXgzUFT/0W7G28V44QMtJWxT+99uX9cGJ/0gXpSarjjjYV+HgOsauzoH+VUl8Vn9/vfCowBKffHHwVoOSY9TL7rgLqycKjTAcYt34+Yp43uG/rBAlD3LfNH/6j3ZWSPuL6+jv0HfUBW0b/6PoQ8hw9A9+gv9i88Z0ngW3yAUCfUW8HV4lRNULf0EdcpYFPx5Te8Dsbn60iO+KLcM9c+nX72jsStEyoSvwaU9FEk3gjq8T0ZZ1P/6AsJXkMYu2HsJnEdz1+uy3bqgIkeO/qHPGmLMdT1P57L7wNgJm10H9PnN96aviHRci16gN5hB9EnZJTpQMawSJtCb5PvIuixQifoezy3ej/RYylrL/dwxHVj22H+Wr60KfMv9MlyT7/URbUuCHUViHSUakdpo5smqH/3uUvFq/c2fTZDfe/z3TihxnLGCXa8KwZIABbUnSbdCOoAHuqVlbp/eV42nuJew04w7ns/GKq/OFfoS/VfJi/uX651u3ge0JXAUZ+X9SP34vZaD1P9Rgs1LV/6WLRNMQ4j1ON51I0/Hptuu99O4y9vxouK0sWospnuk+fd5KaDoEdCnVCf7i66cvgmqJ956vlw6p9/2kpuM9T3XhVrEGBOck92QTgAZ+xq9yVcfIs+hnoEoab+5XkxHtXP9F7UV90cpc0+WExe58ZjL6tbphOpFx8aqgAvFjyF/MmYq6BepWeRo8eAvuM3B1p+F22kj7qx6p0y5MFHil2zgqweP+rG7SELOivkR6/ddf9yDvvF/UtbHtRBWx8g1Bk4nSeORqg/+lTtZ+5lTlwHvHoQjHezgLj0rXdgi0IdSbyqf5FXJOsBQl3Gvqf38W4TsMK8ASRcN+phuiiY/PQw0ku9Ldu3Kext2Km3Hf/UrtHCrLC1WggU8msWX/IcB6G+pwvohGV7nRDqKqjoQO0dqExnTVDv8otySMaAjYxHJ8d4dyvPNTjK2ksd3Nc7Sd0v5t3U/3Q8EbzK+toDaPlvv2NZGKOeO8al5zgdQwQg1NVl3A4ybtyQb97vfZFven/yO/V4bNJn3Jeec9926m3HX6ZT6UPvvKFX6KrMTqhT1p9+xvNuctNB0COhTqhPdwrzOrzH334vAx6SqAavzGEGHlGixc5cA6qoH/0uW+4Vr18VjHW/0BXGMN2xTnZl+/pX/cRjRF9lc8QzKavAE4MkHlOVPN03zmMQy325JzI0lACq6bytel7iTl2PP9ZJrLNKP1ELI+0P0Efsi1qv++wkvqL8QveHdiwJ87Y+QKgT6oOBuiRFfWhwasePkyOgJG2Lz0CL33vv7TqlrbTRfd/46/2veuN+IbOp/6KdSt6QF38eWwBVQQP9oyyDujwDkDB+/XM3tK0aO56jLMagduRF/8VCZe87C8W9klfaJj0sAerFeNVPFgH3WCdtxi996vZyDv3rUkNe9y91Yvvr/qR/HtTBPD5AqDN4Fk4eHjv1eZx7kTZVr4cX6ZNtmaTpA/SB1D5AqBPqC0P9h29dCQL2RQ7pI7Wzt+kfr1/xerlNW9Zl4qYP0AeW5QOEOqHeK5guIxDktSheyYr86eejNa/ClzFOyiQo6AP0gSYfINQJ9QMPdQmS+DNR/VloUxDxORMtfYA+0BcfINQJdUKdPkAfoA/QBzLxAUI9E0P2ZZXIcXDHQh+gD9AHlucDhDqhzhU6fYA+QB+gD2TiA4R6Jobkynh5K2PqnrqnD9AH+uIDU6gfOXIk3HHHHUkPDxmrq6tJ5yA68phHLjJoD3tMedic9qA9UuR5D9/1kJFDfBDqcyxkPJwrFxk5BElOCznag1An1Kt9IIf4INQJ9aRvNnIIEkK9OgmWASKXBanHPBgfdt+iPWy6ItQJdULd4AMeCcVDBiFiS4xeCznag/YoWxgvco9QNyT0WMEeyTcXGUxaTFpx/HRxzfjol1/RHv2xB6FOqHOnbvABJq3+JC1ZFNAetEcXi8O4jxw2IYS6IaHHhs8loXjMI4cgIUTsAMlJV4wPu909dOUhI4d8RagT6typG3zAI6F4yMghaeW0cKA9+rVwyMEehLohoXOnbg+8WFc5BAkh0s7+HouTXGQwPuy+5WHzHOxBqBPq3KkbfMAjoXjIyCFpcZFlB2FOumJ82OxOqBsSerz79HCuXGQQIrZA9Eq+tAftEeezLq6Zr/rjV4Q6oc6dusEHmLT6k7S8FkAeNuciq19+lYM9CHVDQo9Xsh7BnouMHIKEELEn3px05RGDjA+7b9EeNl0R6oQ6d+oGH/BIKB4yCBFbYvRanNAetEe8aVz0egbqklSGfkiQDH0OOY2f9uhXTNEetEdO+aXrueQQHzNQX3SF0NReDNBUZ9HnYpRF+2hq7zGPXGTQHtyJNMXTPM8ZH/3yK9qjP/Yg1A2vXuOkk4sDe8yDUO9PsIsf0x60R5zPurj2yCUeMnKID0KdUE/6ZiOHIJGk55FQPGTQHoR6FxCP+/DwXQ8ZOcQHoU6oE+oGH/BIKB4yckhaXGTZFyY56YrxYbM7oW5I6LmuShkktiDJKTES6v2yOe1Be8R8WfSaUCfUuVM3+IDHAshDBiFCiCwKjbL2Hr7rISOH+CDUDQk9dmIP58pFRg5BIvanPfoFQ9qD9ojzchfXOeQrQp1Q507d4AOECCHSBTTiPnKAiMyJ8dGf+CDUDQk9DsRcHBjzuHz5cuBBHdAH8vOBlZWVbICLfBXn4y6vc1hkEeqEegH07e3tsLW1Nbhjc3NzcGMeop455mHFhsSzLNIIdfsOWhYHhHpLIHKlZXcwD11BhgS/JO21tbXBHceOHRvcmIeoZ455WLFx8uRJQr0lnwj1ORQGiHT5uiTuK4eVlszJQ1eQQagPK2ETsLRXkw8Q6vYNlGZIDvzg6/eeLk4AXO1wXZ9DBqFOSDRBgs+H5SOEOqHuujPsGk66vxxWWjIfAFfPretzyCDUh5WwCVjaq8kHCHVC3RUiXcNJ90eo2515bqivr4XjD4zC1u56ccj52vpyEi0/U1+O3pugwufLtQuhbs+DufGDr9/5+r34Qk3TF+VGG6Ow/fJ6eOT9zdpD6khdr6ROqC8XHl52ppx2dibUCXXu1FvAHTtcvcLr+txTRtPr9/WTa+HBtzZqYa5hL3WljUciJtR99OxhS8rozpaEOqFOqBPqpRAebbQDOuAuYJe2qRP1MqF+4fpX4dbnV8O51dXk85xXj/EY4+t5+21q5yWnaRx4bh2PtV5Vv23bo5+uS0KdUCfUCfVSMFleuQPkcSltq5LV+tZa8Tr/3OWNcPqZ9TAazbcAqIJ6kVxv3wwXIuCu7lwNN25/FW5c2Z0Z2+rqbnjj86/CreuXZu5XjV/uz5PAz135Ivz+D3/cJ79OziLP9Binc0y8EEktR8/JohvreKz1tEw9lnna6766PCfUCXVCnVAvhVkMalzfff/hcOf6PykOOcf9uCxLVCfOjsLjvz0eTp8fQ3/nvc3w6C82S+WXtdf3qqC+evFmuHX7i/DGzuwuGlCNd9iA/bWLs/W1rPhcJ/T4Wdk1kv616zfddvhtx1g27rp7q6uXwrXbX4U2eqvrz/Ksizl1Ne4uxmKZc9s6hDqhTqgT6vuhur5WCetH3j8etp5fKQ45j2GO67Jvxcu35gXqJ3fGX6g7+6ONsPtBx1CfwEbvyKdQvSK79dldfNUioC6Ztk3oYxk3w4XJ2wIPELYdY918y551BceyvqvudTGnrsbdxViq5rnIfUKdUCfUCfV9UD9+dlQJa4H2mR/dUxwAeFkpfcTJaWt3vFM/8fAobJ4ehQff3Ay7v94szuVaH3Hb+Lpyp47X6epV8ziRy+59/+6yLDlj9y6vy+WId/fTNhNIT+tVvMIv6l+/FLC4KHvVb+2zdb3JxxDTdupjCQBuOv4ZnY0/lpg+U4shvPXAMymxiCqVE+lJ6uuFjdaL7vuWkin2133P00b3jbFXjRv9o17dWPaN7eLNwm/QFiVkSX2rj12YfGwT+2AcD7gm1Al1Qp1QL4VvGahxzwJ1ATgSDcqtx/agLjv2ugNtqsoqqEt9Sd46CRc75QmwBAxIroAarqVtvHNHctdJVfqQRK3vIUnrvor+ot35eGz7Px6o61MvAtrU0+OTdvpa5ilz0OOVObwx+Rji3JWb048wynQA3Wk4y3yr5Oh6sa7Qvx4P+o/njjnM06awR8XHBvG4m+Yf14+vRRaO+FkrH6tYKKLvuCTUCXVCnVCfJh8kCAEyAF5Wzgt19C9lHdDlma5bdl4HdUADICmS6iQ5FlCdAH5cbw+wAAXaQW5cr+gv2kVK3XgxUXYPY9MwlXrWPlvVUzvvoh3mjbcZLYAxBtHeRxeAbqyrWTnjNyPxXGO9QO8AtjyP60x1FM9BzbGpjTy3jFvqxUc8fz1PqRtfo30VwGO9WX0M/VaVhDqhXvyXc/LX2HgcPB1U/U491et3nYiSQn0CLYFJnMR18owhDODidWlcIhHbE/gYanq3OQVYtCiw9jlvPd0O88R8tF30ubTROph5+2HY8dbJ0bCb6iRaZMT2mZlDxcKkro3MLfYHzFf3re9VzT+uH19rWXpRA53ofvU5bFLWH8ZVV2qoM6cfrJzOvyjXYoeOPzDj+YdhIDNFiXlUQV2+5Fa2Qx/fm/+LcjoZpYS6yJkmxeL1d/kOs6ijQIKEi8Sqx6vPp32rz6fluQYVrnXCjs+1HGuf89bT7ZrmCfDNQLz4VUG5Hqt0UydH66pvULfMX+tT5h9fT+9Fi7c6nVTpUd9vOtdQR5ynyCHoMxcZOfyZcUKdUK/9M7FVUF/kJ206IaWGOqBx7foXM58lyxiKBHz95r6fZCGZ652VHjPOi/ZRsp722/B6WOpNIaZeHVv6nMpokD2tF/c/HVv1a/FifCU/C4x3wNCVXpjEclGnTJ+6v6k+1AJL+tJ19vdd/vcF6toUc7O8YTDMP4Z4fC3+J4u4WD91OpHx4Yj7w/2mklDn63d+pt4C7rmsSjGPyp362vgPxFSBvel+3R+fQVJ66J2NUHegXlVZ95m6tEHylMQaQwUJt+737DoZF7srBRxJuNLvzGv1KIk37ciw6MDv6S19yrza1NOfUceQEPjF0JExybyhH+gAc5nZuZf8dBDj03Kr5GjZy4B67BNaP5b56/rxvOF72j+kDo5SncgbpcjHtB7Rtqkk1Al1Qp1QnyYbnTBy+DOxACDghPlNIaV2sngmJZKugKeAd1QPCR0/N0I9LaeoU7Kjhpw48Vv6lLZt6+FP2aIdrqUvwAvj1xDSOijgEr1+j9sDkiY50R8H8oS6ddxN84/nqa/lHDrVZZV+pU4McN2fjNl6EOqEOqFOqFcmDP6HLvZkak26VfWsSdxar0oO7/vZdBm6JtQJdUKdUK+EuiQl/terPhCwwtpabxlAoUwfX6nTM6FOqBPqhHot1GcSyPpaOP7AKMife5VDzsv+HOxMmxavDtu0a/pMvU1ffahrhbW1Xh/mxDH4Q55QJ9QJdULdDvVEgJ4n+RPq9v+AZh79so0/kLvQOaFOqBPqhDqh3qPFSheJnX0ME8hd2I1QJ9QJdUKdUCfUB+kDXUAwtz4IdUKdUCfUB5nQc3v9nhtcOJ/lvC0g1Al1Qp1QJ9S5Ux+kD3DhsH/hQKgT6oQ6oT7IhM6d+v6ETshRJ4Q6oU6oH3Cob29vB0kEQzs2NzcHN+ah6ZjjHV5cSDzLn39eWVnJJrfjz1rjP5FJUfI/dGkBQjEAjWJfPXroCjIk+Hnkr4MfXr1IOx8wXyfU7TlXGEWoE+ohxWrRawEEqEvg88hbB6ubx8L5354r/lgQbZ23rbV9vXNJqnzoNQ9CnVDPAuopAzGHIPFKKFhkpbDH/S8fD8/+zUPhe++fDYcOHUrmtznoCvpPaQ/IYHzYd9K0h01X/P/UWy5MmLRsjsWk1U5PKf3q6N3fKnbpAnU5Rg/eTagb4p4Qsfuwh648ZOSwyCLUDcENQKH0cK5cZOQQJCmBC59KKQO7dED98X++nXS3novvesyD8dGvhUMO9iDUCfWku7YcgiQlcFNDPd6lA+wpd+seMMxFBuODUNc5oItzQp1QJ9QNPjBUiMS7dEA95W59qLqKE6rHPAh1Qj32u0WvCXVDQo+V7BHsuchg0lpe0qrapQPsqXbrufiuxzwYH8uLjzivy3UO9iDUCXXu1A0+4JHgu5ZRtUsH1FPt1rueR1nyzUVGDhAR+9Ae/VmcEOqGhB4nlVwc2GMeTFrLCfamXTrAnmK37uFXuchgfCwnPuKcjusc7DEDdQmUoR9ilKHPIafx0x7Liamzr54sfr4GeFeVT/z8/nD06FHGzJJyH+NjOfFRlWNzsMcM1LFaSVWKIlP1jX7FKDhPVXrMIxcZtIf/TsS6Swfou96t5+K7HvNgfPjHRx0XcrAHoc7X70kXQTkEiSQBjwTflYymz9IBc5Rdf7be1Tzqkm8uMhgfhHqdn8/zjFAn1Al1gw8MBSJtd+kAe5e79aHoqilhesyDUCfUm/yw7XNC3ZDQY6V6BHsuMpi0fJNW2106oN7lbj0X3/WYB+PDNz7iXB5f52APQp1Q507d4AMeCT6ljDuPHSm+OLdxapTU3pIkU84DSTgXGTlAJCeb52APQt2Q0JFIUOaSUDzmkUOQ5JC0CHX7jtAzzhkfdrswX9l0RagT6kl3bkxatkBMvXAg1O12INT7qStC3WYXQp1QJ9QNPuCRUFLKINRtCRFAT73Ighwueu12SRkfOdmDUDckdBgcpYdz5SKDSasfSYtQt9vBM84ZH3a7eOTEHOxBqBPq3KkbfMAjoaSUQajb4UGo91NXKeMDNifUDckQypKSRrEHi4euPGTkECRevpvSHoS6PfaQs1LaAzIYH3a70B42XXGn3nJhkkOCR0JhkNiCJAebf/Po4XDf+fWwtnFv0jczOeiK8WGPC09dMV/Z7EKoE+pJkzx3IrZA9IIh7UF7AMRdlh7A9ZCRQ3wQ6oQ6oW7wAY+E4iEjh6TltQCiPfq1AKI9bPYg1A0JPV7RejhXLjIIEVsgpgYVP1O32wHx7hGDjA+7XWgPm64IdUKdO3WDD3gklJQyCHVbQgTQUy+yIIdQt9slZXzkZA9C3ZDQYXCUHs6ViwwmrX4kLULdbgfPOGd82O3ikRNzsAehTqhzp27wAY+EklIGoW6HB6HeT12ljA/YnFA3JEMoS0oaxR4sHrrykJFDkHj5bkp7EOr22EPOSmkPyGB82O1Ce9h0xZ16y4VJDgkeCYVBYguSHGxOqNttzfjop66Yr2x2IdQJdb5+N/iAR0JJKYNQtyVEAN1rIcedut0uKeMDds/BHoS6IaHD4Cg9nCsXGTkEiVeCT2lz/kU5Ozw845zxYbdLyviAzXOwB6FOqHOnbvABj4TiISOHpJXDIisniNAe9oWJh64IdUNCRwCi9Ei+ucggROwB72Fz2oP2QB7rsvTwXQ8ZOcTHDNRFaUM/xChDn0NO46c9+hFT31m7Kzz7Nw+FjVMjxkeP8hzjox/xgZybgz1moN7lyq2sL1Fc2f0u74lRuuyvrC+PeeQig/box86QX5Sz2wEx7xGDjA+7XWgPm64Idb5+T7oIYtKyBaKAJGXSItTtdiDU+6mrlPEBm+eQrwh1Qp1QN/iAR0JJKYNQ7yeocoBI6gUpgJsyPiAjB3sQ6oaEDoOj9HCuXGTkECRi96Hbg1An1JG/UpRDjw/oJId8RagT6typG3xg6EmLUCfUAa4U5dDjAzoh1A3JEMqS0sPwORjFS1e0hz3Re+gqpQxC3W5r5KyU9oAM5iu7XWgPm664U2+5MMkJuAwSW5DkYHP+RTm7rQFcxoddZx668pCRwyKLUCfU+frd4AMeCcVDRg5JK4dFFhYOtEe/Fg452INQNyR0BCBKj+Sbi4wcgoQQsSfenHTlEYOMD7tv0R42XRHqhDp36gYf8EgoKWXwM3VbQsTC3WtxQqjb7ZIyPmD3HOxBqBsSOgyO0sO5cpGRQ5B4JfiUNifU7fDwjHPGh90uKeMDNs/BHoQ6oc6dusEHPBJKShmEuh0eSPAp7QEZOUBE5uKhKw8ZOdiDUDckdAQgSg/nykVGDkGSQ9Ii1Al15K8UJfOV3b9S64pQJ9S5Uzf4QOpATL1wINTtSRfQ87A5F712u9AeNl0R6oaEjiBH6eFcuchg0rIFIqFu11NqXXnGOePDbnePnJiDPQh1Qp07dYMPeCSUlDK4U7fDg1Dvp65SxgdsTqgbkiGUJSWNYg8WD115yMghSLx8N6U9+Bfl7LGHnJXSHpDB+LDbhfaw6Yo79ZYLkxwSPBIKg8QWJDnZnBDpl81pD9oD+birklAn1Pn63eADHgsgDxmECCHSFTx0Px6+6yEjh/gg1A0JXTuvnHs4Vy4ycgiSHGzOz9TtMEe8e8Qg48NuF9rDpitCnVDnTt3gAx4JJaUMQt2WEAF0r4UcoW63S8r4gN1zsAehbkjoMDhKD+fKRUYOQeKV4FPanFC3w8MzzhkfdrukjA/YPAd7EOqEOnfqBh/wSCgpZRDqdnggwae0B2TkABGZi4euPGTkYA9C3ZDQEYAoPZwrFxk5BEkOSYtQJ9SRv1KUzFd2/0qtqxmoi7ChHwKRoc8hp/HTHv2Iqe+s3RWe/ZuHwsapEeOjR3mO8dGP+EDOzcEeM1BPsYLTfYri9HWKczFKin51nx7zyEUG7dGPFTx36nY7INY9YpDxYbcL7WHTFaHO1+9JF0FMWrZAFJCkTFr8i3J2OxDq/dRVyviAzXPIV4R6T6F++fLlwIM6oA/QB/ruAysrK0k3BgAuoW5bbBHqPYb69vZ22NraGtyxubk5uDEPUc8c8/BiIyebSX6SBQehboOt1+KEUO8x1CUBrK2tDe44duzY4MY8RD1zzMOLjZxsdvLkSUK9h/wg1HtoFFnRyQqYUGfSzgkCnEte/kyot9uhc6c+B2xFaTl80YFQzyv5EWa0Z44+QKgT6km/3YtVEKG+/ATK1+/Lt0GOEOGc+uVXhDqhTqi3ePvQ+vX7aBTWTp4Ko9PbxSHna3JvCZ/JE+r9Sr7L8AHKzN8HCHVCnVBPAPXR918K61d/V3tIHc8kS6jnn9A9/Ymy+ulPhDqhTqh3CPXRZBc++vHVWqAL8KWOJEa0SZ0kCfV+JuHUdmf/B8vuhDqhTqh3BPX1jY3w7Isvj0HdAurSRtqmTr5dQf3C9a/Crc+vhnOrq8nHnFon7D898FZXd8Mbn38Vbl2/tDR/sfqstR78Jq4fX6OeZ0moE+qEekdQf+X1N8Nrb19pDXVpI22rAn99ay1sv7wezl3eCKefWQ+j0XyJ2Ar1c1e+CL//wx/DjSu7pWPqQ+Kq0tW891dXL4Vrt78q5i1zl+PaxXwWLWLTW7dvhgtLWIh1DfW2/jeV37AQtdbTPqbHMk973VdX54Q6oU6odwT1X3z06T6or135KBx99NlwaON0ODy6Lxw+fn9Yeea1sP7zv5u+fheoS9uyoD5xdhQe/+3xcPr8evF8573N8OgvNkvrlrXX9yxQR2K6dv1m5W5cJzLdf5tzQNQLnHXysIiJx3Lh+hfhjZ3uwV43ljY6LKtb1fdBhnobPZXVrbvXRSzU9T/PM0KdUCfUO4D6+vp6AWa9U7/3nY/C4a0HCqCvPPVKuPuFt8PRx38QDm/dH+79yYf7oC59xEG8tbteQP3kzvgb82d/tBF2P0gI9Ys3xzu6navhxu2vSnerXSSyKvjE8+/qukreajHfNPCuGnvVWKrqt7lf1TehPvt2q0pPbXQtdbuIhbYym+oT6oQ6od4B1M+ee3gf1I/unA+HNs6Eey7/ZuZLc6P3Pimu8UU57PFM4BwAACAASURBVNSljzhgt3bHO/UTD4/C5ulRePDNzbD7683iXK71EbeNry079SJJXb8UsGMv+xx0msgm4Mfr6rguEieeYyeMnTHuS4lX/ej7wuQjAHx2j/GgTdmr5Fge2lbJQ5+QHesrvl6N5itjwZykLvoTPWiZeqz6Puai5ccyMAfpH21nZY4/Nohlxn1LWz2OeG7F+Bvmp+eI/sv6lIUSnkt56/rV0s/U6+Yqsqp8AfflOx0Wneu+pA30qMcIG+i+LfON6+vrWA+QB1lF/5HOtb31uON4kGdVB6FOqBPqHUB998mn90H98OZ3w8rTr84AXf/MLYa69BEH6tZje1CX1/B1R9w2vm6COpIsoDEGwf5drCSuIlmrzyjRFgkLgMW1jOXClb0v1+E5ZGGs076jL1Wdu3Jz+ip8msi1/AlItDwZ0xuTz8XL5GHM8RgwFl0iQeu6aA+ZGJfoZu/eHnTRX9lY5Fn81gD96UQ/A42SL6BV9d0Edcv8ZIxWO2g9ldnUOtfCzyJfKNNBk851m0LXk+9Q6HHK/bhe03zj+vG19IkjfraIDtBnWUmoE+qEeiKoy+foK0+9vBDUddDWAV2e6bpl501QjxN/DC30WSSnki9d6fZoGydN9FEFn6q+0Q7lOCGOv/g1hV+U/FFXyjJ54zHuX7TodrotQK2fz8wZkFWLDamr6+j+tG4wB32vqFvs5PbGiHnIWOJ+q/ouG4Pcw6H7xD2UZTLwTMpZO4wXMLGeMDe8ycF101yrfEHDEX3phY+MKx63blOM2wh1Pdd4vnId9xtfo30VwOfVAfotKwl1Qp1Q7wDqpa/fd58rPk+/580PZsB+z4/fN79+10GbEupI7Ei8IneaMCOAWxIX2sY7eswH8uKkVtW3tJNn0h8OvPptWkCM5zIGjpZnhvrkFaluO52H+kwec9Y6lHoxYMrmjjlgbnGpZaPurdt7sJ+OpwJW8RhQX0r0p2XgeQwjud/WDrFeIC+eI64xjipf0PfjvjHueL66TTHnCj3F9ermi2d6QVHWHvbWi51FdYB5lpWEOqFOqHcA9bIvyq29+/H0i3J3PflSWHn+zXD0oaeLb8Hffemnpi/K6aBNCvXoc1AkWJRItGWJDGMsA4BOXjr5IdHpfqv6Rl1AXOrN7BBroDsdW0kSR7862aK+LjGHeKx74xjD1QoYyNX91cnQYylkTubrDXWMu60dYr1Y51oGSJm/vh/3DV11AfWm+cZjKbue3osWxovqAPMsKwl1Qp1Q7wDqElylP2l79+NwdLJjL37Sdt9DYeXFt80/adNBmwrq08QYvTYW2WXPiqQaJSmpq5OtHnfRz2TRAJAhYeIa9cv6KFss6KSNvurgjDql8krmgvEUY58sCMr6nx1H+R9Z0XV0f3osGF+ZjNmxjGVIvaLfyGboR/ct7eMxzPZZ/to8bjevHTAmvMHAddNcy3xBxqTvT/0z+uglnq9uI31gDLGedL2m+cZjKbuWPmRhHMuB/Hl1ILKqDkKdUCfUO4J6qj8+g+B96J2NUHegXlVZ9Zl6064hTm6S+CRRIUmLvDh5SZ/X1B+vifuoSmo6qWIeZX3Lz+30jlGSeJw8pR2SaZW8KRSiV9nj+3uvt6v61zKnfTUApmospTJkV6760/opk1fXt9YXdIuyVHYEJIsdivFFuizzl1J5NXPFOKVs0oHUkf71fHUbeV6lJ13PPF+1sJppP1kM6jjR81hEB7qf+JxQJ9QJ9Y6gPtQ/E1skoprdKhIgkhMSF35mI2DTcEOSkXp4VvqqWL3yx44Ffcd/ghYJUPorXuPj9/TqL6QhCU9lKhjKmPRzyMNYdf+FjAhMcfuyOmWQlXYxYOK+9Fj2jSMGRjQuLMhgm6q+437LdKT1UzY/zGXaVsZWYgdtd6l77WL1Gwz0VchTcxVZVb6g71t1rttI31V6iutpvZX5XVxfX8u5nh/Ota10/210gDmUlYQ6oU6odwR1CTD85yz8D12qXw+WJSLeo77oA934AKHec6ivFn9gQf7IAo8+6MD6/6nzv17tJkEx0VOP9IF2PhBDvQ95k2NYDc8991z4mvxz5MiRcEeLneQ8dT1kiFHnGVubNh7zsEJ9mojkv2I9eSqMTm8Xh5yvTf571mmdmi+9dFmn6jP1LmWwr3YJmPqivrr2gRjqbXLoPHU98m4O/CDU51jIeDhXa6g7AduSGAh1AsTiJ6wzbD8h1Hv++t0DVB4yclhpySqWUB92wiOwaL/cfYBQJ9RdXvET6stPptypL98GuQOF81u+jxHqhDqh3uJVP3fqy09aBAdtQB+o9gFCnVAn1An1yr9OxeRZnTypG+qmjz5AqBPqhDqhTqj36AuNfQQFxzScBQyhTqgT6i2hvr29HSRwhnZsbm4ObsxD0/Fc4926j3YZYDzNZWuHeUp+ko8JV1ZWkv+MWL48zC9a2xYR/ElbC9Dit5UeziXBwoM66NIHfvDh/xXe+qf/jH7F2OrUBwh1G2y9+EGo9xTqEig8qIOufGDt/vPhic/+FE698CH9irHVqQ8AVqlLj81UDr+eItR7CnUPB/aQkUOQSLLy0FVKGfe/+w8F1B/72/8eDh9J+7o05TwAjlxkMD7su1wPm+dgD0KdUE/6eVgOQTJ0qK9sPVEAXXbqcmw++6ukNvdIvrnIYHwQ6liodlUS6oR60gTPpLX8pIVdOqD+6Mf/LeluPRfgesyD8bH8+NAwzcEehDqhTqgbfMAjwaeQEe/SAfaUu/UU89CJV85zkZEDRGgP+8LEQ1eEuiGh55pQPBIjk5Y94FPYI96lA+opd+sp5pFrDDI+lhsfsV/lYA9CnVDnTt3gA0MEVdUuHWBPtVsfoq7i5C7XHvPIASJeuqI9bAsgQt2Q0OOA93CuXGQwadkCMUVirNqlA+qpduu5+K7HPBgfy4uPOK/LdQ72INQJde7UDT7gkeC7lNG0SwfYU+zWu5xHWeJNsQAqk+MxjxwgQnvYFyYeuiLUDQk9DniPYM9FBpOWPeC7tHnTLh1QT7Fb73IecezhOhcZjI/lxAf8KC5zsAehTqhzp27wgSFBxLpLB9i73q0PSVdxUtfXHvPIASKiMw9decjIwR6EuiGh60DPyYEZJP3aJXRlD+suHVDverfe1TziuNPXucjIASI55cQc7EGoE+rcqRt8YCgQabtLB9i73K0PRVd6kVB27jGPHCBCqNs3Bx66ItQNCT0OeI9gz0UGk5Y94Luw+fEffBjO/uw/7DsefP8/Fn8idueX/2nfM6l/5u1/Hw4dOtzJAq+LecQxF1/nIoPx4RsfsR/F1znYg1An1DtJ5HFw4DqHIJG5DB0iR1dPFVBfP72T1N456Aq+62FzxgehDn/rqpyBujjx0A8JkqHPIafx0x79iKmV9TNTqOfkX0OfC+OjH/EBP8rBHjNQ72qlUNWPKK7qWVf3xShd9VXVj8c8cpFBe/RjJ8Kdut0OiHuPGGR82O1Ce9h0Rajz9XvSRRCTli0QBSQpkxahbrcDod5PXaWMD9g8h3xFqBPqhLrBBzwSSkoZhHo/QZUDRFIvSAHclPEBGTnYg1A3JHQYHKWHc+UiI4cgEbsP3R6EOqGO/JWiHHp8QCc55CtCnVDnTt3gA0NPWoQ6oQ5wpSiHHh/QCaFuSIZQlpQehs/BKF66oj3sid5DVyllEOp2WyNnpbQHZDBf2e1Ce9h0xZ16y4VJTsBlkNiCJAebE+p2WwO4jA+7zjx05SEjh0UWoU6o8/W7wQc8EkpKGYS6HVCEej91lTI+YHNC3ZAMoSwpaRR7sHjoykNGDkHi5bsp7UGo22MPOSulPSCD8WG3C+1h0xV36i0XJjkkeCQUBoktSHKwOaFutzXjo5+6Yr6y2YVQJ9T5+t3gAx4JJaUMQt2WEAF0r4Ucd+p2u6SMD9g9B3sQ6oaEDoOj9HCuXGTkECReCT6lzQl1Ozw845zxYbdLyviAzXOwB6FOqHOnbvABj4SSUgahbocHEnxKe0BGDhCRuXjoykNGDvYg1A0JHQGI0sO5cpGRQ5DkkLQIdUId+StFyXxl96/UuiLUCXXu1A0+kDoQUy8cCHV70gX0PGzORa/dLrSHTVeEuiGhI8hRejhXLjKYtGyBSKjb9ZRaV55xzviw290jJ+ZgD0KdUOdO3eADHgklpQzu1O3wINT7qauU8QGbE+qGZAhlSUmj2IPFQ1ceMnIIEi/fTWkPQt0ee8hZKe0BGYwPu11oD5uuuFNvuTDJIcEjoTBIbEGSg80JdbutGR/91BXzlc0uhDqhztfvBh/wSCgpZRDqtoQIoHst5LhTt9slZXzA7jnYg1A3JHQYHKWHc+UiI4cg8UrwKW1OqNvh4RnnjA+7XVLGB2yegz0IdUKdO3WDD3gklJQyCHU7PJDgU9oDMnKAiMzFQ1ceMnKwB6FuSOgIQJQezpWLjByCJIekRagT6shfKUrmK7t/pdYVoU6oc6du8IHUgZh64UCo25MuoOdhcy567XahPWy6moG6KG3ohwTJ0OeQ0/hpj37E1Mr6mfDEZ38K66d3GB89ynOMj37EB3JuDvaYgTpWqKlKUVyqvtGvGAXnqUqPeeQig/awra7FV1PanDt1ux2QN1LaAzIYH3a70B42XRHqhlevCECUHs6ViwwmLVsgim+ltDmhbreDZ5wzPux2SRkfsHkO9iDUCfWkbzZyCJLUwEVCSZm0CHU7PDzsARmMD7tdUsZHTvYg1Al1Qt3gAx4JJaUMQt0ODyT4lPaADELdbhfaw6YrQt2Q0BGAKD2cKxcZTFq2QBTfSmlzQt1uB884Z3zY7ZIyPmDzHOxBqM8J9cN33BFe+cafh3/x9T9LcnzyF/84Sb96vB4yPvvLr2cxDw9dpZTxyV9+I/y7x94J/8sd/4T2MMZsSnsgDhkfzflT8qzkW0LdtgAi1OeEujha+Edf40Ed0AfoA/SBxD7w8jf+nFA3sopQNyoKr2fwmlRW2oQ6FzX0AfoAfSC9D/znP/sfCHUjqwh1o6KaoI7XaV2VHq/+PGTw9WLz60X4TEp78PW73Q4e9oAMxke1XfRi6cbX/4xQN7KKUDcqqg7qEqD6eRfnHp8fecjI4YsnYk8PXaWUwS/K2T6P1LGb0h6Qw/iotovkVYBdzmmPal3Bn6Qk1An1zhck2sGYtGyBKDpLmbQIdbsd4L8p7QEZjI9quxDq1bqB/5SVhDqhTqgbfMAjwaeUQai3T5Ap7YFkTKhX24VQr9YN/KesJNQNCT1WnAR77HBxnUWvPRKKhwwmLXtgprQHoW63A2I3pT0gg/FRbZc4x9Ie1bqCP0lJqBPq3KkbfMAjoaSUQajbEqJOjintATmEerVdCPVq3cB/ykpC3ZDQY8VJsMcOF9dZ9NojoXjIYNKyB2ZKexDqdjsgdlPaAzIYH9V2iXMs7VGtK/iTlIQ6oc6dusEHPBJKShmEui0h6uSY0h6QQ6hX24VQr9YN/KesJNQNCT1WnAR77HBxnUWvPRKKhwwmLXtgprQHoW63A2I3pT0gg/FRbZc4x9Ie1bqCP0lJqBPq3KkbfMAjoaSUQajbEqJOjintATmEerVdCPVq3cB/ykpC3ZDQY8VJsMcOF9dZ9NojoXjIYNKyB2ZKexDqdjsgdlPaAzIYH9V2iXMs7VGtK/iTlIQ6oc6dusEHPBJKShmEui0h6uSY0h6QQ6hX24VQr9YN/KesJNQNCT1WnAR77HBxnfj68uXLgQd1sCwfeOsnPw0v/eoPQcpljYFy6f/wgZWVlcbNRJxjuciyQZ5Qd4T69vZ22NrayuLY3NzMYh652IPzyCOucrej5EABO6FuA3S8ObRcE+qOUJeAXVtby+I4duxYFvPIxR6cRx5xlbsdT548SagfOdL4lsIC76o6hDqhPhecCXVCJHcAcX7d+zihnvY/bhLQz0BdPrMY+iFfPPGYg/zf1/hvAeW8Saa8cmq1Ux+NwtrJU2F0ers45HxN7vVkp0+od5/w+mJbjoO2TeUDMdTr8mbbHFvXl/WZFz+s45mn3gzUq7bzXd2XAXbVV1U/Xt8mjb/EUTUe3LdCffT9l8L61d/VHlInVdBZ+yXUmfitvsJ69BX4QAx15MeyMs6xOfGjbL5d3SPUe/L6fTTZhY9+fLUW6AJ8qSNBgjYIGM+SUGei9vQ3ysrD3wh159fvXa0UqvrJaaUVryKr5oz7dTv19Y2N8OyLL49B3QLq0kbaLiPhEep5JNll+A5lHlzfIdQJ9dav64f4+v2V198Mr719pTXUpY20rUqS61trYfvl9XDu8kY4/cx6GI26SyaEene6rLIf71PHufkAoU6oHwio/+KjT/dBfe3KR+Hoo8+GQxunw+HRfeHw8fvDyjOvhfWf/9309btAXdqWBf6Js6Pw+G+Ph9Pn14vnO+9thkd/sVlat6x90z1CncBp8hE+p4/EPkCoE+rZQ319fb0As96p3/vOR+Hw1gMF0FeeeiXc/cLb4ejjPwiHt+4P9/7kw31Qlz7i4NnaXS+gfnJn/I35sz/aCLsfEOqxnnhN8NAH/HyAUCfUs4f62XMP74P60Z3z4dDGmXDP5d/MfGlu9N4nxTW+KIeduvQRJ6at3fFO/cTDo7B5ehQefHMz7P56sziXa33EbS3XXe3UL1z/Ktz6/Go4t7q6bw6WcQy1zpDmXYz1+qVs7bNsW1jlW+shJuL68TXqeZaEOqGePdR3n3x6H9QPb343rDz96gzQ9c/cYqhLH3Fgbj22B3V5DV93xG0t11aon7vyRfj9H/4YblzZ3TdGkdOHRGOZr6UO5irzxXHr9hfhjZ3ZBcvq6m544/PhLGYKGyWG+urFm1Odie48F3pd+mDbvqy+YK2n/VSPZZ72uq+uzgl1Qv1AQl0+R1956uWFoK6DsA7o8kzXtZ5boI5Ecu36zcokrROPVXZcb3X1Urh2+6tw7eIsPON6XV1XyROoxzBa3bkabtz+KtxKDEXL3KrG3dS2sFHC8Rd6u30zXFBvawTyVQvBpvG2fT6PD1bpcp6+4vFW9R3Xa7ruYixNMto+J9QJ9eyhXvr6ffe54vP0e978YAbs9/z4ffPrdx1sS4P6xZvhliTrCdjKoNtF4ukqCWqd1Z1XySuDuvSD+l6Qqho7xlFmh6o2cr+wUSKoY0zL1M08Pohxx7qcp69Y91V9x/WarrsYS5OMts8JdUI9e6iXfVFu7d2Pp1+Uu+vJl8LK82+Gow89XXwL/u5LPzV9UU4H27KgDhhgx162W50mngn4p6+tI4gg0eE5kmnZK28AAn1fmHwEgF00xoO+ioWH2iWK7mJ5aFsnrwrq0l/xTO1GMTZ8lyCWh/lJ22ndRh2NX+uXzatu3HXzncq/fqmYQ1nfUqfoIx5f9F0JzEPb48F7/qp4y1LmG+gXJd56TMdg6P+HH5Z/zIGxiP71uUVWnS51X/AzmZtuE/ubbqPrYZ6xP+/5TLW9ZR663/g6/rgjliX159E3xgY9xiWhTqhnD3Vx+tKftL37cTg62bEXP2m776Gw8uLb5p+06WBaBtSREAAnSVZlny9L4pGEAmjKuNEWyQzAw7XUuXBl78t1eA5ZmPu072iBcO7Kzenn3NPEqwCBhKflyZjemLzer5JXzFH1g3HszWnv83WdcNGflqfnN52H6hs60jBsnFfFxxRN84V8jA/jnbFZ8VZmb35lekU/esyFLeEDkZ1m9Ddn/zK32O+gO/iLtkVhq6hN2VygA/SBseq+0E78e5/u1Fx1m0J+hZ3iek32juvH1xizlPGzWG+Yi7a5tCliV81F91l2TqgT6gcC6qn++AyC6qF3NkLdgXptyqbP1McQ3/ucFIkUyQ2yimSidrC4r9ujbZxAUbc2wZb0jXYoxwlsPNZp8qpJVFXymqG+97m/TqJN87PoCHPRpZ6X3C8bt2W+eqzof8Y+ky/+xfYZz2sP9FXzkD6lP+wWY+hjjPP0j7ba7/TYRbaeH+o3ySrTZVVfGoSYq96ta/ny3NK31IuP2N5xv/E12lcBvEkHRX+G+IIcKQl1Qv1AQD23PxOLpKSTM5KlTmYS5JZEg7bxjh7JAvLiJFTVN+QCIkW/k+TUBFhpWyWvGeoR4CY776b5Vc0jTsZ186oat2W+hfxokaPBiD60PvU57FI1DxkbDqkztseerhbtX9sFutaQ1+OyyqrygZm+8CuHGt3BZhr8lr5jfUHfOr70WMrkyD3I0vqw6iDuH2OqKwl1Qv1AQF2CAP85Sw7/oYvABkmmrESSl3lXJYYyYOlkM28SRBLTyW8sa7JTr/lSH5IV+tDzkGcaHqiLUkNQ7pXNu2p+ZXWlD60jjKlqXkX9kte6kBnPBeOejrUGTJY+pv2ojxC0DH0O8GIui/av24/P9xYM8bh0XT2m+Bz6jvWmbTWdR43uYvlybet7/IsP6KhoV3xssPd2TI+lTM70XrTbtuog7l/6azoIdUL9wEAdwTD0/3p1mshKknfZsyIxREllmmxK+pBnWDQgoVqSIPSrQYh7GrjoS+9cUA8l6kA+7ldBHfV1n3UJMZ6fRUdN85IxYhx63Linx4b5oCzk14DJ0of0VTdnyEI5ng8+EhkDrG6MTf1jDoWNornocVnngnpal/EYpv4eydP+FreRa1Pf0ef+0q6pXz3PQs5k8R3PAfIX0bf0X3YQ6oT6gYP6NBDkv2I9eSqMTm8Xh5yvTf571mmdisDxeF71mXrTKj+GjySa4nWrSnwx1KTPa+qP18R9VCWhOImJXsr6Ln5HrhYWkhxlTDrZSTtcV8krkmq0EIE8/VGEjEOPrWl+Jh1FCRp2mNnJTXbqcbJumm8xVmUfGX8MkNI+5K2HaqfnDB8d63J251wGw3n7n8qZQPDG53vfa8CzeFwWWVU+oPsqm0eZ7nQbeW7q22DvuF99DRmxX0InFh3o/tCuqSTUCfWDC/UlArspMOV5FdSLQFeAjPuKkwkSA37mhNf1ACjaSz08i7/NLHUAT6kDaKHv+Gc2SFhSt3iNH722jPsr6ik4xc8hT/e7N9a916GYi5Tx2Ormh7pNOtLyLfPCuOP5xPMt5EfzF1l6wSB9aPlT3aqfCmIesT3gE9CZlHps0Nu8/Rfzmyxo9Mc26LdsXE2yij7Vx0wYr+5rXqhb+pY6eoxl9tZjkfr6Ws61vnGuIa/7l+ex7nR/0r/lINQJdULdGCyWgOqyThXUu5TBvsaJcp7kSd3ZIEM9+eqJUCfUCXVC3bQDyDk5E+q+4MnZl5Y9N0KdUCfUCXVC/YD+T3bLBhDld7+YItQJdUKdUCfUCfUD7wO5LDAIdUKdUCfUmdB76gO5gIbz6H5HXqVTQp1QJ9R7mtD5RTm/RFiVIHmfNhiaDxDqjlBfXV0NPOw6+Owvvx7CP/pacch5k+4uX74ctra2stl1EuoEytCAwvEu32djqNflzbY5tq6vg/TsueeeC1+Tf44cOdJ6V3zHHXe0auMhQ4zXdlxt68s8/sXX/2wKdTlv6oNQX35CYVKnDegDy/WBGOp1eTPOsTnxo27eiz4j1FsuTETh80J9e3u7+F+KxLGHfmxubg5+DkO3Acc//Dg6aDaUHCgbnJWVlcaNEKHebtOMxQCh7gh1cWYe1MGyfODtyz+h/zEGe+EDhPp8wAa460pC3Qnq4sQ8qINl+sD9b/8f4e7VDfohY3HpPlAHJTzjTn0+8BPqTlCHo7Kcz1Gpt8X0trL1RHjisz+FzWd/1fjak7peTNfUXzf6I9Tn0yOh3lOoe3wpxEOG1xcXUydSD12llHH/u/9QQP2xv/3v4fCR5s8zF9FnynlgXLnIYHxUg4tQr9YN4qCsJNQJ9aQ7NyYte2CmAhV26bJT99itp5qHTmC5yGB8VMcHoV6tGx0L8TmhTqgT6gYfGDJEsEsH1B/9+L8l3a0PWVc6QXrMg1CvBhehXq0b7afxOaFuSOix0iTYY4eL6yx67ZFQPGQwadkDM4U94l06wJ7ys/UU84jjKRcZjI/q+IhzrIfNc7AHoU6oc6du8AGPhJJCRrxLB9RT7tZTzINQr4ZfrJv4eqj2INTnszmhbkjoZUGiHU7+XKxcd3l88hf/uNP+ysbmIUP+1GOZ7C7vecxjiDJu/k+Hwr977J3K4389diqJbYaoqzJ/9JgH46M6b+LPcCO/eixOuFNvCcScjCJJQDsdz8d/B596oB7oA/SBrn1A8m1O/Ig3il1ec6fecmEiyhfneuUbf06oT/5Dm64DmP0RCvQB+oD2gZe/8eeEupFVhLpRUXolJVA/fMcdQRyt7LVdF/c8Xv15yODrxerXi7GfdGmP/+2+Zypfu+tX8v9256/D3/7F/9ipH3c5j1hHuM5FBuOjOT4kz0q+5U7d9hk7oT4n1DXkU5x7OLCHjBw+o8LbmRR21n12ZY+qb7zjS3Jx2fU34buah9ZNfJ6LDMaHDVRifw+b52APQp1Q57ffDT7gkVC6klH1jfcY5rju+pvwXc0jBrm+zkVGDhDxAq6HzXOwB6FuSOg6meTkwAySfu0SurBH2106wN7lbr2LecQxF1/nIiMHiOSUE3OwB6FOqHOnbvCBoUDk+A8+DGd/9h/2HQ++/x+LPxG788v/tO+Z1D/z9r8Phw4d7sQXhqKreKEQX3vMIweIEOr2zYGHrgh1Q0JfRrB7JBQPGUxa9oBPaY+jq6cKqK+f3ukE3HFM6OuU84CcXGQwPvoRH/CrHOxBqBPqSZN8DkEiAT90iBDqdnggwXvYnPFhtwvtYdMVoU6oE+oGH/BIKCllEOq2hAigey3kCHW7XVLGB+yegz0IdUNCh8FRejhXLjJyCBKvBJ/S5oS6HR6ecc74sNslZXzA5jnYg1An1LlTN/iAR0JJKYNQt8MDCT6lPSAjB4jIXDx05SEjB3sQ6oaEjgBE6eFcucjIIUhySFqEOqGO/JWiZL6y+1dqXc1AXYQN/RCIDH0OOY2f9uhHTK2sn5l++z0n/xr6K2GcqgAAIABJREFUXBgf/YgP+FEO9piBeooVnO5TFKevU5yLUVL0q/v0mEcuMmiPfqzguVO32wGx7hGDjA+7XWgPm64Idb5+T7oIYtKyBaKAJGXSItTtdiDU+6mrlPEBm+eQrwh1Qp1QN/iAR0JJKYNQ7yeocoBI6gUpgJsyPiAjB3sQ6oaEDoOj9HCuXGTkECRi96Hbg1An1JG/UpRDjw/oJId8RagT6typG3xg6EmLUCfUAa4U5dDjAzoh1A3JEMqS0sPwORjFS1e0hz3Re+gqpQxC3W5r5KyU9oAM5iu7XWgPm664U2+5MMkJuAwSW5DkYHNC3W5rAJfxYdeZh648ZOSwyCLUCXW+fjf4gEdCSSmDULcDilDvp65SxgdsTqgbkiGUJSWNYg8WD115yMghSLx8N6U9CHV77CFnpbQHZDA+7HahPWy64k695cIkhwSPhMIgsQVJDjYn1O22Znz0U1fMVza7EOqEOl+/G3zAI6GklEGo2xIigO61kONO3W6XlPEBu+dgD0LdkNBhcJQezpWLjByCxCvBp7Q5oW6Hh2ecMz7sdkkZH7B5DvYg1Al17tQNPuCRUFLKINTt8ECCT2kPyMgBIjIXD115yMjBHoS6IaEjAFF6OFcuMnIIkhySFqFOqCN/pSiZr+z+lVpXhDqhzp26wQdSB2LqhQOhbk+6gJ6HzbnotduF9rDpilA3JHQEOUoP58pFBpOWLRAJdbueUuvKM84ZH3a7e+TEHOxBqBPq3KkbfMAjoaSUwZ26HR6Eej91lTI+YHNC3ZAMoSwpaRR7sHjoykNGDkHi5bsp7UGo22MPOSulPSCD8WG3C+1h0xV36i0XJjkkeCQUBoktSHKwOaFutzXjo5+6Yr6y2YVQJ9T5+t3gAx4JJaUMQt2WEAF0r4Ucd+p2u6SMD9g9B3sQ6oaEDoOj9HCuXGTkECReCT6lzQl1Ozw845zxYbdLyviAzXOwB6FOqHOnbvABj4SSUgahbocHEnxKe0BGDhCRuXjoykNGDvYg1A0JHQGI0sO5cpGRQ5DkkLQIdUId+StFyXxl96/UuiLUCXXu1A0+kDoQUy8cCHV70gX0PGzORa/dLrSHTVczUBelDf2QIBn6HHIaP+3Rj5haWT8TnvjsT2H99A7jo0d5jvHRj/hAzs3BHjNQxwo1VSmKS9U3+hWj4DxV6TGPXGTQHrbVtfhqSptzp263A/JGSntABuPDbhfaw6YrQt3w6hUBiNLDuXKRwaRlC0TxrZQ2J9TtdvCMc8aH3S4p4wM2z8EehDqhnvTNRg5Bkhq4SCgpkxahboeHhz0gg/Fht0vK+MjJHoQ6oU6oG3zAI6GklEGo2+GBBJ/SHpBBqNvtQnvYdEWoGxI6AhClh3PlIoNJyxaI4lspbU6o2+3gGeeMD7tdUsYHbJ6DPQh1Qp07dYMPeCSUlDIIdTs8kOBT2gMycoCIzMVDVx4ycrAHoW5I6AhAlB7OlYuMHIIkh6RFqBPqyF8pSuYru3+l1hWhTqhzp27wgdSBmHrhQKjbky6g52FzLnrtdqE9bLoi1A0JHUGO0sO5cpHBpGULRELdrqfUuvKMc8aH3e4eOTEHexDqhDp36gYf8EgoKWVwp26HB6HeT12ljA/YnFA3JEMoS0oaxR4sHrrykJFDkHj5bkp7EOr22EPOSmkPyGB82O1Ce9h0xZ16y4VJDgkeCYVBYguSHGxOqNttzfjop66Yr2x2IdQJdb5+N/iAR0JJKYNQtyVEAN1rIcedut0uKeMDds/BHoS6IaHD4Cg9nCsXGTkEiVeCT2lzQt0OD884Z3zY7ZIyPmDzHOxBqBPq3KkbfMAjoaSUQajb4YEEn9IekJEDRGQuHrrykJGDPVyhfvny5cCDOqAP+PvAWz/5aXjpV38IUlL//vqnzqlz8YGVlZWkmyhZYLlDfXt7O2xtbQ3u2NzcHNyYh6hnjnl4sUGb0Wb0gXofEO5lC3Ux/tra2uCOY8eODW7MQ9Qzxzy82KDNaDP6QL0PnDx5klDvm5MQ6vVO2zd7cTy0F32APtAXHyDUe7iTJ9SZIPqSIDgO+iJ9YFg+QKgT6nzV30MfYCIdViKlvWivvvgAoY6EPhqFtZOnwuj0dnHI+Zrcw3PHkjt1Johl+B1l0u/oA8P3gQMP9dH3XwrrV39Xe0gdT2cn1IcfWJ7+Qln0F/oAfQA+cGChPprswkc/vloLdAG+1BGFoQ2Ul6ok1BmgqXyL/dK36AN5+8DSoC5/sSflIb/Tq/pJ2/rGRnj2xZfHoG4BdWkjbVMHRVdQv3D9q3Dr86vh3Opq8jGn1slB6j9Hu63uXA03bn8Vfv+HP4YbV3aDxxw9ZHTll8VYr1/KNk6XbQurfGs92D2uH1+jnmcZQz0lZ93/+EwV1F95/c3w2ttXWkNd2kjbKgOtb62F7ZfXw7nLG+H0M+thNJpvRWiF+rkrX0yTZNmY+uBgZeNa9F7TvBftf5ntV1d3wxufp1+Mra5eCtcmkBXQynHtYprFH2QJzEW3i8wRtseYpbx1+4vwxs7s2BeRsQz7F7GaGOqrF28WdobuPBf8Xeaitn1ZfcFaT/uHHss87XVfXZ3HUMefCU5R9gbqv/jo031QX7vyUTj66LPh0MbpcHh0Xzh8/P6w8sxrYf3nfzd9/S5Ql7Zlyj9xdhQe/+3xcPr8evF8573N8OgvNkvrlrXX9yxQhwNdu36zcjeuHU733+YcCTlVwo/H0iTPMu+4z9TXTWOukj9vu6r+rPcBxtimF67vh6O1z7p64116N33L2GMY4S3ArcRQrJsjns1r0yJWE46/0Nvtm+GCemsnkMdCC+NPVc6Ti6p0OU9f8byq+o7rNV13MZYmGW2fHzior6+vF2DWO/V73/koHN56oAD6ylOvhLtfeDscffwH4fDW/eHen3y4D+rSR6zord31Auond8bfmD/7o42w+0FCqF+8GW5JkE5ea8YJWsbXhcN15fyxvqqum+RJImqad1Xfqe43jblK7rztqvqz3B/rrxvAWuRJnS5llkG9kDF58+AFqaq5z2vTIlYTQR1jWqZu5slFGHec2+bpK7ZXVd9xvabrLsbSJKPt8wMH9bPnHt4H9aM758OhjTPhnsu/mfnS3Oi9T4prfFEOO3XpI1b01u54p37i4VHYPD0KD765GXZ/vVmcy7U+4rbxtWWnjiSAnWvZLmXqcOrzzOJ1ZZQ84OB4LYcgwo4O96VEYkDfFyYfAWD3hPGgTQFgtTuQucby0LZOHnTUNG/IF33o/vQ4LHUgD7tAzEdK6EfqaBmoAx1BDu7rMdS1g271dyGaxgFZlnljfJhjVdmFTJkL5i8lXpWXzjF6PXzjyqXxRxHKX0Vv8Jd43MUztRuNZcR+p+04rdsYK+OPRzAnq01lrLF8PY9Cfo3PYq6xTXQfUgfz0HH54D1/VXzUUpYj0C/Kefr/4YflHxdhLOLH+twiyxofFr/XepGxWPuWdui/zN5xv/G1LGbRTpc6/ubRt84LIjM+DhzUd598eh/UD29+N6w8/eoM0PXP3GKoSx+xIrce24O6vIavO+K28XUT1OEISErjZLZ/9yWBJM6kAx9t4VhINLiWsVy4svflOjyHLIx12rdKuPLs3JWb0883ERAz8ieOruXJmN6YfJ5bJU/6xtgxlrJ5Q6bMGzLQJ5KapU4hbzJWyNNjQN/FvckuUdeT+426qGgXJ0AkB90/dIFxWOaENrofGWfZ0ZXMQj/F25VZ/4zniESrx1bmY4XNK778OZ7fnhwtAz4Afcm4tJ9PZam+oS/4jbSZ16bQp5Yv/cPvIR/PMd44drAoKvRa8v0L9KPHXMwVuSCKV3mGQ8Y4T/9xu2Js0RtEbYviuUEWdKB9Qtrqvix+H7cp5Btjr8neeixlcuQejrhurDfMRdtc2hQ5vMZu6B8lof7jq5PX7i8vBHUoVMo6oMszXbfsvAnqY5jtfT6G5IOEgD4LJ1I7F9zX7dE2DhzUrQ2skr7RDuXYccdjnTptjYNWyZP+9LjlGmPX857KUMk5bmurM/4ime4bc9o3jooEgfootS7kXtVcdfCjTtM4THMqEu0e9DCuuOxSZjHPKIHLPcscp3NS/lLoPrItxg9/gC/PyIgggzYoLbGCurq02LRsHroPOddjxTPtZ+gDc0Od8Zz3bFo1D6kv/WHHGEN/kf7RVvuoHns8P9Rvmgv8MK6ndYW+NAgxV/0WRbeR55a+pV58xPaO+42v0X7cbs9OGHc8tzb2RN9xeeCgXvr6ffe5Auz3vPnBDNjv+fH75tfvWrEpoQ5n1EEJB9FOLOOxOBjaxjt6zAfyYuer6htykTyKfifwj5MuZOiySh7uN80b89H1pH+dZEx1aiCwP0DHC4BYR3W6kGeYU9xO67ZOZ3oc9jntJRatd33epcxink1Qr9B12ZwKO9ZCfW9+M3qc7Gqr/FzXndFFxdjL/LuYa8kCr06fkFXIV4sXuT/jsxMdabn6HD5UNQ/IkVLqFHpQvxrAGHWf+rypf20X2E1DXo/LKssUH3hbUaM7zFmD39I3dAZ9QR86z+p5lcmRe5Cl9WHVQdw/xlRXHjiol31Rbu3dj6dflLvryZfCyvNvhqMPPV18C/7uSz81fVFOKzkp1Cs+p4HDIfhkPFUOoWGAcWsnm9f54bza6ceyJjv1iuSNMUiJPvQ8ivvGeSOhLBvqmEeVLurmqu0Gu8T6gE7wutQ27+q3D9Ifji5lxuOEDMscy+ak4YG+UGoIyj0tA3UwN4kX7edldaWNjpV5bQqZZTbEuAr5NWCy9FE1Z8jQ5VS3LRbcdf3r8Y3P9xZXcTtdV48pPoe+Y71pW03nUaO7WL5c2/oex0tdDOuxlMmZ3ovealp1EPcv/TUdBw7qopDSn7S9+3E4OtmxFz9pu++hsPLi2+aftGlFp4L61IFLdiplzwqHiJxJxlnnKJLEJOEhkCzOj7nrBIh7OtGiL71iRT2UqAP5cr9sbnv1Z3/XPa1bE+S2OtUA1HMaj2//Tr1JF1Xt5L62D/RRpjM9Dsucpn2X+IQ8w9G1zDJdWOaIcegFWjHnUv/fby8tA3NDGft5UbdEL7qPsnloG0jfGPOs/+4fG8aBspBT67PNfUhferzou6oczwcfjS3eP+ZQ6CSaix4XdFTm03qsqKd1Gc+xld8rvzH1XfKWJra3nlc8NrmO/Qzzg/wmHcT9o31deSChnuqPz0DRD72zEeoO1Ksqqz5Tb1rdxUlHHKLYkagAi51M+rw2+aMgMp64jyrnK3O2sr7lr4jpla4EhV40QCYCt0xem3lbgtxSR8ZVNdZ945+8ctUBatFF2VxFbqxbyzisc5rWU69eCxsUrzH3dledyixJjvEci+toTHIv9l8Zl95hw3/ierEem/y8TNY+G8YL3smbJ+3fVTat0if8vpi/ilMZfzFXtdAo7UPGoNoV/Sh4jW0rwN6z7fjeZDGs2s7bv/RX9Dmx843Pv5puCvAsHpdFVpUudV9Tf1bzEJmx7nSbYqwlMSv3db199i+xt66/r/1Ehl6USh0cFh3E/aNtXXkgoT7UPxNbGFgFeWxYBAGcCA6Bn7dI4ouBJH1IPTzD61zdN5xb6gBc6Dv+eQUcVeoWybcI9L0v9Um/ur+iXhSQ+rnIazNvS5Bb6mD+eizFWKPkWFYPOmqrC7Qr023TONrMScasx1Y1r65kSj+xX5XNUe7JWHBcu1gNHtQZj33Wv2CTWIbuv2o8TbGi9Wbxb9hUxrRPn8rvi7Gqa9hILxhwb2buEcDjOUMXyA26rR4b6un5Fbo19i/tISNedMmzsnE1ySr6VB+7Yby6L6vf6zaYq7ZHWd9ST4+xzN5xv/pazrW+cY78HPffVt+YR1weSKiLEvCfs/A/dNlbOcbOwWvqZpk+UJWwU4xJJ+MU/bNPxpKXDxxYqEPB/K9XGWzwBZb98oWmj126tBeh3i/bd2nbg9bXgYf61ODyX7GePBVGp7eLQ87XJv8967SO+jwk5b2qz9RTymTfTGrL9AF5zYlXoDKOule5KcZJqNP/U/jVMvok1J1A3ca4hDoTTBt/yaVu/Bmk/uwx9RwJdcZcah/z6p9QJ9Sn38b0cjrKYQKlD9AH6ANpfIBQJ9QJ9R76ABNemoRHvVKvufsAod7DhM7X70w8uScezo8+Th9I4wOEOqHOnXoPfYAJL03Co16p19x9gFDvYULnTp2JJ/fEw/nRx+kDaXwga6hvb28HmeDQjs3NzcGNeWg65niHFxe0GW1GH2j2AeHe5cuXw8rKSrjjjjuSHs8991z4mvxz5MiRpIJkIjIpHtQBfWA5PvDmlauMP+Yg+sASfSA7qMuEeFAH9AF/H/jOd+4OD//P/3e45/gDjEHmIfrAknwg9S5d+nfdqXu8DVhdXU3+xsFjHrnIoD3sr9pS2nx15/XwxGd/Cg+8+W8ZH8bXnyntgeTO+OhHfORkjynUxbl4UAf0gfx84N5718Kjv/l/Cqg/fvP/C6NTDzHWme/oA5n6wBTqHqtSDxlc+XLli1V3l6WH76aSgV267NTluO+1f5N0t55qHtqeuchgvmK+0n7dxTmhbnwVp5WdS0LxmAeT1nKT1qFDh8PDv/rPBcwBddmtHzl2MhnYPfwqFxmMj+XGh87rcp6DPQh1Qj1Zcs8lSGQeQ4VIvEsH2FPu1oeqqzjBe8wjB4gMOT5im+dgD0KdUCfUDT7gkeC7llG2SwfUU+7Wu55HnHgJEfvuNiddefgVoW5IhjogaRR7MHroykNGDkEy1MRYtUsH2FPt1j38KhcZjI9+5cQc7MGdesuFyVATvF5c4dwjMeYQJEO0ed0uHVBPtVv38KtcZDA+CHXk465KQp1Q5+t3gw8MDSJNu3SAPcVufWi6qkqmHvMg1An1Kv+b9z6hbkjosXI9gj0XGUxa/knLsksH1FPs1nPxXY95MD784yPO5/o6B3sQ6oQ6d+oGH/BI8F3JsO7SAfaud+tdzUMn2/g8Fxk5QERsQ3v0Z3FCqBsSeq4JxSMQmbR8g73NLh1Q73q37uFXuchgfPjGR5zL4+sc7EGoE+rcqRt8YCgQabtLB9i73K0PRVdxQo+vPeaRA0REbx668pCRgz0IdUNCX0aweziwh4wcgmRISeveR98IJ57/7b7j1Kv/svircvf/+N/seyb1jz/36yC7/NjX57n28KtcZDA+uFOfJ8bq2hDqhHonibzKyZi0+pG0jq6eKqC+fnonqb3FD3IBrsc8GB/9iA/krxzsQagT6kmTfA5BkgOoCHU7PJDgCXW7zjx05SEjh3xFqBPqhLrBBzwSSkoZhLodUIR6P3WVMj5gc0LdkAyhLClpFHuweOjKQ0YOQeLluyntQajbYw85K6U9IIPxYbcL7WHTFXfqLRcmOSR4JBQGiS1IcrA5oW63NeOjn7pivrLZhVAn1Pn63eADHgklpQxC3ZYQAXSvhRx36na7pIwP2D0HexDqhoQOg6P0cK5cZOQQJF4JPqXNCXU7PDzjnPFht0vK+IDNc7AHoU6oc6du8AGPhJJSBqFuhwcSfEp7QEYOEJG5eOjKQ0YO9iDUDQkdAYjSw7lykZFDkOSQtAh1Qh35K0XJfGX3r9S6ItQJde7UDT6QOhBTLxwIdXvSBfQ8bM5Fr90utIdNV4S6IaEjyFF6OFcuMpi0bIFIqNv1lFpXnnHO+LDb3SMn5mAPQp1Q507d4AMeCSWlDO7U7fAg1Pupq5TxAZtnB3VR2tAPMcrQ55DT+GmPfsTUyvqZ6d9+z8m/hj4Xxkc/4gN+lIM9uFM37NKwikMpDoDzVGUuMiRIUukI/eaiq5Tz4E69n7tPxofdLinjA7kkB3sQ6oR6UujmECQS8B4JJaUMQt0ODyT4lPaADMaH3S60h01XhDqhTqgbfMAjoaSUQajbEiJg67WQI9TtdkkZH7B7DvYg1A0JHQZH6eFcucjIIUi8EnxKmxPqdnh4xjnjw26XlPEBm+dgD0KdUOdO3eADHgklpQxC3Q4PJPiU9oCMHCAic/HQlYeMHOxBqBsSOgIQpYdz5SIjhyDJIWkR6oQ68leKkvnK7l+pdUWoE+rcqRt8IHUgpl44EOr2pAvoedici167XWgPm64IdUNCR5Cj9HCuXGQwadkCkVC36ym1rjzjnPFht7tHTszBHoQ6oc6dusEHPBJKShncqdvhQaj3U1cp4wM2J9QNyRDKkpJGsQeLh648ZOQQJF6+m9IehLo99pCzUtoDMhgfdrvQHjZdcafecmGSQ4JHQmGQ2IIkB5sT6nZbMz76qSvmK5tdCHVCna/fDT7gkVBSyiDUbQkRQPdayHGnbrdLyviA3XOwB6FuSOgwOEoP58pFRg5B4pXgU9qcULfDwzPOGR92u6SMD9g8B3sQ6oQ6d+oGH/BIKCllEOp2eCDBp7QHZOQAEZmLh648ZORgD0LdkNARgCg9nCsXGTkESQ5Ji1An1JG/UpTMV3b/Sq0rQp1Q507d4AOpAzH1woFQtyddQM/D5lz02u1Ce9h0RagbEjqCHKWHc+Uig0nLFoiEul1PqXXlGeeMD7vdPXJiDvYg1Al17tQNPuCRUFLK4E7dDg9CvZ+6ShkfsDmhbkiGUJaUNIo9WDx05SEjhyDx8t2U9iDU7bGHnJXSHpDB+LDbhfaw6Yo79ZYLkxwSPBIKg8QWJDnYnFC325rx0U9dMV/Z7EKoE+p8/W7wAY+EklIGoW5LiAC610KOO3W7XVLGB+yegz0IdUNCh8FRejhXLjJyCBKvBJ/S5oS6HR6ecc74sNslZXzA5jnYg1An1LlTN/iAR0JJKYNQt8MDCT6lPSAjB4jIXDx05SEjB3sQ6oaEjgBE6eFcucjIIUhySFqEOqGO/JWiZL6y+1dqXc1AXYQN/RCIDH0OOY2f9uhHTK2snwlPfPansH56h/HRozzH+OhHfCDn5mCPGainWMHpPkVx+jrFuRglRb+6T4955CKD9ujHCp47dbsdEOseMcj4sNuF9rDpilDn6/ekiyAmLVsgCkhSJi1C3W4HQr2fukoZH7B5DvmKUCfUCXWDD3gklJQyCPV+gioHiKRekAK4KeMDMnKwB6FuSOgwOEoP58pFRg5BInYfuj0IdUId+StFOfT4gE5yyFeEOqHOnbrBB4aetAh1Qh3gSlEOPT6gE0LdkAyhLCk9DJ+DUbx0RXvYE72HrlLKINTttkbOSmkPyGC+stuF9rDpijv1lguTnIDLILEFSQ42J9TttgZwGR92nXnoykNGDossQp1Q5+t3gw94JJSUMgh1O6AI9X7qKmV8wOaEuiEZQllS0ij2YPHQlYeMHILEy3dT2uObd94dTjz/27C2eSrpIi4HXSFnpbQHZDA++pUTc7AHd+otFyZMWvYgFF11FSSXL18OPKiDvvjAyspKJ4ujruIDi4Sy0mNxkouMHOxBqBPqnSSnsmTSNdS3t7fD1tbW4I7Nzc3BjXmIevYYs/igLCwI9dnFPaE+q4+qfCj3U+uKUCfUBwN1Sdpra2uDO44dOza4MQ9Rzx5jPnnyJKFekjNTg8oDhl1uQgj1EiepU0rdsxxen8j8GCSzK1/ZHRHqw1vQeIDWUwahPhuXyMXMV+V6gX50mVpX3KnPsaBIbRRCfX+AEOoEuie8q2QR6vtjk/mqXCca5Po8NT8IdUKdr98Tv9Ln6/d8FiSEejnAUoPKa+GQw5teQp1Qzw/qm8fD6LHzYXTxrbD++s+KQ87l3trmcffPtwl1Ql3v1PR5DhDxAq7HwiEHexDqhHo2UB+tr4fRM6+E9fc+Cevv/8vy471PijpSt+oVa9f3CXVCXYNcn+cAEUK9/O2FtrM+T704IdQJ9TygfvxEGP3oajnISwAvddeOn3ABO6FOqOukrs8JdTsQU8NQ7JKDPQh1Qn3wUC926C2Ajl28gN1jx74sqF+4/lW49fnVcG51NenixSrHWg9vSuL68TXqeZb8TL0cwh7A9ZBBqLcEIo1SHhB65Y5zD115yOgqSOq+/V68ci/ZjQPedaW0rYLC+tZa2H55PZy7vBFOP7MeRqP5dpx1UD935Yvw+z/8sRG+AjSpd+2iDdCrq7vhjc/bQ70tOK1yrPW0LfRY5mmv++rqnFAvz2EeucRDRlf5Cnm8rEw9D+7UWy5MxEipjZKTjK6CpBLqm8crP0O/+69+Gu584sVw5NxT4dtPvxpW/+mH+1/Pv/dJ6ZfnTpwdhcd/ezycPj/+7H3nvc3w6C82KxcAddBogvqtz78IN25/Ed7YKQf26s7V4vmNz78yQ71uPHXPNEjr6tU9W129FK7dXnysXYylbpzzPCPUCfUyULe5l5ofhDqhPujX76PdZ/aD+upn4c7dC+HQie3w7adeDivP/SgcfeR8+OaZR8Lo6u/21Zc+4gS/tbteQP3kzqh4dvZHG2H3g0RQv30zXJNX5dcv7RuHjEt287eu3+wElPE84+suQEqol4OvLPF3tegt6xv3UkNE5OQiIwd7EOqE+qChvv7SW/sgffer74ZDJ+8Pa//s49lnP/+72Wu8sn/prX0w3dod79RPPDwKm6dH4cE3N8PurzeLc7nWRwzG+Lpxp377Zrgw2Y3Hu/UxIGUXv3/3i1fS8lq+eIUv/ajPzzWgUVcWDnjln6KN7hvjunFlt9CvHo/oCGNCvVs145f6uv3qxZvFnNEWJWQV/Rc6HX9sIc/j7xegvwvGj0CkT+7UyxcshHq5XrCw0mVqXRHqhPqwof7az/aB+s7Hni926HWfpc88e+1n+6H+2B7U5TV83SHJvu4wQX11tYCWhpL0Od6lXwplu99zV25OX9kDkBpcgJZ8UQ7PBW6QgT71G4JF28iY0W/8+b/uezw3+/ilftxe7uGInwn0b6mPNDD/WD8F7CvekKBvXRLq5fBKDSqvtwHZ7dTFMEM/xChDn0NO4+/KHlWfqa9XQf17L+2D/QzIsUuXsgTqOpHXAV2e6bpl51aoj0FT+DgjAAALmUlEQVS0t9vWcNTnZTLkXtxeg64MatKmWDSoHfKibYpxVHymrvsum0Pd+KV+VfsqgMeLCnw3AW9Div7U3MvGFN+Lob5orHYVH4uOg+3H7MvBHtypc6c+7J161ev3E9vh3it/MwP2ey//ZuZ6CvmS1+86mbtBffKN9elOWnabk5+kVUFdwIRXz8WuU0FKQ3AK9WhXaoJ6izait7qxYj7Qr3X8Ul/PB+0hCzor5Eev3bV+5BywL+sP/VaVMdT1a9V5zgUi87Rr00aA3ab+PHVzkZGDPQh1Qj1pwHcVJFU79aovyh155Hw4LF+U+95L4a7zr4VvPfhkcT0q+WtzZV+U00ndC+ois4BsAfLxT9IAK8ALQMK1/hy6bqfbN6i3Hb/opgzCxT21kJF64x1587fvy/rTdi87J9T5+n2eRY9uk3oBRKgT6oOGuvwt99I/C3v1syBfmJPP14/uPBPueva1sPbu7M692KlX/KRNJ3RPqAN2167LZ8Llr+ILcEWfGcu9rnfd8ywEirEZXr/Hr8ybxi/PYwhLH3rnLXW0fCyIcD8u4/7i52XXhDqhrgE9zzmh3hK6Xe0M64yV2igiOxcZXdmjaqcuiTfVH59BUn/onY1Qd6BeVWn9TB3tBc4CKw2lKewnf3wmBhp2p3ohoKE1D6DnaSNzwFj1+OX+zHgiIDeNf1/7ycJBf8kP+pMSOsSbDblXyFAfJejx6LZ154Q6oV7HBsuz1LmdO/WWi4acgJvauURXLlCX/8hloH8mNt5dT+Gjvrld3CvZ/QJcsgAoPqsudu97u3sNrXkAPU8bABGLDr040eORem3GL/V1ezmXvuNDQ173P9VRxU/+MO6mklAn1C3grquTOu8S6oT6sF+/42dN/A9dGr+F3wQsPt/7iVyVLgh1Qr0O2JZnhHpL6Ha1M6wzTmqjiOxcZHRlj7rX70jA/K9Xm6EEXbGcT1eEOqFexwbLs9S5nTv1louGnICb2rlEV55Qn4Jq83gYPXY+jC6+FdZf/1lxyLncky/WTethl5+4rPtM3XsslDcfzKE3Qp1Qt4C7rk7qvEuoE+p5vH5PDGYk9XlKQn0xkM6j81RtCHVCvQ7YlmeEekvodrUzrDNOaqOI7FxkdGUPy+v3VIl80X4JdUK9Kp90FR9V/eeUSzxyYg724E695aKBQVK+Uq9KKl0FCaGeDxgXXSQtsz136uXx7wFcDxld5auqfOjBD0KdUOfr98Sv7rlTz2dBQqgT6nXAtjxLvThZGOqvvvpq0Mcrr7wSfvCDH4SzZ8+Gw4cPzwAj9WREoV2utGReZUaSeVQ9K6s/zz3oSus2Pke/eiz6HM+rSsioet7F/a7swZ16PmBc5k57UdmEOqG+aF5MnXc7gbqe5KFDh8I3v/nN8N3vfjfs7OzMQDH1ZGQcXUFE+qoCpMyj6pnWxSLn0FVbOW3qQ8Yi42xq25U9CHVCfVEgd9GeUCfUm3Je0/PUebdzqGNCMvCLFy8S6nO83hcdwvBtIC3t2tSHDNgsRdkl1Le3t4Mk1aEdm5ubgxvz0HTsNV7xQVlgrqyszOS2eWOnq/iok+8R57nIyMEeSaH+/PPPTx1fdvDnzp0LL7zwQnj55ZfD008/PQ0Mqfftb397WlcCRuCkFSzP5bU+nPf+++8PL774YtGfvOqX/uWZtJG2p06dCi+99FJ46qmnGttIO3m78PDDDxd9Sr9bW1uVgBQHFhmSSESBsnh59NFHw7e+9a3wne98Jzz77LNTmRivfBQhc5c6uGepa4G0rqPPRU6VnuSZjF8+LpE2MrYnnniiGD/G10WpbbhIf5JIeVAHffEBQn12x06oz+qjLtel1lXnUBd4CYAfeuihAiiYnLyOF2gKPKWOXD/22GMF4HZ3d8OJEyemsBP4nz9/PjzyyCPTe/JcwCn9ybkc0o8cDz74YNGfPAPUpa7IuuuuuxrbSDupv7GxUfQnASvyY0BiLoC6wFv6lzHIIuCBBx4oZMmCZTQaTccu7eS5ng/6qqorOpE6VWNA+7iOrl+nJ2knQJc5y7noShZCZQsSLavteVdQF5vwoA764gNt46CqflfxUdW/3E8NkZxk5GCPTqAuIMEhu3DpVF5TYfcsRhdYyLeA4XziaLI7lOv77ruvAL6cCyDlvsBSdswCG7kvCwKBjpx///vfn96X6zvvvLOQKeeAuuyC5RpHXRupI28BRDbqy+dvGpC4LyWgfu+9907ryzifeeaZ4vr48ePhe9/73vSZtJFFwj333DNzT+5X1RX58hx6jUt5hkOPU583zVneMAj40U+KMocgEb3kkhhpj724afJ3D5vTHrRHkx+2fd4J1C1CBfYCX9QV4Ms9ub777runO0SBDHbksluVHa7UkUWBrNLlXGAUQw59Aeoa0E1t5Dnay7kc8ppcAxL3pQTUseDAM3yHQOYmCxMsLAT+VTvgqrpIKFVjgEwpdR19XqcnaSe6lvry2l127Ni1674XPWfSYtJa1IfK2iM+yp51dc9DBuOD8dGVv6IfN6gLYDTUBboAkIBNngtI5TNwOLrsVmW3Kfdl145By2flMbTxDFDHNcq6NlJHxqL7FGBjfOgDJaCu68scRAbqyGfZeN0uHzPgLQOe67KsLhJK1Rh0e11HnzfNWWTIgkrGJr9UkIVI1zt32FKPt+tz6KrrfnV/ucigPQgR7dddnTM++uNXblCXV9Px63cNoCeffLL4XFwGBEcTUMprcXmVj8/f5Zm8ytZfrEN9KaugXtdG2smiQfcpr8r1+LQMcWB5Fs/nwoUL07EfPXq0gLy8XcCCRfehz8vqIkiqxqDb6zr6vGnOkIG+ZD66Pe4vUhIi/Ql2sSPtQXssEs9VbeNcUlVvkfseMnKIDzeoy24w/qKc3n0LuOUV+JkzZ6ZgFAeQXazcly/WwSGkL6kvu2kxtLTBZ9hVUK9rI/0+/vjjxR/MkT4F7vKGoApwIlOeyVsFAbLs2OV7AfIFP4xRSlmIyGv3+Pf6ug7O47pw4KoxoJ2Uuo4+b5qzQF/q4GME+emVfHlO973oeQ5BIjqAPRbVR117Dxm0B6Fe54PzPvPwXQ8ZOcSHG9Rl1y3fiJddqxwCUb3Tlc+dBSgCSe1YAlgBlf6SmfQlP2OTRYG8YpbPhNGuCup1bUSegE3/pE0grQGpxyTOJc8EiBiDzCd2OpmT1NPz1P3o87gu+qoag26r6+jzpjmLTmUxJPaQdvrb8Lr/Rc5zCBKZP+yxiC6a2nrIoD0I9SY/nOe5h+96yMghPhaGehsHOGhGkQWJ/m19na7iuh668pCRQ5CI3Tx05SGD9iDU6/LQvM88fNdDRg7xMYW6TIZHdzqQL/nJK3X5slyTXtvUbeqLz7uzIXVJXdIH6AND84Ep1D1WQR4yxADzrjat7SzzkI8F5DN3/Q35qv7L6lpkVPVnve8hoy/2sOqkqp6Hrjxk0B7cqVf5+CL3PXzXQ0YO8UGoqz/iYnVqD+fKRUYOQSJ+QXv0C4a0B+1hzddt6uWQrwh1Qj3pm40cgoRQtwMkJ115LBwYH3bfoj1suiLUCXVC3eADHgnFQwYhYkuMXosT2oP2aPMmwVKXUDck9FiRHsk3FxlMWkxacfx0cc346Jdf0R79sQehTqhzp27wASat/iQtWRTQHrRHF4vDuI8cNiGEuiGhx4bPJaF4zCOHICFE7ADJSVeMD7vdPXTlISOHfEWoE+rcqRt8wCOheMjIIWnltHCgPfq1cMjBHoS6IaFzp24PvFhXOQQJIdLO/h6Lk1xkMD7svuVh8xzsQagT6typG3zAI6F4yMghaXGRZQdhTrpifNjsTqgbEnq8+/RwrlxkECK2QPRKvrQH7RHnsy6uma/641eEOqHOnbrBB5i0+pO0vBZAHjbnIqtffpWDPQh1Q0KPV7IewZ6LjByChBCxJ96cdOURg4wPu2/RHjZdTaEuJzyoA/oAfYA+QB+gDwzbB/5/ne5LA2tR5YIAAAAASUVORK5CYII=;" vertex="1" parent="1">
          <mxGeometry x="261" y="-1125" width="332" height="321.4" as="geometry" />
        </mxCell>
        <mxCell id="jz__pMLLjrS1bMTCTAv0-3" value="SpringMVC&lt;div&gt;使用注解配置的DispatcherServlet的初始化器&lt;br&gt;指定DispathcerServlet作为默认的Servlet，&lt;/div&gt;&lt;div&gt;是`AbstractDispatcherServletInitializer`指定的&lt;/div&gt;" style="text;html=1;align=center;verticalAlign=middle;whiteSpace=wrap;rounded=0;" vertex="1" parent="1">
          <mxGeometry x="-39" y="-1009" width="278.5" height="58" as="geometry" />
        </mxCell>
        <mxCell id="jz__pMLLjrS1bMTCTAv0-56" value="" style="group" vertex="1" connectable="0" parent="1">
          <mxGeometry x="122" y="-294" width="160" height="99" as="geometry" />
        </mxCell>
        <mxCell id="jz__pMLLjrS1bMTCTAv0-4" value="HttpServletBean" style="rounded=0;whiteSpace=wrap;html=1;verticalAlign=top;fillColor=#d5e8d4;strokeColor=#82b366;" vertex="1" parent="jz__pMLLjrS1bMTCTAv0-56">
          <mxGeometry width="160" height="99" as="geometry" />
        </mxCell>
        <mxCell id="jz__pMLLjrS1bMTCTAv0-5" value="init()" style="rounded=0;whiteSpace=wrap;html=1;" vertex="1" parent="jz__pMLLjrS1bMTCTAv0-56">
          <mxGeometry x="46" y="38" width="68" height="44" as="geometry" />
        </mxCell>
        <mxCell id="jz__pMLLjrS1bMTCTAv0-65" value="" style="group;fillColor=#d5e8d4;strokeColor=#82b366;" vertex="1" connectable="0" parent="1">
          <mxGeometry x="120" y="-158" width="264" height="595" as="geometry" />
        </mxCell>
        <mxCell id="jz__pMLLjrS1bMTCTAv0-6" value="FrameworkServlet" style="rounded=0;whiteSpace=wrap;html=1;verticalAlign=top;fillColor=#d5e8d4;strokeColor=#82b366;" vertex="1" parent="jz__pMLLjrS1bMTCTAv0-65">
          <mxGeometry width="264" height="595" as="geometry" />
        </mxCell>
        <mxCell id="jz__pMLLjrS1bMTCTAv0-37" value="内部类 ContextRefreshListener" style="rounded=0;whiteSpace=wrap;html=1;verticalAlign=top;" vertex="1" parent="jz__pMLLjrS1bMTCTAv0-65">
          <mxGeometry x="35" y="399" width="194" height="108" as="geometry" />
        </mxCell>
        <mxCell id="jz__pMLLjrS1bMTCTAv0-10" style="edgeStyle=orthogonalEdgeStyle;rounded=0;orthogonalLoop=1;jettySize=auto;html=1;" edge="1" parent="jz__pMLLjrS1bMTCTAv0-65" source="jz__pMLLjrS1bMTCTAv0-8" target="jz__pMLLjrS1bMTCTAv0-9">
          <mxGeometry relative="1" as="geometry" />
        </mxCell>
        <mxCell id="jz__pMLLjrS1bMTCTAv0-8" value="initServletBean()" style="rounded=0;whiteSpace=wrap;html=1;" vertex="1" parent="jz__pMLLjrS1bMTCTAv0-65">
          <mxGeometry x="72" y="33" width="120" height="54" as="geometry" />
        </mxCell>
        <mxCell id="jz__pMLLjrS1bMTCTAv0-12" value="" style="edgeStyle=orthogonalEdgeStyle;rounded=0;orthogonalLoop=1;jettySize=auto;html=1;" edge="1" parent="jz__pMLLjrS1bMTCTAv0-65" source="jz__pMLLjrS1bMTCTAv0-9" target="jz__pMLLjrS1bMTCTAv0-11">
          <mxGeometry relative="1" as="geometry" />
        </mxCell>
        <mxCell id="jz__pMLLjrS1bMTCTAv0-9" value="initWebApplicationContext()&lt;div&gt;&lt;b&gt;初始化负责Controller等表现层内容的web应用容器&lt;/b&gt;&lt;/div&gt;" style="rounded=0;whiteSpace=wrap;html=1;fillColor=#dae8fc;strokeColor=#6c8ebf;" vertex="1" parent="jz__pMLLjrS1bMTCTAv0-65">
          <mxGeometry x="50" y="117" width="164" height="76" as="geometry" />
        </mxCell>
        <mxCell id="jz__pMLLjrS1bMTCTAv0-14" value="" style="edgeStyle=orthogonalEdgeStyle;rounded=0;orthogonalLoop=1;jettySize=auto;html=1;" edge="1" parent="jz__pMLLjrS1bMTCTAv0-65" source="jz__pMLLjrS1bMTCTAv0-11" target="jz__pMLLjrS1bMTCTAv0-13">
          <mxGeometry relative="1" as="geometry" />
        </mxCell>
        <mxCell id="jz__pMLLjrS1bMTCTAv0-11" value="把根容器（负责service和dao）&lt;div&gt;设置为web应用容器&lt;/div&gt;&lt;div&gt;的父容器&lt;/div&gt;" style="whiteSpace=wrap;html=1;rounded=0;fillColor=#dae8fc;strokeColor=#6c8ebf;" vertex="1" parent="jz__pMLLjrS1bMTCTAv0-65">
          <mxGeometry x="72" y="223" width="120" height="60" as="geometry" />
        </mxCell>
        <mxCell id="jz__pMLLjrS1bMTCTAv0-13" value="configureAndRefreshWebApplicationContext" style="whiteSpace=wrap;html=1;rounded=0;" vertex="1" parent="jz__pMLLjrS1bMTCTAv0-65">
          <mxGeometry x="11" y="311" width="242" height="60" as="geometry" />
        </mxCell>
        <mxCell id="jz__pMLLjrS1bMTCTAv0-42" value="" style="edgeStyle=orthogonalEdgeStyle;rounded=0;orthogonalLoop=1;jettySize=auto;html=1;" edge="1" parent="jz__pMLLjrS1bMTCTAv0-65" source="jz__pMLLjrS1bMTCTAv0-35" target="jz__pMLLjrS1bMTCTAv0-41">
          <mxGeometry relative="1" as="geometry" />
        </mxCell>
        <mxCell id="jz__pMLLjrS1bMTCTAv0-35" value="onApplicationEvent" style="whiteSpace=wrap;html=1;rounded=0;fillColor=#dae8fc;strokeColor=#6c8ebf;" vertex="1" parent="jz__pMLLjrS1bMTCTAv0-65">
          <mxGeometry x="72" y="429" width="120" height="60" as="geometry" />
        </mxCell>
        <mxCell id="jz__pMLLjrS1bMTCTAv0-41" value="onRefresh" style="whiteSpace=wrap;html=1;rounded=0;" vertex="1" parent="jz__pMLLjrS1bMTCTAv0-65">
          <mxGeometry x="72" y="540" width="120" height="44" as="geometry" />
        </mxCell>
        <mxCell id="jz__pMLLjrS1bMTCTAv0-28" style="edgeStyle=orthogonalEdgeStyle;rounded=0;orthogonalLoop=1;jettySize=auto;html=1;entryX=0;entryY=0.5;entryDx=0;entryDy=0;" edge="1" parent="1" source="jz__pMLLjrS1bMTCTAv0-5" target="jz__pMLLjrS1bMTCTAv0-8">
          <mxGeometry relative="1" as="geometry">
            <Array as="points">
              <mxPoint x="96" y="-234" />
              <mxPoint x="96" y="-98" />
            </Array>
          </mxGeometry>
        </mxCell>
        <mxCell id="jz__pMLLjrS1bMTCTAv0-68" value="" style="group;fillColor=#dae8fc;strokeColor=#6c8ebf;container=0;" vertex="1" connectable="0" parent="1">
          <mxGeometry x="724" y="-293" width="264" height="400" as="geometry" />
        </mxCell>
        <mxCell id="jz__pMLLjrS1bMTCTAv0-24" value="AbstractRefreshableWebApplicationContext" style="rounded=0;whiteSpace=wrap;html=1;verticalAlign=top;fillColor=#d5e8d4;strokeColor=#82b366;" vertex="1" parent="1">
          <mxGeometry x="412" y="-294" width="264" height="297" as="geometry" />
        </mxCell>
        <mxCell id="jz__pMLLjrS1bMTCTAv0-19" value="" style="edgeStyle=orthogonalEdgeStyle;rounded=0;orthogonalLoop=1;jettySize=auto;html=1;" edge="1" parent="1" source="jz__pMLLjrS1bMTCTAv0-16" target="jz__pMLLjrS1bMTCTAv0-18">
          <mxGeometry relative="1" as="geometry" />
        </mxCell>
        <mxCell id="jz__pMLLjrS1bMTCTAv0-16" value="setServletContext" style="whiteSpace=wrap;html=1;rounded=0;" vertex="1" parent="1">
          <mxGeometry x="484" y="-264" width="120" height="46" as="geometry" />
        </mxCell>
        <mxCell id="jz__pMLLjrS1bMTCTAv0-21" value="" style="edgeStyle=orthogonalEdgeStyle;rounded=0;orthogonalLoop=1;jettySize=auto;html=1;" edge="1" parent="1" source="jz__pMLLjrS1bMTCTAv0-18" target="jz__pMLLjrS1bMTCTAv0-20">
          <mxGeometry relative="1" as="geometry" />
        </mxCell>
        <mxCell id="jz__pMLLjrS1bMTCTAv0-18" value="setServletConfig" style="whiteSpace=wrap;html=1;rounded=0;" vertex="1" parent="1">
          <mxGeometry x="484" y="-194" width="120" height="41" as="geometry" />
        </mxCell>
        <mxCell id="jz__pMLLjrS1bMTCTAv0-23" value="" style="edgeStyle=orthogonalEdgeStyle;rounded=0;orthogonalLoop=1;jettySize=auto;html=1;" edge="1" parent="1" source="jz__pMLLjrS1bMTCTAv0-20" target="jz__pMLLjrS1bMTCTAv0-22">
          <mxGeometry relative="1" as="geometry" />
        </mxCell>
        <mxCell id="jz__pMLLjrS1bMTCTAv0-20" value="setNamespace" style="whiteSpace=wrap;html=1;rounded=0;" vertex="1" parent="1">
          <mxGeometry x="484" y="-126" width="120" height="40" as="geometry" />
        </mxCell>
        <mxCell id="jz__pMLLjrS1bMTCTAv0-22" value="addApplicationListener&lt;br&gt;上下文刷新的监听" style="whiteSpace=wrap;html=1;rounded=0;fillColor=#dae8fc;strokeColor=#6c8ebf;" vertex="1" parent="1">
          <mxGeometry x="475" y="-64" width="138" height="50" as="geometry" />
        </mxCell>
        <mxCell id="jz__pMLLjrS1bMTCTAv0-17" value="" style="edgeStyle=orthogonalEdgeStyle;rounded=0;orthogonalLoop=1;jettySize=auto;html=1;" edge="1" parent="1" source="jz__pMLLjrS1bMTCTAv0-13" target="jz__pMLLjrS1bMTCTAv0-16">
          <mxGeometry relative="1" as="geometry">
            <Array as="points">
              <mxPoint x="401" y="183" />
              <mxPoint x="401" y="-234" />
            </Array>
          </mxGeometry>
        </mxCell>
        <mxCell id="jz__pMLLjrS1bMTCTAv0-29" value="AbstractApplicationContext" style="rounded=0;whiteSpace=wrap;html=1;verticalAlign=top;fillColor=#d5e8d4;strokeColor=#82b366;" vertex="1" parent="1">
          <mxGeometry x="435" y="20" width="230" height="294" as="geometry" />
        </mxCell>
        <mxCell id="jz__pMLLjrS1bMTCTAv0-31" value="" style="edgeStyle=orthogonalEdgeStyle;rounded=0;orthogonalLoop=1;jettySize=auto;html=1;" edge="1" parent="1" source="jz__pMLLjrS1bMTCTAv0-26" target="jz__pMLLjrS1bMTCTAv0-30">
          <mxGeometry relative="1" as="geometry" />
        </mxCell>
        <mxCell id="jz__pMLLjrS1bMTCTAv0-26" value="refresh" style="whiteSpace=wrap;html=1;rounded=0;" vertex="1" parent="1">
          <mxGeometry x="490" y="56.01156069364162" width="120" height="47.32947976878613" as="geometry" />
        </mxCell>
        <mxCell id="jz__pMLLjrS1bMTCTAv0-33" value="" style="edgeStyle=orthogonalEdgeStyle;rounded=0;orthogonalLoop=1;jettySize=auto;html=1;" edge="1" parent="1" source="jz__pMLLjrS1bMTCTAv0-30" target="jz__pMLLjrS1bMTCTAv0-32">
          <mxGeometry relative="1" as="geometry" />
        </mxCell>
        <mxCell id="jz__pMLLjrS1bMTCTAv0-30" value="finishRefresh()" style="whiteSpace=wrap;html=1;rounded=0;" vertex="1" parent="1">
          <mxGeometry x="490" y="131.121387283237" width="120" height="47.32947976878613" as="geometry" />
        </mxCell>
        <mxCell id="jz__pMLLjrS1bMTCTAv0-32" value="publishEvent(new ContextRefreshedEvent(this))&lt;br&gt;&lt;br&gt;ContextRefreshedEvent&lt;b&gt;会在&lt;/b&gt;&lt;div&gt;&lt;b&gt;Spring容器初始化完成时触发一次&lt;/b&gt;&lt;/div&gt;" style="whiteSpace=wrap;html=1;rounded=0;fillColor=#dae8fc;strokeColor=#6c8ebf;" vertex="1" parent="1">
          <mxGeometry x="450.75" y="206.23121387283237" width="198.5" height="92.60115606936417" as="geometry" />
        </mxCell>
        <mxCell id="jz__pMLLjrS1bMTCTAv0-27" value="" style="edgeStyle=orthogonalEdgeStyle;rounded=0;orthogonalLoop=1;jettySize=auto;html=1;exitX=0;exitY=0.5;exitDx=0;exitDy=0;" edge="1" parent="1" source="jz__pMLLjrS1bMTCTAv0-22" target="jz__pMLLjrS1bMTCTAv0-26">
          <mxGeometry relative="1" as="geometry">
            <mxPoint x="544" y="-14" as="sourcePoint" />
            <Array as="points">
              <mxPoint x="449" y="-39" />
              <mxPoint x="449" y="83" />
            </Array>
          </mxGeometry>
        </mxCell>
        <mxCell id="jz__pMLLjrS1bMTCTAv0-36" value="" style="edgeStyle=orthogonalEdgeStyle;rounded=0;orthogonalLoop=1;jettySize=auto;html=1;" edge="1" parent="1" source="jz__pMLLjrS1bMTCTAv0-32" target="jz__pMLLjrS1bMTCTAv0-35">
          <mxGeometry relative="1" as="geometry">
            <Array as="points">
              <mxPoint x="411" y="246" />
              <mxPoint x="411" y="301" />
            </Array>
          </mxGeometry>
        </mxCell>
        <mxCell id="jz__pMLLjrS1bMTCTAv0-43" value="&lt;b&gt;DispatcherServlet&lt;/b&gt;" style="rounded=0;whiteSpace=wrap;html=1;verticalAlign=top;fillColor=#d5e8d4;strokeColor=#82b366;" vertex="1" parent="1">
          <mxGeometry x="724" y="-293" width="264" height="400" as="geometry" />
        </mxCell>
        <mxCell id="jz__pMLLjrS1bMTCTAv0-49" value="" style="edgeStyle=orthogonalEdgeStyle;rounded=0;orthogonalLoop=1;jettySize=auto;html=1;" edge="1" parent="1" source="jz__pMLLjrS1bMTCTAv0-46" target="jz__pMLLjrS1bMTCTAv0-48">
          <mxGeometry relative="1" as="geometry" />
        </mxCell>
        <mxCell id="jz__pMLLjrS1bMTCTAv0-46" value="initStrategies" style="whiteSpace=wrap;html=1;rounded=0;fillColor=#dae8fc;strokeColor=#6c8ebf;" vertex="1" parent="1">
          <mxGeometry x="801" y="-265.4425887265136" width="120" height="50.10438413361169" as="geometry" />
        </mxCell>
        <mxCell id="jz__pMLLjrS1bMTCTAv0-51" value="" style="edgeStyle=orthogonalEdgeStyle;rounded=0;orthogonalLoop=1;jettySize=auto;html=1;" edge="1" parent="1" source="jz__pMLLjrS1bMTCTAv0-48" target="jz__pMLLjrS1bMTCTAv0-50">
          <mxGeometry relative="1" as="geometry" />
        </mxCell>
        <mxCell id="jz__pMLLjrS1bMTCTAv0-48" value="initMultipartResolver&lt;div&gt;初始化解析器&lt;/div&gt;" style="whiteSpace=wrap;html=1;rounded=0;fillColor=#dae8fc;strokeColor=#6c8ebf;fontStyle=1" vertex="1" parent="1">
          <mxGeometry x="796" y="-196.13" width="130" height="48.43" as="geometry" />
        </mxCell>
        <mxCell id="jz__pMLLjrS1bMTCTAv0-55" value="" style="edgeStyle=orthogonalEdgeStyle;rounded=0;orthogonalLoop=1;jettySize=auto;html=1;" edge="1" parent="1" source="jz__pMLLjrS1bMTCTAv0-50" target="jz__pMLLjrS1bMTCTAv0-54">
          <mxGeometry relative="1" as="geometry" />
        </mxCell>
        <mxCell id="jz__pMLLjrS1bMTCTAv0-50" value="initHandlerMappings&lt;br&gt;在容器中查找所有HandlerMapping" style="whiteSpace=wrap;html=1;rounded=0;fillColor=#dae8fc;strokeColor=#6c8ebf;fontStyle=1" vertex="1" parent="1">
          <mxGeometry x="763" y="-127.66" width="196" height="53.44" as="geometry" />
        </mxCell>
        <mxCell id="jz__pMLLjrS1bMTCTAv0-54" value="initHandlerAdapters&lt;div&gt;&lt;br&gt;&lt;/div&gt;&lt;div&gt;HandlerMapping找到处理请求的controller之后，会选择一个合适的HandlerAdapter处理请求，&lt;/div&gt;&lt;div&gt;并返回ModelAndView&lt;/div&gt;" style="whiteSpace=wrap;html=1;rounded=0;fillColor=#dae8fc;strokeColor=#6c8ebf;fontStyle=1" vertex="1" parent="1">
          <mxGeometry x="762" y="-51.66" width="198" height="102.66" as="geometry" />
        </mxCell>
        <mxCell id="jz__pMLLjrS1bMTCTAv0-47" value="" style="edgeStyle=orthogonalEdgeStyle;rounded=0;orthogonalLoop=1;jettySize=auto;html=1;" edge="1" parent="1" source="jz__pMLLjrS1bMTCTAv0-41" target="jz__pMLLjrS1bMTCTAv0-46">
          <mxGeometry relative="1" as="geometry">
            <Array as="points">
              <mxPoint x="693" y="407" />
              <mxPoint x="693" y="-240" />
            </Array>
          </mxGeometry>
        </mxCell>
      </root>
    </mxGraphModel>
  </diagram>
  <diagram id="MjESI_GCPAiy0SqrDcRc" name="调度">
    <mxGraphModel dx="1562" dy="909" grid="0" gridSize="10" guides="1" tooltips="1" connect="1" arrows="1" fold="1" page="0" pageScale="1" pageWidth="827" pageHeight="1169" math="0" shadow="0">
      <root>
        <mxCell id="0" />
        <mxCell id="1" parent="0" />
        <mxCell id="gDBsAbo0ai4VhETl4o4M-1" value="HandlerExecutionChain" style="rounded=0;whiteSpace=wrap;html=1;verticalAlign=top;fillColor=#d5e8d4;strokeColor=#82b366;" vertex="1" parent="1">
          <mxGeometry x="459" y="80" width="180" height="215" as="geometry" />
        </mxCell>
        <mxCell id="wVD_wq-uuASF_W_s13sO-5" value="DispatcherServlet" style="rounded=0;whiteSpace=wrap;html=1;verticalAlign=top;fillColor=#d5e8d4;strokeColor=#82b366;" vertex="1" parent="1">
          <mxGeometry x="245" y="80" width="180" height="445" as="geometry" />
        </mxCell>
        <mxCell id="wVD_wq-uuASF_W_s13sO-1" value="FrameworkServlet" style="rounded=0;whiteSpace=wrap;html=1;verticalAlign=top;fillColor=#d5e8d4;strokeColor=#82b366;" vertex="1" parent="1">
          <mxGeometry x="43" y="80" width="180" height="112" as="geometry" />
        </mxCell>
        <mxCell id="wVD_wq-uuASF_W_s13sO-4" value="" style="edgeStyle=orthogonalEdgeStyle;rounded=0;orthogonalLoop=1;jettySize=auto;html=1;" edge="1" parent="1" source="wVD_wq-uuASF_W_s13sO-2" target="wVD_wq-uuASF_W_s13sO-3">
          <mxGeometry relative="1" as="geometry" />
        </mxCell>
        <mxCell id="wVD_wq-uuASF_W_s13sO-2" value="processRequest()" style="rounded=0;whiteSpace=wrap;html=1;verticalAlign=middle;" vertex="1" parent="1">
          <mxGeometry x="72" y="116" width="122" height="50" as="geometry" />
        </mxCell>
        <mxCell id="wVD_wq-uuASF_W_s13sO-7" value="" style="edgeStyle=orthogonalEdgeStyle;rounded=0;orthogonalLoop=1;jettySize=auto;html=1;" edge="1" parent="1" source="wVD_wq-uuASF_W_s13sO-3" target="wVD_wq-uuASF_W_s13sO-6">
          <mxGeometry relative="1" as="geometry" />
        </mxCell>
        <mxCell id="wVD_wq-uuASF_W_s13sO-3" value="doService" style="whiteSpace=wrap;html=1;rounded=0;" vertex="1" parent="1">
          <mxGeometry x="275" y="121" width="120" height="40" as="geometry" />
        </mxCell>
        <mxCell id="wVD_wq-uuASF_W_s13sO-9" value="" style="edgeStyle=orthogonalEdgeStyle;rounded=0;orthogonalLoop=1;jettySize=auto;html=1;" edge="1" parent="1" source="wVD_wq-uuASF_W_s13sO-6" target="wVD_wq-uuASF_W_s13sO-8">
          <mxGeometry relative="1" as="geometry" />
        </mxCell>
        <mxCell id="wVD_wq-uuASF_W_s13sO-6" value="doDispatch" style="whiteSpace=wrap;html=1;rounded=0;" vertex="1" parent="1">
          <mxGeometry x="275" y="192" width="120" height="42" as="geometry" />
        </mxCell>
        <mxCell id="20LgFpIKbcDaoXseXpxV-2" value="" style="edgeStyle=orthogonalEdgeStyle;rounded=0;orthogonalLoop=1;jettySize=auto;html=1;" edge="1" parent="1" source="wVD_wq-uuASF_W_s13sO-8" target="20LgFpIKbcDaoXseXpxV-1">
          <mxGeometry relative="1" as="geometry" />
        </mxCell>
        <mxCell id="wVD_wq-uuASF_W_s13sO-8" value="getHandler&lt;br&gt;在HandlerMappings中寻找可以处理当前请求的handler" style="whiteSpace=wrap;html=1;rounded=0;fillColor=#dae8fc;strokeColor=#6c8ebf;" vertex="1" parent="1">
          <mxGeometry x="270.5" y="268" width="129" height="60" as="geometry" />
        </mxCell>
        <mxCell id="gDBsAbo0ai4VhETl4o4M-4" value="" style="edgeStyle=orthogonalEdgeStyle;rounded=0;orthogonalLoop=1;jettySize=auto;html=1;exitX=1;exitY=0.5;exitDx=0;exitDy=0;" edge="1" parent="1" source="20LgFpIKbcDaoXseXpxV-1" target="gDBsAbo0ai4VhETl4o4M-3">
          <mxGeometry relative="1" as="geometry">
            <mxPoint x="431" y="140" as="sourcePoint" />
            <Array as="points">
              <mxPoint x="439" y="402" />
              <mxPoint x="439" y="150" />
            </Array>
          </mxGeometry>
        </mxCell>
        <mxCell id="20LgFpIKbcDaoXseXpxV-1" value="getHandlerAdapter" style="whiteSpace=wrap;html=1;rounded=0;fillColor=#dae8fc;strokeColor=#6c8ebf;" vertex="1" parent="1">
          <mxGeometry x="275" y="372" width="120" height="60" as="geometry" />
        </mxCell>
        <mxCell id="gDBsAbo0ai4VhETl4o4M-3" value="applyPreHandle&lt;br&gt;&lt;b&gt;执行所有拦截器的preHandle()方法&lt;/b&gt;" style="whiteSpace=wrap;html=1;rounded=0;" vertex="1" parent="1">
          <mxGeometry x="491" y="120" width="120" height="60" as="geometry" />
        </mxCell>
        <mxCell id="gDBsAbo0ai4VhETl4o4M-8" value="" style="group;fillColor=#d5e8d4;strokeColor=#82b366;container=0;" vertex="1" connectable="0" parent="1">
          <mxGeometry x="676" y="80" width="187" height="117" as="geometry" />
        </mxCell>
        <mxCell id="gDBsAbo0ai4VhETl4o4M-6" value="" style="edgeStyle=orthogonalEdgeStyle;rounded=0;orthogonalLoop=1;jettySize=auto;html=1;" edge="1" parent="1" source="gDBsAbo0ai4VhETl4o4M-3" target="gDBsAbo0ai4VhETl4o4M-5">
          <mxGeometry relative="1" as="geometry">
            <Array as="points">
              <mxPoint x="703" y="154" />
              <mxPoint x="703" y="154" />
            </Array>
          </mxGeometry>
        </mxCell>
        <mxCell id="gDBsAbo0ai4VhETl4o4M-13" value="" style="edgeStyle=orthogonalEdgeStyle;rounded=0;orthogonalLoop=1;jettySize=auto;html=1;" edge="1" parent="1" source="gDBsAbo0ai4VhETl4o4M-10" target="gDBsAbo0ai4VhETl4o4M-12">
          <mxGeometry relative="1" as="geometry">
            <Array as="points">
              <mxPoint x="549" y="483" />
            </Array>
          </mxGeometry>
        </mxCell>
        <mxCell id="gDBsAbo0ai4VhETl4o4M-10" value="applyPostHandle" style="whiteSpace=wrap;html=1;rounded=0;" vertex="1" parent="1">
          <mxGeometry x="491" y="201" width="120" height="60" as="geometry" />
        </mxCell>
        <mxCell id="gDBsAbo0ai4VhETl4o4M-12" value="processDispatchResult&lt;br&gt;处理结果，渲染视图" style="whiteSpace=wrap;html=1;rounded=0;fillColor=#dae8fc;strokeColor=#6c8ebf;" vertex="1" parent="1">
          <mxGeometry x="265" y="453" width="140" height="60" as="geometry" />
        </mxCell>
        <mxCell id="gDBsAbo0ai4VhETl4o4M-7" value="HandlerAdapter" style="rounded=0;whiteSpace=wrap;html=1;verticalAlign=top;fillColor=#d5e8d4;strokeColor=#82b366;" vertex="1" parent="1">
          <mxGeometry x="669" y="80" width="194" height="117" as="geometry" />
        </mxCell>
        <mxCell id="gDBsAbo0ai4VhETl4o4M-5" value="handle&lt;br&gt;&lt;b&gt;请求映射的方法&lt;/b&gt;&lt;div&gt;&lt;b&gt;在这个位置才执行，&lt;br&gt;将结果封装成ModelAndView返回&lt;/b&gt;&lt;/div&gt;" style="whiteSpace=wrap;html=1;rounded=0;fillColor=#dae8fc;strokeColor=#6c8ebf;" vertex="1" parent="1">
          <mxGeometry x="694" y="112.5" width="144" height="75" as="geometry" />
        </mxCell>
        <mxCell id="gDBsAbo0ai4VhETl4o4M-11" value="" style="edgeStyle=orthogonalEdgeStyle;rounded=0;orthogonalLoop=1;jettySize=auto;html=1;" edge="1" parent="1" source="gDBsAbo0ai4VhETl4o4M-5" target="gDBsAbo0ai4VhETl4o4M-10">
          <mxGeometry relative="1" as="geometry">
            <Array as="points">
              <mxPoint x="764" y="234" />
            </Array>
          </mxGeometry>
        </mxCell>
      </root>
    </mxGraphModel>
  </diagram>
</mxfile>
